M48
;Layer_Color=6321
;FILE_FORMAT=2:4
INCH,TZ
;TYPE=PLATED
T1F00S00C0.0079
T2F00S00C0.0157
T4F00S00C0.0590
%
T01
X14400Y12244
X15807Y12657
Y11476
X16348Y11772
X23750Y12244
X25157Y12657
Y11476
X25699Y11772
X33100Y12244
X34508Y12657
Y11476
X35049Y11772
X61152Y12244
X62559Y12657
Y11476
X63100Y11772
X88268Y12244
X89724Y12657
Y11476
X90217Y11772
X95748Y12244
X97205Y12657
Y11476
X97697Y11772
X103228Y12244
X104685Y12657
Y11476
X105177Y11772
X110709Y12244
X112165Y12657
Y11476
X112657Y11772
X118189Y12244
X119646Y12657
Y11476
X120138Y11772
X125669Y12244
X127126Y12657
Y11476
X127618Y11772
X133150Y12244
X134606Y12657
Y11476
X135098Y11772
X140630Y12244
X142087Y12657
Y11476
X142579Y11772
X148110Y12244
X149567Y12657
Y11476
X150059Y11772
X156998Y15217
X157539Y15512
X156998Y16398
X157244Y21024
X157933
X157539Y30472
X156998Y30177
X155591Y30945
X149518Y27618
Y26437
X150059Y26732
X149764Y24764
X148110Y27205
X142579Y26732
X142037Y26437
Y27618
X140630Y27205
X142283Y24764
X142037Y20138
Y18957
X142579Y19252
X142333Y17283
X140630Y19724
X148110
X149518Y20138
Y18957
X150059Y19252
X149813Y17283
X155591Y15984
X137854Y18268
X137461
X135098Y19252
X134557Y18957
Y20138
X133150Y19724
X134852Y17283
X127372
X127077Y18957
X127618Y19252
X127077Y20138
X125669Y19724
X127323Y24764
X127077Y26437
X127618Y26732
X127077Y27618
X125669Y27205
X133150
X134557Y27618
Y26437
X135098Y26732
X134803Y24764
X115463Y26732
X114921Y26437
Y27618
X113514Y27205
X113297Y24764
X113051Y20138
Y18957
X113593Y19252
X111644Y19724
X112411Y17283
X119892
X104931
X99567Y19252
X99026Y18957
Y20138
X97618Y19724
X97451Y17283
X99272Y24764
X101358Y27205
X102766Y27618
Y26437
X103307Y26732
X95827
X95285Y26437
Y27618
X93878Y27205
X91791Y24764
X91545Y20138
Y18957
X92087Y19252
X90138Y19724
X89970Y17283
X84606Y19252
X84065Y18957
Y20138
X82657Y19724
X84311Y24764
X86398Y27205
X87805Y27618
Y26437
X88346Y26732
X80866
X80323Y26437
Y27618
X78917Y27205
X76831Y24764
X76585Y20138
Y18957
X77126Y19252
X75177Y19724
X69646Y19252
X69104Y18957
Y20138
X67697Y19724
X69350Y24764
X71437Y27205
X72844Y27618
Y26437
X73386Y26732
X65906
X65364Y26437
Y27618
X63957Y27205
X62865Y17283
X62165Y19252
X61608Y18941
Y20122
X60217Y19724
X54685Y19252
X54144Y18957
Y20138
X52736Y19724
X47205Y19252
X46909Y24764
X48996Y27205
X50404Y27618
Y26437
X50945Y26732
X54390Y24764
X56476Y27205
X57884Y27618
Y26437
X58425Y26732
X61870Y24764
X46663Y20138
Y18957
X45256Y19724
X39724Y19252
X39167Y18941
Y20122
X37776Y19724
X34902Y17776
X34803Y17283
X32244Y19252
X31703Y18957
Y20138
X31949Y24764
X34035Y27205
X35443Y27618
Y26437
X35984Y26732
X39429Y24764
X41516Y27205
X42923Y27618
Y26437
X43465Y26732
X28504
X27963Y26437
Y27618
X26555Y27205
X18218Y26732
X17677Y26437
Y27618
X16270Y27205
X19843Y24764
X19547Y20138
Y18957
X20089Y19252
X18140Y19724
X16102Y17283
X25453
X25453Y17776
X30295Y19724
X15335Y34685
X15413Y41693
X14872Y41398
Y42579
X13465Y42165
X16988Y39724
X16742Y35098
Y33917
X17283Y34213
X17923Y32244
X24685Y34685
X26093Y35098
Y33917
X26634Y34213
X28209Y32244
X26339Y39724
X28524Y42165
X29833Y42579
Y41398
X30374Y41693
X22894
X22352Y41398
Y42579
X21043Y42165
X36004
X37313Y42579
Y41398
X37854Y41693
X41299Y39724
X43484Y42165
X44793Y42579
Y41398
X45335Y41693
X44154Y32539
X43169Y32244
X41594Y34213
X41053Y33917
Y35098
X39646Y34685
X36673Y32539
X35689Y32244
X34114Y34213
X33573Y33917
Y35098
X32165Y34685
X33819Y39724
X48780
X50965Y42165
X52274Y42579
Y41398
X52815Y41693
X56260Y39724
X58445Y42165
X59754Y42579
Y41398
X60295Y41693
X62087Y34685
X59114Y32539
X58130Y32244
X56555Y34213
X56014Y33917
Y35098
X54606Y34685
X51634Y32539
X50650Y32244
X49075Y34213
X48533Y33917
Y35098
X47126Y34685
X63494Y35098
Y33917
X64035Y34213
X65610Y32244
X66594Y32539
X69567Y34685
X70974Y35098
Y33917
X71516Y34213
X73091Y32244
X77047Y34685
X75256Y41693
X74715Y41398
Y42579
X73406Y42165
X71220Y39724
X67776Y41693
X67234Y41398
Y42579
X65925Y42165
X63740Y39724
X78701
X78799Y40217
X80886Y42165
X82195Y42579
Y41398
X82736Y41693
X86280Y40217
X86181Y39724
X88366Y42165
X89675Y42579
Y41398
X90217Y41693
X93661Y39724
X93415Y35098
Y33917
X92008Y34685
X86476Y34213
X85935Y33917
Y35098
X84528Y34685
X88051Y32244
X80571
X78996Y34213
X78455Y33917
Y35098
X93957Y34213
X95532Y32244
X99488Y34685
X100896Y35098
Y33917
X101437Y34213
X103012Y32244
X106968Y34685
X108376Y35098
Y33917
X108917Y34213
X108622Y39724
X105177Y41693
X104636Y41398
Y42579
X103327Y42165
X101240Y40217
X101142Y39724
X97697Y41693
X97156Y41398
Y42579
X95846Y42165
X93760Y40217
X114547Y42165
X115856Y42579
Y41398
X116398Y41693
X117972Y39724
X117726Y35098
Y33917
X118268Y34213
X116319Y34685
X115167Y32244
X120433Y43366
X125768Y42165
X127077Y42579
Y41398
X127618Y41693
X127323Y39724
X127077Y35098
Y33917
X127618Y34213
X127323Y32244
X125669Y34685
X133150
X134557Y35098
Y33917
X135098Y34213
X134803Y32244
X138150Y33327
X138346Y33130
X138543Y32933
X138740Y32736
X138937Y32539
X134803Y39724
X134557Y41398
X135098Y41693
X134557Y42579
X133248Y42165
X140728
X142037Y42579
Y41398
X142579Y41693
X142283Y39724
X145532Y40020
X145728Y40315
X145925Y40512
X146122Y40709
X148209Y42165
X149518Y42579
Y41398
X150059Y41693
X149764Y39724
X149518Y35098
Y33917
X150059Y34213
X151240Y33720
X149764Y32244
X148110Y34685
X142579Y34213
X142037Y33917
Y35098
X140630Y34685
X142283Y32244
X143169Y46713
X141201Y46614
X148780Y46417
X155689Y42165
X156998Y42579
Y41398
X157539Y41693
X156260Y45728
X159016Y45630
X157933Y35984
Y35492
X157244Y35984
X156998Y31358
X157244Y47205
X157146Y48484
X156752Y48189
X157343Y49118
X157638Y49370
X159213Y50256
X159018Y50454
X158425Y51929
X158130Y52224
X158228Y53701
X156654Y53649
X156320Y54034
X157244Y54685
X156457Y51732
X160098Y48287
X159803Y47303
X154587Y47402
X154781Y48389
X155079Y48635
X155427Y48287
X153708Y48484
X153429
X153151
X152873
X152319Y48291
X152037Y48484
X151732Y48681
X151437Y48878
Y50945
X151831
Y51240
X151240Y51831
X150945Y51929
X150650Y52028
X151634Y52224
X152520Y53110
X153504Y52913
X153307Y52717
X153406Y51634
X152988Y51437
X154685Y51142
X154980
Y50846
X155177Y50650
X155472
X156063Y50256
X156161Y51634
X154987Y51645
X150059Y50748
X149764Y50500
X149370Y50453
X149075Y50256
X148780Y50157
X148484Y50059
X148189Y49961
X147795Y49862
Y51648
X147410Y51659
X148189Y51695
X148573Y51732
X148920
X148780Y54783
X151535Y54587
X145039Y54193
X145630Y51437
X144350Y51142
X143957Y51732
X141693Y51437
X142185Y50945
X142283Y47205
X145232Y48988
X146232
X149764Y47205
X138445Y47303
X139232Y48988
X140020Y54193
X136476Y53012
X136280Y52028
X135236Y51043
X132441Y51555
Y50453
Y53012
X129882Y52421
X129587Y50157
X127077Y50059
Y48878
X127618Y49173
X127323Y47205
X125669Y49646
X127323Y54685
X134803Y47205
X120138Y49173
X119596Y48878
Y50059
X118189Y49646
X116102Y47205
X112657Y49173
X112116Y48878
Y50059
X110709Y49646
X112362Y54685
X119843
X122303Y54941
X122303Y53504
X122598Y53504
X122303Y52421
X122008Y52323
X120925
X104882Y54685
X104636Y50059
Y48878
X105177Y49173
X103228Y49646
X104685Y47205
X97402
X97156Y48878
X97697Y49173
X97156Y50059
X95748Y49646
X97402Y54685
X89921
X89675Y50059
Y48878
X90217Y49173
X89921Y47205
X88268Y49646
X82736Y49173
X82195Y48878
Y50059
X80886Y49646
X82441Y47205
Y54685
X74961
X74715Y50059
Y48878
X75256Y49173
X74961Y47205
X73406Y49646
X67776Y49173
X67234Y48878
Y50059
X65925Y49646
X67480Y47205
Y54685
X60000
X59754Y50059
Y48878
X60295Y49173
X60000Y47205
X58445Y49646
X52815Y49173
X52274Y48878
Y50059
X50965Y49646
X52520Y47205
Y54685
X45039
X44793Y50059
Y48878
X45335Y49173
X45039Y47205
X43484Y49646
X37854Y49173
X37313Y48878
Y50059
X36004Y49646
X37559Y47205
Y54685
X30079
X29833Y50059
Y48878
X30374Y49173
X30079Y47205
X28524Y49646
X22894Y49173
X22352Y48878
Y50059
X21043Y49646
X22598Y47205
Y54685
X15118
X14872Y50059
X14134Y50157
X14872Y48878
X15413Y49173
X15118Y47205
T02
X128701Y50748
X130854Y49857
X121634Y50925
X121614Y52028
X122205Y51634
X120827Y53602
X123780
X120827Y48878
T04
X13569Y15134
X22919
X32270
X60332Y15146
X87437Y15134
X94917
X102398
X109878
X117358
X124839
X132319
X139799
X147280
X157260Y19874
X154760Y18874
X149780Y16134
Y23614
X147280Y22614
X142299Y23614
Y31094
X147280Y30094
X149780Y31094
X142299Y16134
X134819
Y23614
X132319Y22614
X127339Y23614
Y31094
X132319Y30094
X134819Y31094
X139799Y30094
Y22614
X127339Y16134
X119858
X112378
X110813Y22614
X113313Y23614
X112683Y30094
X115183Y31094
X124839Y30094
Y22614
X104898Y16134
X97417
X96787Y22614
X99287Y23614
X100528Y30094
X103028Y31094
X95547
X93047Y30094
X88067Y31094
X85567Y30094
X80587Y31094
X81827Y22614
X84327Y23614
X89307Y22614
X91807Y23614
X89937Y16134
X76846Y23614
X74346Y22614
X69366Y23614
X66866Y22614
X65626Y31094
X63126Y30094
X70606
X73106Y31094
X78087Y30094
X62832Y16146
X61886Y23614
X59386Y22614
X54406Y23614
X51906Y22614
X46925Y23614
X48165Y30094
X50665Y31094
X55646Y30094
X58146Y31094
X43185
X40685Y30094
X35705Y31094
X33205Y30094
X31965Y23614
X36945Y22614
X39445Y23614
X44425Y22614
X34770Y16134
X25419
X16069
X17309Y22614
X19809Y23614
X17939Y31094
X25724Y30094
X28224Y31094
X29465Y22614
X15439Y30094
X14504Y37575
X15134Y46055
X12634Y45055
X20114
X22614Y46055
X27594Y45055
X30094Y46055
X26354Y38575
X23854Y37575
X17004Y38575
X31335Y37575
X33835Y38575
X38815Y37575
X41315Y38575
X46295Y37575
X45055Y46055
X42555Y45055
X37575Y46055
X35075Y45055
X50035
X52535Y46055
X57516Y45055
X60016Y46055
X61256Y37575
X56276Y38575
X53776Y37575
X48795Y38575
X63756
X68736Y37575
X71236Y38575
X76217Y37575
X74976Y46055
X72476Y45055
X67496Y46055
X64996Y45055
X79957
X82457Y46055
X87437Y45055
X89937Y46055
X91177Y37575
X93677Y38575
X86197
X83697Y37575
X78717Y38575
X98657Y37575
X101157Y38575
X106138Y37575
X108638Y38575
X104898Y46055
X102398Y45055
X97417Y46055
X94917Y45055
X113629Y45067
X116129Y46067
X115488Y37575
X117988Y38575
X124839Y37575
Y45055
X127339Y46055
X132319Y45055
X134819Y46055
X139799Y45055
Y37575
X134819Y38575
X132319Y37575
X127339Y38575
X142299
X147280Y37575
X149780Y38575
Y46055
X147280Y45055
X142299Y46055
X154760Y45055
Y33835
X157260Y34835
Y46055
X127339Y53535
X124839Y52535
X119858Y53535
X117358Y52535
X112378Y53535
X109878Y52535
X104898Y53535
X102398Y52535
X97417Y53535
X94917Y52535
X89937Y53535
X87437Y52535
X82457Y53535
X79957Y52535
X74976Y53535
X72476Y52535
X67496Y53535
X64996Y52535
X60016Y53535
X57516Y52535
X52535Y53535
X50035Y52535
X45055Y53535
X42555Y52535
X37575Y53535
X35075Y52535
X30094Y53535
X27594Y52535
X22614Y53535
X20114Y52535
X15134Y53535
X12634Y52535
M30
