G04*
G04 #@! TF.GenerationSoftware,Altium Limited,CircuitMaker,2.2.1 (2.2.1.6)*
G04*
G04 Layer_Color=128*
%FSLAX25Y25*%
%MOIN*%
G70*
G04*
G04 #@! TF.SameCoordinates,51275918-D11F-4CD5-9039-D10E8471D0EB*
G04*
G04*
G04 #@! TF.FilePolarity,Positive*
G04*
G01*
G75*
%ADD102C,0.00200*%
D102*
X1204842Y528189D02*
X1207205D01*
X1206024Y527008D02*
Y529370D01*
X1238858Y528189D02*
X1241220D01*
X1240039Y527008D02*
Y529370D01*
X1238858Y549291D02*
X1241220D01*
X1240039Y548110D02*
Y550472D01*
X1204842Y549291D02*
X1207205D01*
X1206024Y548110D02*
Y550472D01*
X881520Y440551D02*
X897220D01*
X889370Y432701D02*
Y448401D01*
X871420Y450551D02*
X877320D01*
X874370Y447601D02*
Y453501D01*
X896420Y460551D02*
X902320D01*
X899370Y457601D02*
Y463501D01*
X906020Y440551D02*
X912720D01*
X909370Y437201D02*
Y443901D01*
X866020Y440551D02*
X872720D01*
X869370Y437201D02*
Y443901D01*
X1255536Y515354D02*
X1271236D01*
X1263386Y507504D02*
Y523204D01*
X1245436Y525354D02*
X1251336D01*
X1248386Y522404D02*
Y528304D01*
X1270436Y535354D02*
X1276336D01*
X1273386Y532404D02*
Y538304D01*
X1280036Y515354D02*
X1286736D01*
X1283386Y512004D02*
Y518704D01*
X1240036Y515354D02*
X1246736D01*
X1243386Y512004D02*
Y518704D01*
X1180733Y515354D02*
X1196433D01*
X1188583Y507504D02*
Y523204D01*
X1170633Y525354D02*
X1176533D01*
X1173583Y522404D02*
Y528304D01*
X1195633Y535354D02*
X1201533D01*
X1198583Y532404D02*
Y538304D01*
X1205233Y515354D02*
X1211933D01*
X1208583Y512004D02*
Y518704D01*
X1165233Y515354D02*
X1171933D01*
X1168583Y512004D02*
Y518704D01*
X1105929Y515354D02*
X1121630D01*
X1113780Y507504D02*
Y523204D01*
X1095829Y525354D02*
X1101729D01*
X1098779Y522404D02*
Y528304D01*
X1120829Y535354D02*
X1126729D01*
X1123779Y532404D02*
Y538304D01*
X1130429Y515354D02*
X1137129D01*
X1133780Y512004D02*
Y518704D01*
X1090429Y515354D02*
X1097130D01*
X1093779Y512004D02*
Y518704D01*
X1031126Y515354D02*
X1046826D01*
X1038976Y507504D02*
Y523204D01*
X1021026Y525354D02*
X1026926D01*
X1023976Y522404D02*
Y528304D01*
X1046026Y535354D02*
X1051926D01*
X1048976Y532404D02*
Y538304D01*
X1055626Y515354D02*
X1062326D01*
X1058976Y512004D02*
Y518704D01*
X1015626Y515354D02*
X1022326D01*
X1018976Y512004D02*
Y518704D01*
X956323Y515354D02*
X972023D01*
X964173Y507504D02*
Y523204D01*
X946223Y525354D02*
X952123D01*
X949173Y522404D02*
Y528304D01*
X971223Y535354D02*
X977123D01*
X974173Y532404D02*
Y538304D01*
X980823Y515354D02*
X987523D01*
X984173Y512004D02*
Y518704D01*
X940823Y515354D02*
X947523D01*
X944173Y512004D02*
Y518704D01*
X881520Y515354D02*
X897220D01*
X889370Y507504D02*
Y523204D01*
X871420Y525354D02*
X877320D01*
X874370Y522404D02*
Y528304D01*
X896420Y535354D02*
X902320D01*
X899370Y532404D02*
Y538304D01*
X906020Y515354D02*
X912720D01*
X909370Y512004D02*
Y518704D01*
X866020Y515354D02*
X872720D01*
X869370Y512004D02*
Y518704D01*
X806717Y515354D02*
X822417D01*
X814567Y507504D02*
Y523204D01*
X796617Y525354D02*
X802517D01*
X799567Y522404D02*
Y528304D01*
X821617Y535354D02*
X827517D01*
X824567Y532404D02*
Y538304D01*
X831217Y515354D02*
X837917D01*
X834567Y512004D02*
Y518704D01*
X791217Y515354D02*
X797917D01*
X794567Y512004D02*
Y518704D01*
X731914Y515354D02*
X747614D01*
X739764Y507504D02*
Y523204D01*
X721814Y525354D02*
X727714D01*
X724764Y522404D02*
Y528304D01*
X746814Y535354D02*
X752714D01*
X749764Y532404D02*
Y538304D01*
X756414Y515354D02*
X763114D01*
X759764Y512004D02*
Y518704D01*
X716414Y515354D02*
X723114D01*
X719764Y512004D02*
Y518704D01*
X657111Y515354D02*
X672811D01*
X664961Y507504D02*
Y523204D01*
X647011Y525354D02*
X652911D01*
X649961Y522404D02*
Y528304D01*
X672011Y535354D02*
X677911D01*
X674961Y532404D02*
Y538304D01*
X681611Y515354D02*
X688311D01*
X684961Y512004D02*
Y518704D01*
X641611Y515354D02*
X648311D01*
X644961Y512004D02*
Y518704D01*
X582307Y515354D02*
X598007D01*
X590158Y507504D02*
Y523204D01*
X572207Y525354D02*
X578108D01*
X575157Y522404D02*
Y528304D01*
X597207Y535354D02*
X603108D01*
X600157Y532404D02*
Y538304D01*
X606808Y515354D02*
X613508D01*
X610157Y512004D02*
Y518704D01*
X566808Y515354D02*
X573507D01*
X570157Y512004D02*
Y518704D01*
X507504Y515354D02*
X523204D01*
X515354Y507504D02*
Y523204D01*
X497404Y525354D02*
X503304D01*
X500354Y522404D02*
Y528304D01*
X522404Y535354D02*
X528304D01*
X525354Y532404D02*
Y538304D01*
X532004Y515354D02*
X538704D01*
X535354Y512004D02*
Y518704D01*
X492004Y515354D02*
X498704D01*
X495354Y512004D02*
Y518704D01*
X432701Y515354D02*
X448401D01*
X440551Y507504D02*
Y523204D01*
X422601Y525354D02*
X428501D01*
X425551Y522404D02*
Y528304D01*
X447601Y535354D02*
X453501D01*
X450551Y532404D02*
Y538304D01*
X457201Y515354D02*
X463901D01*
X460551Y512004D02*
Y518704D01*
X417201Y515354D02*
X423901D01*
X420551Y512004D02*
Y518704D01*
X357898Y515354D02*
X373598D01*
X365748Y507504D02*
Y523204D01*
X347798Y525354D02*
X353698D01*
X350748Y522404D02*
Y528304D01*
X372798Y535354D02*
X378698D01*
X375748Y532404D02*
Y538304D01*
X382398Y515354D02*
X389098D01*
X385748Y512004D02*
Y518704D01*
X342398Y515354D02*
X349098D01*
X345748Y512004D02*
Y518704D01*
X283095Y515354D02*
X298795D01*
X290945Y507504D02*
Y523204D01*
X272995Y525354D02*
X278895D01*
X275945Y522404D02*
Y528304D01*
X297995Y535354D02*
X303895D01*
X300945Y532404D02*
Y538304D01*
X307595Y515354D02*
X314295D01*
X310945Y512004D02*
Y518704D01*
X267595Y515354D02*
X274295D01*
X270945Y512004D02*
Y518704D01*
X208292Y515354D02*
X223992D01*
X216142Y507504D02*
Y523204D01*
X198192Y525354D02*
X204092D01*
X201142Y522404D02*
Y528304D01*
X223192Y535354D02*
X229092D01*
X226142Y532404D02*
Y538304D01*
X232792Y515354D02*
X239492D01*
X236142Y512004D02*
Y518704D01*
X192792Y515354D02*
X199492D01*
X196142Y512004D02*
Y518704D01*
X133489Y515354D02*
X149189D01*
X141339Y507504D02*
Y523204D01*
X123389Y525354D02*
X129289D01*
X126339Y522404D02*
Y528304D01*
X148389Y535354D02*
X154289D01*
X151339Y532404D02*
Y538304D01*
X157989Y515354D02*
X164689D01*
X161339Y512004D02*
Y518704D01*
X117989Y515354D02*
X124689D01*
X121339Y512004D02*
Y518704D01*
X1554748Y440551D02*
X1570448D01*
X1562598Y432701D02*
Y448401D01*
X1544648Y450551D02*
X1550548D01*
X1547598Y447601D02*
Y453501D01*
X1569648Y460551D02*
X1575548D01*
X1572598Y457601D02*
Y463501D01*
X1579248Y440551D02*
X1585948D01*
X1582598Y437201D02*
Y443901D01*
X1539248Y440551D02*
X1545948D01*
X1542598Y437201D02*
Y443901D01*
X1479945Y440551D02*
X1495645D01*
X1487795Y432701D02*
Y448401D01*
X1469845Y450551D02*
X1475745D01*
X1472795Y447601D02*
Y453501D01*
X1494845Y460551D02*
X1500745D01*
X1497795Y457601D02*
Y463501D01*
X1504445Y440551D02*
X1511145D01*
X1507795Y437201D02*
Y443901D01*
X1464445Y440551D02*
X1471145D01*
X1467795Y437201D02*
Y443901D01*
X1405142Y440551D02*
X1420842D01*
X1412992Y432701D02*
Y448401D01*
X1395042Y450551D02*
X1400942D01*
X1397992Y447601D02*
Y453501D01*
X1420042Y460551D02*
X1425942D01*
X1422992Y457601D02*
Y463501D01*
X1429642Y440551D02*
X1436342D01*
X1432992Y437201D02*
Y443901D01*
X1389642Y440551D02*
X1396342D01*
X1392992Y437201D02*
Y443901D01*
X1330339Y440551D02*
X1346039D01*
X1338189Y432701D02*
Y448401D01*
X1320239Y450551D02*
X1326139D01*
X1323189Y447601D02*
Y453501D01*
X1345239Y460551D02*
X1351139D01*
X1348189Y457601D02*
Y463501D01*
X1354839Y440551D02*
X1361539D01*
X1358189Y437201D02*
Y443901D01*
X1314839Y440551D02*
X1321539D01*
X1318189Y437201D02*
Y443901D01*
X1255536Y440551D02*
X1271236D01*
X1263386Y432701D02*
Y448401D01*
X1245436Y450551D02*
X1251336D01*
X1248386Y447601D02*
Y453501D01*
X1270436Y460551D02*
X1276336D01*
X1273386Y457601D02*
Y463501D01*
X1280036Y440551D02*
X1286736D01*
X1283386Y437201D02*
Y443901D01*
X1240036Y440551D02*
X1246736D01*
X1243386Y437201D02*
Y443901D01*
X1143440Y440673D02*
X1159140D01*
X1151290Y432823D02*
Y448523D01*
X1133340Y450673D02*
X1139240D01*
X1136290Y447723D02*
Y453623D01*
X1158340Y460673D02*
X1164240D01*
X1161290Y457723D02*
Y463623D01*
X1167940Y440673D02*
X1174640D01*
X1171290Y437323D02*
Y444023D01*
X1127940Y440673D02*
X1134640D01*
X1131290Y437323D02*
Y444023D01*
X1031126Y440551D02*
X1046826D01*
X1038976Y432701D02*
Y448401D01*
X1021026Y450551D02*
X1026926D01*
X1023976Y447601D02*
Y453501D01*
X1046026Y460551D02*
X1051926D01*
X1048976Y457601D02*
Y463501D01*
X1055626Y440551D02*
X1062326D01*
X1058976Y437201D02*
Y443901D01*
X1015626Y440551D02*
X1022326D01*
X1018976Y437201D02*
Y443901D01*
X956323Y440551D02*
X972023D01*
X964173Y432701D02*
Y448401D01*
X946223Y450551D02*
X952123D01*
X949173Y447601D02*
Y453501D01*
X971223Y460551D02*
X977123D01*
X974173Y457601D02*
Y463501D01*
X980823Y440551D02*
X987523D01*
X984173Y437201D02*
Y443901D01*
X940823Y440551D02*
X947523D01*
X944173Y437201D02*
Y443901D01*
X806717Y440551D02*
X822417D01*
X814567Y432701D02*
Y448401D01*
X796617Y450551D02*
X802517D01*
X799567Y447601D02*
Y453501D01*
X821617Y460551D02*
X827517D01*
X824567Y457601D02*
Y463501D01*
X831217Y440551D02*
X837917D01*
X834567Y437201D02*
Y443901D01*
X791217Y440551D02*
X797917D01*
X794567Y437201D02*
Y443901D01*
X731914Y440551D02*
X747614D01*
X739764Y432701D02*
Y448401D01*
X721814Y450551D02*
X727714D01*
X724764Y447601D02*
Y453501D01*
X746814Y460551D02*
X752714D01*
X749764Y457601D02*
Y463501D01*
X756414Y440551D02*
X763114D01*
X759764Y437201D02*
Y443901D01*
X716414Y440551D02*
X723114D01*
X719764Y437201D02*
Y443901D01*
X657111Y440551D02*
X672811D01*
X664961Y432701D02*
Y448401D01*
X647011Y450551D02*
X652911D01*
X649961Y447601D02*
Y453501D01*
X672011Y460551D02*
X677911D01*
X674961Y457601D02*
Y463501D01*
X681611Y440551D02*
X688311D01*
X684961Y437201D02*
Y443901D01*
X641611Y440551D02*
X648311D01*
X644961Y437201D02*
Y443901D01*
X582307Y440551D02*
X598007D01*
X590158Y432701D02*
Y448401D01*
X572207Y450551D02*
X578108D01*
X575157Y447601D02*
Y453501D01*
X597207Y460551D02*
X603108D01*
X600157Y457601D02*
Y463501D01*
X606808Y440551D02*
X613508D01*
X610157Y437201D02*
Y443901D01*
X566808Y440551D02*
X573507D01*
X570157Y437201D02*
Y443901D01*
X507504Y440551D02*
X523204D01*
X515354Y432701D02*
Y448401D01*
X497404Y450551D02*
X503304D01*
X500354Y447601D02*
Y453501D01*
X522404Y460551D02*
X528304D01*
X525354Y457601D02*
Y463501D01*
X532004Y440551D02*
X538704D01*
X535354Y437201D02*
Y443901D01*
X492004Y440551D02*
X498704D01*
X495354Y437201D02*
Y443901D01*
X432701Y440551D02*
X448401D01*
X440551Y432701D02*
Y448401D01*
X422601Y450551D02*
X428501D01*
X425551Y447601D02*
Y453501D01*
X447601Y460551D02*
X453501D01*
X450551Y457601D02*
Y463501D01*
X457201Y440551D02*
X463901D01*
X460551Y437201D02*
Y443901D01*
X417201Y440551D02*
X423901D01*
X420551Y437201D02*
Y443901D01*
X357898Y440551D02*
X373598D01*
X365748Y432701D02*
Y448401D01*
X347798Y450551D02*
X353698D01*
X350748Y447601D02*
Y453501D01*
X372798Y460551D02*
X378698D01*
X375748Y457601D02*
Y463501D01*
X382398Y440551D02*
X389098D01*
X385748Y437201D02*
Y443901D01*
X342398Y440551D02*
X349098D01*
X345748Y437201D02*
Y443901D01*
X283095Y440551D02*
X298795D01*
X290945Y432701D02*
Y448401D01*
X272995Y450551D02*
X278895D01*
X275945Y447601D02*
Y453501D01*
X297995Y460551D02*
X303895D01*
X300945Y457601D02*
Y463501D01*
X307595Y440551D02*
X314295D01*
X310945Y437201D02*
Y443901D01*
X267595Y440551D02*
X274295D01*
X270945Y437201D02*
Y443901D01*
X208292Y440551D02*
X223992D01*
X216142Y432701D02*
Y448401D01*
X198192Y450551D02*
X204092D01*
X201142Y447601D02*
Y453501D01*
X223192Y460551D02*
X229092D01*
X226142Y457601D02*
Y463501D01*
X232792Y440551D02*
X239492D01*
X236142Y437201D02*
Y443901D01*
X192792Y440551D02*
X199492D01*
X196142Y437201D02*
Y443901D01*
X133489Y440551D02*
X149189D01*
X141339Y432701D02*
Y448401D01*
X123389Y450551D02*
X129289D01*
X126339Y447601D02*
Y453501D01*
X148389Y460551D02*
X154289D01*
X151339Y457601D02*
Y463501D01*
X157989Y440551D02*
X164689D01*
X161339Y437201D02*
Y443901D01*
X117989Y440551D02*
X124689D01*
X121339Y437201D02*
Y443901D01*
X1539248Y328346D02*
X1545948D01*
X1542598Y324996D02*
Y331697D01*
X1579248Y328346D02*
X1585948D01*
X1582598Y324996D02*
Y331697D01*
X1569648Y348346D02*
X1575548D01*
X1572598Y345396D02*
Y351296D01*
X1544648Y338347D02*
X1550548D01*
X1547598Y335397D02*
Y341297D01*
X1554748Y328346D02*
X1570448D01*
X1562598Y320497D02*
Y336196D01*
X1479945Y365748D02*
X1495645D01*
X1487795Y357898D02*
Y373598D01*
X1469845Y375748D02*
X1475745D01*
X1472795Y372798D02*
Y378698D01*
X1494845Y385748D02*
X1500745D01*
X1497795Y382798D02*
Y388698D01*
X1504445Y365748D02*
X1511145D01*
X1507795Y362398D02*
Y369098D01*
X1464445Y365748D02*
X1471145D01*
X1467795Y362398D02*
Y369098D01*
X1405142Y365748D02*
X1420842D01*
X1412992Y357898D02*
Y373598D01*
X1395042Y375748D02*
X1400942D01*
X1397992Y372798D02*
Y378698D01*
X1420042Y385748D02*
X1425942D01*
X1422992Y382798D02*
Y388698D01*
X1429642Y365748D02*
X1436342D01*
X1432992Y362398D02*
Y369098D01*
X1389642Y365748D02*
X1396342D01*
X1392992Y362398D02*
Y369098D01*
X1330339Y365748D02*
X1346039D01*
X1338189Y357898D02*
Y373598D01*
X1320239Y375748D02*
X1326139D01*
X1323189Y372798D02*
Y378698D01*
X1345239Y385748D02*
X1351139D01*
X1348189Y382798D02*
Y388698D01*
X1354839Y365748D02*
X1361539D01*
X1358189Y362398D02*
Y369098D01*
X1314839Y365748D02*
X1321539D01*
X1318189Y362398D02*
Y369098D01*
X1255536Y365748D02*
X1271236D01*
X1263386Y357898D02*
Y373598D01*
X1245436Y375748D02*
X1251336D01*
X1248386Y372798D02*
Y378698D01*
X1270436Y385748D02*
X1276336D01*
X1273386Y382798D02*
Y388698D01*
X1280036Y365748D02*
X1286736D01*
X1283386Y362398D02*
Y369098D01*
X1240036Y365748D02*
X1246736D01*
X1243386Y362398D02*
Y369098D01*
X1162032Y365748D02*
X1177732D01*
X1169882Y357898D02*
Y373598D01*
X1151932Y375748D02*
X1157832D01*
X1154882Y372798D02*
Y378698D01*
X1176932Y385748D02*
X1182832D01*
X1179882Y382798D02*
Y388698D01*
X1186532Y365748D02*
X1193232D01*
X1189882Y362398D02*
Y369098D01*
X1146532Y365748D02*
X1153232D01*
X1149882Y362398D02*
Y369098D01*
X1068528Y365748D02*
X1084228D01*
X1076378Y357898D02*
Y373598D01*
X1058428Y375748D02*
X1064328D01*
X1061378Y372798D02*
Y378698D01*
X1083428Y385748D02*
X1089328D01*
X1086378Y382798D02*
Y388698D01*
X1093028Y365748D02*
X1099728D01*
X1096378Y362398D02*
Y369098D01*
X1053028Y365748D02*
X1059728D01*
X1056378Y362398D02*
Y369098D01*
X993725Y365748D02*
X1009425D01*
X1001575Y357898D02*
Y373598D01*
X983625Y375748D02*
X989525D01*
X986575Y372798D02*
Y378698D01*
X1008625Y385748D02*
X1014525D01*
X1011575Y382798D02*
Y388698D01*
X1018225Y365748D02*
X1024925D01*
X1021575Y362398D02*
Y369098D01*
X978225Y365748D02*
X984925D01*
X981575Y362398D02*
Y369098D01*
X918922Y365748D02*
X934622D01*
X926772Y357898D02*
Y373598D01*
X908822Y375748D02*
X914722D01*
X911772Y372798D02*
Y378698D01*
X933822Y385748D02*
X939722D01*
X936772Y382798D02*
Y388698D01*
X943422Y365748D02*
X950122D01*
X946772Y362398D02*
Y369098D01*
X903422Y365748D02*
X910122D01*
X906772Y362398D02*
Y369098D01*
X844118Y365748D02*
X859818D01*
X851968Y357898D02*
Y373598D01*
X834019Y375748D02*
X839919D01*
X836969Y372798D02*
Y378698D01*
X859019Y385748D02*
X864919D01*
X861969Y382798D02*
Y388698D01*
X868618Y365748D02*
X875319D01*
X871968Y362398D02*
Y369098D01*
X828619Y365748D02*
X835318D01*
X831968Y362398D02*
Y369098D01*
X769315Y365748D02*
X785015D01*
X777165Y357898D02*
Y373598D01*
X759215Y375748D02*
X765115D01*
X762165Y372798D02*
Y378698D01*
X784215Y385748D02*
X790115D01*
X787165Y382798D02*
Y388698D01*
X793815Y365748D02*
X800515D01*
X797165Y362398D02*
Y369098D01*
X753815Y365748D02*
X760515D01*
X757165Y362398D02*
Y369098D01*
X694512Y365748D02*
X710212D01*
X702362Y357898D02*
Y373598D01*
X684412Y375748D02*
X690312D01*
X687362Y372798D02*
Y378698D01*
X709412Y385748D02*
X715312D01*
X712362Y382798D02*
Y388698D01*
X719012Y365748D02*
X725712D01*
X722362Y362398D02*
Y369098D01*
X679012Y365748D02*
X685712D01*
X682362Y362398D02*
Y369098D01*
X619709Y365748D02*
X635409D01*
X627559Y357898D02*
Y373598D01*
X609609Y375748D02*
X615509D01*
X612559Y372798D02*
Y378698D01*
X634609Y385748D02*
X640509D01*
X637559Y382798D02*
Y388698D01*
X644209Y365748D02*
X650909D01*
X647559Y362398D02*
Y369098D01*
X604209Y365748D02*
X610909D01*
X607559Y362398D02*
Y369098D01*
X544906Y365748D02*
X560606D01*
X552756Y357898D02*
Y373598D01*
X534806Y375748D02*
X540706D01*
X537756Y372798D02*
Y378698D01*
X559806Y385748D02*
X565706D01*
X562756Y382798D02*
Y388698D01*
X569406Y365748D02*
X576106D01*
X572756Y362398D02*
Y369098D01*
X529406Y365748D02*
X536106D01*
X532756Y362398D02*
Y369098D01*
X470103Y365748D02*
X485803D01*
X477953Y357898D02*
Y373598D01*
X460003Y375748D02*
X465903D01*
X462953Y372798D02*
Y378698D01*
X485003Y385748D02*
X490903D01*
X487953Y382798D02*
Y388698D01*
X494603Y365748D02*
X501303D01*
X497953Y362398D02*
Y369098D01*
X454603Y365748D02*
X461303D01*
X457953Y362398D02*
Y369098D01*
X395300Y365748D02*
X411000D01*
X403150Y357898D02*
Y373598D01*
X385200Y375748D02*
X391100D01*
X388150Y372798D02*
Y378698D01*
X410200Y385748D02*
X416100D01*
X413150Y382798D02*
Y388698D01*
X419800Y365748D02*
X426500D01*
X423150Y362398D02*
Y369098D01*
X379800Y365748D02*
X386500D01*
X383150Y362398D02*
Y369098D01*
X320497Y365748D02*
X336196D01*
X328346Y357898D02*
Y373598D01*
X310397Y375748D02*
X316297D01*
X313347Y372798D02*
Y378698D01*
X335397Y385748D02*
X341297D01*
X338347Y382798D02*
Y388698D01*
X344997Y365748D02*
X351696D01*
X348346Y362398D02*
Y369098D01*
X304996Y365748D02*
X311697D01*
X308347Y362398D02*
Y369098D01*
X245693Y365748D02*
X261393D01*
X253543Y357898D02*
Y373598D01*
X235593Y375748D02*
X241493D01*
X238543Y372798D02*
Y378698D01*
X260593Y385748D02*
X266493D01*
X263543Y382798D02*
Y388698D01*
X270193Y365748D02*
X276893D01*
X273543Y362398D02*
Y369098D01*
X230193Y365748D02*
X236893D01*
X233543Y362398D02*
Y369098D01*
X152189Y365748D02*
X167889D01*
X160039Y357898D02*
Y373598D01*
X142089Y375748D02*
X147989D01*
X145039Y372798D02*
Y378698D01*
X167089Y385748D02*
X172989D01*
X170039Y382798D02*
Y388698D01*
X176689Y365748D02*
X183389D01*
X180039Y362398D02*
Y369098D01*
X136689Y365748D02*
X143389D01*
X140039Y362398D02*
Y369098D01*
X1479945Y290945D02*
X1495645D01*
X1487795Y283095D02*
Y298795D01*
X1469845Y300945D02*
X1475745D01*
X1472795Y297995D02*
Y303895D01*
X1494845Y310945D02*
X1500745D01*
X1497795Y307995D02*
Y313895D01*
X1504445Y290945D02*
X1511145D01*
X1507795Y287595D02*
Y294295D01*
X1464445Y290945D02*
X1471145D01*
X1467795Y287595D02*
Y294295D01*
X1405142Y290945D02*
X1420842D01*
X1412992Y283095D02*
Y298795D01*
X1395042Y300945D02*
X1400942D01*
X1397992Y297995D02*
Y303895D01*
X1420042Y310945D02*
X1425942D01*
X1422992Y307995D02*
Y313895D01*
X1429642Y290945D02*
X1436342D01*
X1432992Y287595D02*
Y294295D01*
X1389642Y290945D02*
X1396342D01*
X1392992Y287595D02*
Y294295D01*
X1330339Y290945D02*
X1346039D01*
X1338189Y283095D02*
Y298795D01*
X1320239Y300945D02*
X1326139D01*
X1323189Y297995D02*
Y303895D01*
X1345239Y310945D02*
X1351139D01*
X1348189Y307995D02*
Y313895D01*
X1354839Y290945D02*
X1361539D01*
X1358189Y287595D02*
Y294295D01*
X1314839Y290945D02*
X1321539D01*
X1318189Y287595D02*
Y294295D01*
X1255536Y290945D02*
X1271236D01*
X1263386Y283095D02*
Y298795D01*
X1245436Y300945D02*
X1251336D01*
X1248386Y297995D02*
Y303895D01*
X1270436Y310945D02*
X1276336D01*
X1273386Y307995D02*
Y313895D01*
X1280036Y290945D02*
X1286736D01*
X1283386Y287595D02*
Y294295D01*
X1240036Y290945D02*
X1246736D01*
X1243386Y287595D02*
Y294295D01*
X1118481Y290945D02*
X1125181D01*
X1121831Y287595D02*
Y294295D01*
X1158481Y290945D02*
X1165181D01*
X1161831Y287595D02*
Y294295D01*
X1148881Y310945D02*
X1154781D01*
X1151831Y307995D02*
Y313895D01*
X1123881Y300945D02*
X1129781D01*
X1126831Y297995D02*
Y303895D01*
X1133981Y290945D02*
X1149681D01*
X1141831Y283095D02*
Y298795D01*
X1012426Y290945D02*
X1028126D01*
X1020276Y283095D02*
Y298795D01*
X1002326Y300945D02*
X1008226D01*
X1005276Y297995D02*
Y303895D01*
X1027326Y310945D02*
X1033226D01*
X1030276Y307995D02*
Y313895D01*
X1036926Y290945D02*
X1043626D01*
X1040276Y287595D02*
Y294295D01*
X996926Y290945D02*
X1003626D01*
X1000276Y287595D02*
Y294295D01*
X937622Y290945D02*
X953322D01*
X945472Y283095D02*
Y298795D01*
X927522Y300945D02*
X933422D01*
X930472Y297995D02*
Y303895D01*
X952522Y310945D02*
X958422D01*
X955472Y307995D02*
Y313895D01*
X962122Y290945D02*
X968822D01*
X965472Y287595D02*
Y294295D01*
X922122Y290945D02*
X928822D01*
X925472Y287595D02*
Y294295D01*
X862819Y290945D02*
X878519D01*
X870669Y283095D02*
Y298795D01*
X852719Y300945D02*
X858619D01*
X855669Y297995D02*
Y303895D01*
X877719Y310945D02*
X883619D01*
X880669Y307995D02*
Y313895D01*
X887319Y290945D02*
X894019D01*
X890669Y287595D02*
Y294295D01*
X847319Y290945D02*
X854019D01*
X850669Y287595D02*
Y294295D01*
X788016Y290945D02*
X803716D01*
X795866Y283095D02*
Y298795D01*
X777916Y300945D02*
X783816D01*
X780866Y297995D02*
Y303895D01*
X802916Y310945D02*
X808816D01*
X805866Y307995D02*
Y313895D01*
X812516Y290945D02*
X819216D01*
X815866Y287595D02*
Y294295D01*
X772516Y290945D02*
X779216D01*
X775866Y287595D02*
Y294295D01*
X713213Y290945D02*
X728913D01*
X721063Y283095D02*
Y298795D01*
X703113Y300945D02*
X709013D01*
X706063Y297995D02*
Y303895D01*
X728113Y310945D02*
X734013D01*
X731063Y307995D02*
Y313895D01*
X737713Y290945D02*
X744413D01*
X741063Y287595D02*
Y294295D01*
X697713Y290945D02*
X704413D01*
X701063Y287595D02*
Y294295D01*
X638410Y290945D02*
X654110D01*
X646260Y283095D02*
Y298795D01*
X628310Y300945D02*
X634210D01*
X631260Y297995D02*
Y303895D01*
X653310Y310945D02*
X659210D01*
X656260Y307995D02*
Y313895D01*
X662910Y290945D02*
X669610D01*
X666260Y287595D02*
Y294295D01*
X622910Y290945D02*
X629610D01*
X626260Y287595D02*
Y294295D01*
X563607Y290945D02*
X579307D01*
X571457Y283095D02*
Y298795D01*
X553507Y300945D02*
X559407D01*
X556457Y297995D02*
Y303895D01*
X578507Y310945D02*
X584407D01*
X581457Y307995D02*
Y313895D01*
X588107Y290945D02*
X594807D01*
X591457Y287595D02*
Y294295D01*
X548107Y290945D02*
X554807D01*
X551457Y287595D02*
Y294295D01*
X488803Y290945D02*
X504503D01*
X496654Y283095D02*
Y298795D01*
X478703Y300945D02*
X484604D01*
X481653Y297995D02*
Y303895D01*
X503703Y310945D02*
X509604D01*
X506653Y307995D02*
Y313895D01*
X513304Y290945D02*
X520004D01*
X516653Y287595D02*
Y294295D01*
X473304Y290945D02*
X480003D01*
X476653Y287595D02*
Y294295D01*
X414000Y290945D02*
X429700D01*
X421850Y283095D02*
Y298795D01*
X403900Y300945D02*
X409800D01*
X406850Y297995D02*
Y303895D01*
X428900Y310945D02*
X434800D01*
X431850Y307995D02*
Y313895D01*
X438500Y290945D02*
X445200D01*
X441850Y287595D02*
Y294295D01*
X398500Y290945D02*
X405200D01*
X401850Y287595D02*
Y294295D01*
X339197Y290945D02*
X354897D01*
X347047Y283095D02*
Y298795D01*
X329097Y300945D02*
X334997D01*
X332047Y297995D02*
Y303895D01*
X354097Y310945D02*
X359997D01*
X357047Y307995D02*
Y313895D01*
X363697Y290945D02*
X370397D01*
X367047Y287595D02*
Y294295D01*
X323697Y290945D02*
X330397D01*
X327047Y287595D02*
Y294295D01*
X264394Y290945D02*
X280094D01*
X272244Y283095D02*
Y298795D01*
X254294Y300945D02*
X260194D01*
X257244Y297995D02*
Y303895D01*
X279294Y310945D02*
X285194D01*
X282244Y307995D02*
Y313895D01*
X288894Y290945D02*
X295594D01*
X292244Y287595D02*
Y294295D01*
X248894Y290945D02*
X255594D01*
X252244Y287595D02*
Y294295D01*
X161540Y290945D02*
X177240D01*
X169390Y283095D02*
Y298795D01*
X151440Y300945D02*
X157340D01*
X154390Y297995D02*
Y303895D01*
X176440Y310945D02*
X182340D01*
X179390Y307995D02*
Y313895D01*
X186040Y290945D02*
X192740D01*
X189390Y287595D02*
Y294295D01*
X146040Y290945D02*
X152740D01*
X149390Y287595D02*
Y294295D01*
X1539248Y178740D02*
X1545948D01*
X1542598Y175390D02*
Y182090D01*
X1579248Y178740D02*
X1585948D01*
X1582598Y175390D02*
Y182090D01*
X1569648Y198740D02*
X1575548D01*
X1572598Y195790D02*
Y201690D01*
X1544648Y188740D02*
X1550548D01*
X1547598Y185790D02*
Y191690D01*
X1554748Y178740D02*
X1570448D01*
X1562598Y170890D02*
Y186590D01*
X1479945Y216142D02*
X1495645D01*
X1487795Y208292D02*
Y223992D01*
X1469845Y226142D02*
X1475745D01*
X1472795Y223192D02*
Y229092D01*
X1494845Y236142D02*
X1500745D01*
X1497795Y233192D02*
Y239092D01*
X1504445Y216142D02*
X1511145D01*
X1507795Y212792D02*
Y219492D01*
X1464445Y216142D02*
X1471145D01*
X1467795Y212792D02*
Y219492D01*
X1405142Y216142D02*
X1420842D01*
X1412992Y208292D02*
Y223992D01*
X1395042Y226142D02*
X1400942D01*
X1397992Y223192D02*
Y229092D01*
X1420042Y236142D02*
X1425942D01*
X1422992Y233192D02*
Y239092D01*
X1429642Y216142D02*
X1436342D01*
X1432992Y212792D02*
Y219492D01*
X1389642Y216142D02*
X1396342D01*
X1392992Y212792D02*
Y219492D01*
X1330339Y216142D02*
X1346039D01*
X1338189Y208292D02*
Y223992D01*
X1320239Y226142D02*
X1326139D01*
X1323189Y223192D02*
Y229092D01*
X1345239Y236142D02*
X1351139D01*
X1348189Y233192D02*
Y239092D01*
X1354839Y216142D02*
X1361539D01*
X1358189Y212792D02*
Y219492D01*
X1314839Y216142D02*
X1321539D01*
X1318189Y212792D02*
Y219492D01*
X1255536Y216142D02*
X1271236D01*
X1263386Y208292D02*
Y223992D01*
X1245436Y226142D02*
X1251336D01*
X1248386Y223192D02*
Y229092D01*
X1270436Y236142D02*
X1276336D01*
X1273386Y233192D02*
Y239092D01*
X1280036Y216142D02*
X1286736D01*
X1283386Y212792D02*
Y219492D01*
X1240036Y216142D02*
X1246736D01*
X1243386Y212792D02*
Y219492D01*
X1099780Y216142D02*
X1106480D01*
X1103130Y212792D02*
Y219492D01*
X1139780Y216142D02*
X1146480D01*
X1143130Y212792D02*
Y219492D01*
X1130180Y236142D02*
X1136080D01*
X1133130Y233192D02*
Y239092D01*
X1105180Y226142D02*
X1111080D01*
X1108130Y223192D02*
Y229092D01*
X1115280Y216142D02*
X1130980D01*
X1123130Y208292D02*
Y223992D01*
X975024Y216142D02*
X990724D01*
X982874Y208292D02*
Y223992D01*
X964924Y226142D02*
X970824D01*
X967874Y223192D02*
Y229092D01*
X989924Y236142D02*
X995824D01*
X992874Y233192D02*
Y239092D01*
X999524Y216142D02*
X1006224D01*
X1002874Y212792D02*
Y219492D01*
X959524Y216142D02*
X966224D01*
X962874Y212792D02*
Y219492D01*
X900221Y216142D02*
X915921D01*
X908071Y208292D02*
Y223992D01*
X890121Y226142D02*
X896021D01*
X893071Y223192D02*
Y229092D01*
X915121Y236142D02*
X921021D01*
X918071Y233192D02*
Y239092D01*
X924721Y216142D02*
X931421D01*
X928071Y212792D02*
Y219492D01*
X884721Y216142D02*
X891421D01*
X888071Y212792D02*
Y219492D01*
X825418Y216142D02*
X841118D01*
X833268Y208292D02*
Y223992D01*
X815318Y226142D02*
X821218D01*
X818268Y223192D02*
Y229092D01*
X840318Y236142D02*
X846218D01*
X843268Y233192D02*
Y239092D01*
X849918Y216142D02*
X856618D01*
X853268Y212792D02*
Y219492D01*
X809918Y216142D02*
X816618D01*
X813268Y212792D02*
Y219492D01*
X750615Y216142D02*
X766315D01*
X758465Y208292D02*
Y223992D01*
X740515Y226142D02*
X746415D01*
X743465Y223192D02*
Y229092D01*
X765515Y236142D02*
X771415D01*
X768465Y233192D02*
Y239092D01*
X775115Y216142D02*
X781815D01*
X778465Y212792D02*
Y219492D01*
X735115Y216142D02*
X741815D01*
X738465Y212792D02*
Y219492D01*
X675811Y216142D02*
X691511D01*
X683661Y208292D02*
Y223992D01*
X665711Y226142D02*
X671611D01*
X668661Y223192D02*
Y229092D01*
X690711Y236142D02*
X696611D01*
X693661Y233192D02*
Y239092D01*
X700311Y216142D02*
X707011D01*
X703661Y212792D02*
Y219492D01*
X660311Y216142D02*
X667011D01*
X663661Y212792D02*
Y219492D01*
X601008Y216142D02*
X616708D01*
X608858Y208292D02*
Y223992D01*
X590908Y226142D02*
X596808D01*
X593858Y223192D02*
Y229092D01*
X615908Y236142D02*
X621808D01*
X618858Y233192D02*
Y239092D01*
X625508Y216142D02*
X632208D01*
X628858Y212792D02*
Y219492D01*
X585508Y216142D02*
X592208D01*
X588858Y212792D02*
Y219492D01*
X526205Y216142D02*
X541905D01*
X534055Y208292D02*
Y223992D01*
X516105Y226142D02*
X522005D01*
X519055Y223192D02*
Y229092D01*
X541105Y236142D02*
X547005D01*
X544055Y233192D02*
Y239092D01*
X550705Y216142D02*
X557405D01*
X554055Y212792D02*
Y219492D01*
X510705Y216142D02*
X517405D01*
X514055Y212792D02*
Y219492D01*
X451402Y216142D02*
X467102D01*
X459252Y208292D02*
Y223992D01*
X441302Y226142D02*
X447202D01*
X444252Y223192D02*
Y229092D01*
X466302Y236142D02*
X472202D01*
X469252Y233192D02*
Y239092D01*
X475902Y216142D02*
X482602D01*
X479252Y212792D02*
Y219492D01*
X435902Y216142D02*
X442602D01*
X439252Y212792D02*
Y219492D01*
X376599Y216142D02*
X392299D01*
X384449Y208292D02*
Y223992D01*
X366499Y226142D02*
X372399D01*
X369449Y223192D02*
Y229092D01*
X391499Y236142D02*
X397399D01*
X394449Y233192D02*
Y239092D01*
X401099Y216142D02*
X407799D01*
X404449Y212792D02*
Y219492D01*
X361099Y216142D02*
X367799D01*
X364449Y212792D02*
Y219492D01*
X301796Y216142D02*
X317496D01*
X309646Y208292D02*
Y223992D01*
X291696Y226142D02*
X297596D01*
X294646Y223192D02*
Y229092D01*
X316696Y236142D02*
X322596D01*
X319646Y233192D02*
Y239092D01*
X326296Y216142D02*
X332996D01*
X329646Y212792D02*
Y219492D01*
X286296Y216142D02*
X292996D01*
X289646Y212792D02*
Y219492D01*
X164741Y216142D02*
X171441D01*
X168091Y212792D02*
Y219492D01*
X204741Y216142D02*
X211440D01*
X208090Y212792D02*
Y219492D01*
X195141Y236142D02*
X201041D01*
X198091Y233192D02*
Y239092D01*
X170141Y226142D02*
X176041D01*
X173091Y223192D02*
Y229092D01*
X180241Y216142D02*
X195941D01*
X188091Y208292D02*
Y223992D01*
X1479945Y141339D02*
X1495645D01*
X1487795Y133489D02*
Y149189D01*
X1469845Y151339D02*
X1475745D01*
X1472795Y148389D02*
Y154289D01*
X1494845Y161339D02*
X1500745D01*
X1497795Y158389D02*
Y164289D01*
X1504445Y141339D02*
X1511145D01*
X1507795Y137989D02*
Y144689D01*
X1464445Y141339D02*
X1471145D01*
X1467795Y137989D02*
Y144689D01*
X1405142Y141339D02*
X1420842D01*
X1412992Y133489D02*
Y149189D01*
X1395042Y151339D02*
X1400942D01*
X1397992Y148389D02*
Y154289D01*
X1420042Y161339D02*
X1425942D01*
X1422992Y158389D02*
Y164289D01*
X1429642Y141339D02*
X1436342D01*
X1432992Y137989D02*
Y144689D01*
X1389642Y141339D02*
X1396342D01*
X1392992Y137989D02*
Y144689D01*
X1330339Y141339D02*
X1346039D01*
X1338189Y133489D02*
Y149189D01*
X1320239Y151339D02*
X1326139D01*
X1323189Y148389D02*
Y154289D01*
X1345239Y161339D02*
X1351139D01*
X1348189Y158389D02*
Y164289D01*
X1354839Y141339D02*
X1361539D01*
X1358189Y137989D02*
Y144689D01*
X1314839Y141339D02*
X1321539D01*
X1318189Y137989D02*
Y144689D01*
X1255536Y141339D02*
X1271236D01*
X1263386Y133489D02*
Y149189D01*
X1245436Y151339D02*
X1251336D01*
X1248386Y148389D02*
Y154289D01*
X1270436Y161339D02*
X1276336D01*
X1273386Y158389D02*
Y164289D01*
X1280036Y141339D02*
X1286736D01*
X1283386Y137989D02*
Y144689D01*
X1240036Y141339D02*
X1246736D01*
X1243386Y137989D02*
Y144689D01*
X1180733Y141339D02*
X1196433D01*
X1188583Y133489D02*
Y149189D01*
X1170633Y151339D02*
X1176533D01*
X1173583Y148389D02*
Y154289D01*
X1195633Y161339D02*
X1201533D01*
X1198583Y158389D02*
Y164289D01*
X1205233Y141339D02*
X1211933D01*
X1208583Y137989D02*
Y144689D01*
X1165233Y141339D02*
X1171933D01*
X1168583Y137989D02*
Y144689D01*
X1105929Y141339D02*
X1121630D01*
X1113780Y133489D02*
Y149189D01*
X1095829Y151339D02*
X1101729D01*
X1098779Y148389D02*
Y154289D01*
X1120829Y161339D02*
X1126729D01*
X1123779Y158389D02*
Y164289D01*
X1130429Y141339D02*
X1137129D01*
X1133780Y137989D02*
Y144689D01*
X1090429Y141339D02*
X1097130D01*
X1093779Y137989D02*
Y144689D01*
X1031126Y141339D02*
X1046826D01*
X1038976Y133489D02*
Y149189D01*
X1021026Y151339D02*
X1026926D01*
X1023976Y148389D02*
Y154289D01*
X1046026Y161339D02*
X1051926D01*
X1048976Y158389D02*
Y164289D01*
X1055626Y141339D02*
X1062326D01*
X1058976Y137989D02*
Y144689D01*
X1015626Y141339D02*
X1022326D01*
X1018976Y137989D02*
Y144689D01*
X956323Y141339D02*
X972023D01*
X964173Y133489D02*
Y149189D01*
X946223Y151339D02*
X952123D01*
X949173Y148389D02*
Y154289D01*
X971223Y161339D02*
X977123D01*
X974173Y158389D02*
Y164289D01*
X980823Y141339D02*
X987523D01*
X984173Y137989D02*
Y144689D01*
X940823Y141339D02*
X947523D01*
X944173Y137989D02*
Y144689D01*
X881520Y141339D02*
X897220D01*
X889370Y133489D02*
Y149189D01*
X871420Y151339D02*
X877320D01*
X874370Y148389D02*
Y154289D01*
X896420Y161339D02*
X902320D01*
X899370Y158389D02*
Y164289D01*
X906020Y141339D02*
X912720D01*
X909370Y137989D02*
Y144689D01*
X866020Y141339D02*
X872720D01*
X869370Y137989D02*
Y144689D01*
X594968Y141461D02*
X601667D01*
X598317Y138110D02*
Y144810D01*
X634968Y141461D02*
X641668D01*
X638317Y138110D02*
Y144810D01*
X625367Y161460D02*
X631267D01*
X628317Y158510D02*
Y164410D01*
X600367Y151461D02*
X606267D01*
X603317Y148511D02*
Y154411D01*
X610467Y141461D02*
X626167D01*
X618318Y133610D02*
Y149311D01*
X314347Y141339D02*
X321047D01*
X317697Y137989D02*
Y144689D01*
X354347Y141339D02*
X361047D01*
X357697Y137989D02*
Y144689D01*
X344747Y161339D02*
X350647D01*
X347697Y158389D02*
Y164289D01*
X319747Y151339D02*
X325647D01*
X322697Y148389D02*
Y154289D01*
X329847Y141339D02*
X345547D01*
X337697Y133489D02*
Y149189D01*
X220843Y141339D02*
X227543D01*
X224193Y137989D02*
Y144689D01*
X260843Y141339D02*
X267543D01*
X264193Y137989D02*
Y144689D01*
X251243Y161339D02*
X257143D01*
X254193Y158389D02*
Y164289D01*
X226243Y151339D02*
X232143D01*
X229193Y148389D02*
Y154289D01*
X236343Y141339D02*
X252043D01*
X244193Y133489D02*
Y149189D01*
X127339Y141339D02*
X134039D01*
X130689Y137989D02*
Y144689D01*
X167339Y141339D02*
X174039D01*
X170689Y137989D02*
Y144689D01*
X157739Y161339D02*
X163639D01*
X160689Y158389D02*
Y164289D01*
X132739Y151339D02*
X138639D01*
X135689Y148389D02*
Y154289D01*
X142839Y141339D02*
X158539D01*
X150689Y133489D02*
Y149189D01*
X1578937Y210236D02*
X1579724D01*
X1579331Y209842D02*
Y210630D01*
X1512008Y337205D02*
X1512795D01*
X1512402Y336811D02*
Y337598D01*
X1578937Y354921D02*
X1579724D01*
X1579331Y354528D02*
Y355315D01*
X1578937Y359842D02*
X1579724D01*
X1579331Y359449D02*
Y360236D01*
X1298425Y524213D02*
X1299213D01*
X1298819Y523819D02*
Y524606D01*
X1384055Y473032D02*
X1384842D01*
X1384449Y472638D02*
Y473425D01*
X1411614Y466142D02*
X1412402D01*
X1412008Y465748D02*
Y466535D01*
X1431299Y467126D02*
X1432087D01*
X1431693Y466732D02*
Y467520D01*
X1487402Y464173D02*
X1488189D01*
X1487795Y463779D02*
Y464567D01*
X1573032Y491185D02*
X1573819D01*
X1573425Y490791D02*
Y491578D01*
X1295472Y501575D02*
X1296260D01*
X1295866Y501181D02*
Y501968D01*
X1487402Y547835D02*
X1488189D01*
X1487795Y547441D02*
Y548228D01*
X1514961Y545866D02*
X1515748D01*
X1515354Y545472D02*
Y546260D01*
X1581890Y537008D02*
X1582677D01*
X1582283Y536614D02*
Y537402D01*
X1513976Y509449D02*
X1514764D01*
X1514370Y509055D02*
Y509842D01*
X1517913Y509449D02*
X1518701D01*
X1518307Y509055D02*
Y509842D01*
X1517913Y512402D02*
X1518701D01*
X1518307Y512008D02*
Y512795D01*
X1509055Y519291D02*
X1509842D01*
X1509449Y518898D02*
Y519685D01*
X1473705Y516590D02*
X1474492D01*
X1474098Y516197D02*
Y516984D01*
X1477559Y516480D02*
X1478347D01*
X1477953Y516087D02*
Y516874D01*
X1481496Y516949D02*
X1482283D01*
X1481890Y516555D02*
Y517343D01*
X1485339Y517323D02*
X1486126D01*
X1485732Y516929D02*
Y517717D01*
X1488807Y517323D02*
X1489594D01*
X1489201Y516929D02*
Y517717D01*
X1439173Y517323D02*
X1439961D01*
X1439567Y516929D02*
Y517717D01*
X1455906Y514370D02*
X1456693D01*
X1456299Y513976D02*
Y514764D01*
X1416535Y514370D02*
X1417323D01*
X1416929Y513976D02*
Y514764D01*
X1443110Y511417D02*
X1443898D01*
X1443504Y511024D02*
Y511811D01*
X1421457Y509449D02*
X1422244D01*
X1421850Y509055D02*
Y509842D01*
X1451929Y489882D02*
X1452717D01*
X1452323Y489488D02*
Y490276D01*
X1391929Y489882D02*
X1392717D01*
X1392323Y489488D02*
Y490276D01*
X1461929Y489882D02*
X1462716D01*
X1462323Y489488D02*
Y490276D01*
X1351968Y510433D02*
X1352756D01*
X1352362Y510039D02*
Y510827D01*
X1324016Y530118D02*
X1324803D01*
X1324409Y529724D02*
Y530512D01*
X1506102Y520276D02*
X1506890D01*
X1506496Y519882D02*
Y520669D01*
X1324016Y515551D02*
X1324803D01*
X1324409Y515158D02*
Y515945D01*
X1324016Y504528D02*
X1324803D01*
X1324409Y504134D02*
Y504921D01*
X1512008Y518307D02*
X1512795D01*
X1512402Y517913D02*
Y518701D01*
X1362402Y520276D02*
X1363189D01*
X1362795Y519882D02*
Y520669D01*
X1515945Y522244D02*
X1516732D01*
X1516339Y521850D02*
Y522638D01*
X1524803Y531102D02*
X1525591D01*
X1525197Y530709D02*
Y531496D01*
X1364370Y530118D02*
X1365158D01*
X1364764Y529724D02*
Y530512D01*
X1477559Y498622D02*
X1478347D01*
X1477953Y498228D02*
Y499016D01*
X1374213Y182677D02*
X1375000D01*
X1374606Y182283D02*
Y183071D01*
X254134Y177756D02*
X254921D01*
X254528Y177362D02*
Y178150D01*
X1481496Y499606D02*
X1482283D01*
X1481890Y499213D02*
Y500000D01*
X1378150Y182677D02*
X1378937D01*
X1378543Y182283D02*
Y183071D01*
X348622Y177756D02*
X349410D01*
X349016Y177362D02*
Y178150D01*
X1484449Y500591D02*
X1485236D01*
X1484842Y500197D02*
Y500984D01*
X1381102Y333268D02*
X1381890D01*
X1381496Y332874D02*
Y333661D01*
X366339Y325394D02*
X367126D01*
X366732Y325000D02*
Y325787D01*
X1487402Y501575D02*
X1488189D01*
X1487795Y501181D02*
Y501968D01*
X1383071Y331299D02*
X1383858D01*
X1383465Y330906D02*
Y331693D01*
X441142Y325394D02*
X441929D01*
X441535Y325000D02*
Y325787D01*
X1490354Y502559D02*
X1491142D01*
X1490748Y502165D02*
Y502953D01*
X1547413Y483886D02*
X1548200D01*
X1547807Y483493D02*
Y484280D01*
X1545472Y474016D02*
X1546260D01*
X1545866Y473622D02*
Y474409D01*
X1560236Y502559D02*
X1561024D01*
X1560630Y502165D02*
Y502953D01*
X1567126Y481890D02*
X1567913D01*
X1567520Y481496D02*
Y482283D01*
X1571063Y484842D02*
X1571850D01*
X1571457Y484449D02*
Y485236D01*
X1550394Y486354D02*
X1551181D01*
X1550787Y485960D02*
Y486748D01*
X1553874Y482874D02*
X1554661D01*
X1554267Y482480D02*
Y483268D01*
X1564173Y517323D02*
X1564961D01*
X1564567Y516929D02*
Y517717D01*
X1561220Y516339D02*
X1562008D01*
X1561614Y515945D02*
Y516732D01*
X1554331Y506496D02*
X1555118D01*
X1554724Y506102D02*
Y506890D01*
X1551378Y506496D02*
X1552165D01*
X1551772Y506102D02*
Y506890D01*
X1549409Y508465D02*
X1550197D01*
X1549803Y508071D02*
Y508858D01*
X1549409Y511417D02*
X1550197D01*
X1549803Y511024D02*
Y511811D01*
X1549481Y516448D02*
X1550269D01*
X1549875Y516054D02*
Y516842D01*
X1546457Y511417D02*
X1547244D01*
X1546850Y511024D02*
Y511811D01*
X1385039Y329331D02*
X1385827D01*
X1385433Y328937D02*
Y329724D01*
X515945Y325394D02*
X516732D01*
X516339Y325000D02*
Y325787D01*
X1493307Y504528D02*
X1494094D01*
X1493701Y504134D02*
Y504921D01*
X1387008Y327362D02*
X1387795D01*
X1387402Y326969D02*
Y327756D01*
X590748Y325394D02*
X591535D01*
X591142Y325000D02*
Y325787D01*
X1497244Y504996D02*
X1498032D01*
X1497638Y504602D02*
Y505390D01*
X1500197Y507480D02*
X1500984D01*
X1500591Y507087D02*
Y507874D01*
X1388976Y325394D02*
X1389764D01*
X1389370Y325000D02*
Y325787D01*
X665551Y325394D02*
X666339D01*
X665945Y325000D02*
Y325787D01*
X1513976Y488779D02*
X1514764D01*
X1514370Y488386D02*
Y489173D01*
X1516929Y486811D02*
X1517717D01*
X1517323Y486417D02*
Y487205D01*
X1519981Y484842D02*
X1520768D01*
X1520374Y484449D02*
Y485236D01*
X1522800Y482909D02*
X1523587D01*
X1523193Y482515D02*
Y483303D01*
X1528333Y484842D02*
X1529120D01*
X1528726Y484449D02*
Y485236D01*
X1531116Y484842D02*
X1531904D01*
X1531510Y484449D02*
Y485236D01*
X1533900Y484842D02*
X1534688D01*
X1534294Y484449D02*
Y485236D01*
X1536684Y484842D02*
X1537471D01*
X1537078Y484449D02*
Y485236D01*
X1566142Y536491D02*
X1566929D01*
X1566535Y536097D02*
Y536884D01*
X1460827Y407087D02*
X1461614D01*
X1461220Y406693D02*
Y407480D01*
X1454921Y400197D02*
X1455709D01*
X1455315Y399803D02*
Y400591D01*
X787598Y402165D02*
X788386D01*
X787992Y401772D02*
Y402559D01*
X1456890Y403150D02*
X1457677D01*
X1457283Y402756D02*
Y403543D01*
X862402Y402165D02*
X863189D01*
X862795Y401772D02*
Y402559D01*
X1458858Y405118D02*
X1459646D01*
X1459252Y404724D02*
Y405512D01*
X1532677Y527165D02*
X1533465D01*
X1533071Y526772D02*
Y527559D01*
X1534646Y529134D02*
X1535433D01*
X1535039Y528740D02*
Y529528D01*
X937205Y402165D02*
X937992D01*
X937598Y401772D02*
Y402559D01*
X1012008Y402165D02*
X1012795D01*
X1012402Y401772D02*
Y402559D01*
X1203937Y433661D02*
X1204724D01*
X1204331Y433268D02*
Y434055D01*
X1399803Y541929D02*
X1400591D01*
X1400197Y541535D02*
Y542323D01*
X1450000Y541929D02*
X1450787D01*
X1450394Y541535D02*
Y542323D01*
X1589764Y456299D02*
X1590551D01*
X1590158Y455905D02*
Y456693D01*
X1600591Y482874D02*
X1601378D01*
X1600984Y482480D02*
Y483268D01*
X1597638Y473032D02*
X1598425D01*
X1598032Y472638D02*
Y473425D01*
X1575984Y493701D02*
X1576772D01*
X1576378Y493307D02*
Y494095D01*
X1307752Y498566D02*
X1309327D01*
X1308539Y497778D02*
Y499353D01*
X1286220Y507480D02*
X1287795D01*
X1287008Y506693D02*
Y508268D01*
X1207480Y488779D02*
X1209055D01*
X1208268Y487992D02*
Y489567D01*
X1215551Y509252D02*
X1217126D01*
X1216339Y508465D02*
Y510039D01*
X1221260Y516339D02*
X1222835D01*
X1222047Y515551D02*
Y517126D01*
X1215354Y520276D02*
X1216929D01*
X1216142Y519488D02*
Y521063D01*
X1237008Y536024D02*
X1238583D01*
X1237795Y535236D02*
Y536811D01*
X1207480Y536024D02*
X1209055D01*
X1208268Y535236D02*
Y536811D01*
X1222638Y549409D02*
X1223425D01*
X1223032Y549016D02*
Y549803D01*
X1219685Y523228D02*
X1220472D01*
X1220079Y522835D02*
Y523622D01*
X1208858Y523228D02*
X1209646D01*
X1209252Y522835D02*
Y523622D01*
X1225591Y535039D02*
X1226378D01*
X1225984Y534646D02*
Y535433D01*
X1562205Y457283D02*
X1562992D01*
X1562598Y456890D02*
Y457677D01*
X1580906Y522244D02*
X1581693D01*
X1581299Y521850D02*
Y522638D01*
X1562810Y540339D02*
X1563598D01*
X1563204Y539946D02*
Y540733D01*
X1589786Y504541D02*
X1590573D01*
X1590180Y504148D02*
Y504935D01*
X1533661Y516339D02*
X1534449D01*
X1534055Y515945D02*
Y516732D01*
X157677Y114764D02*
X158465D01*
X158071Y114370D02*
Y115157D01*
X251181Y114764D02*
X251969D01*
X251575Y114370D02*
Y115157D01*
X344685Y114764D02*
X345472D01*
X345079Y114370D02*
Y115157D01*
X625197Y114764D02*
X625984D01*
X625591Y114370D02*
Y115157D01*
X896850Y114764D02*
X897638D01*
X897244Y114370D02*
Y115157D01*
X971653Y114764D02*
X972441D01*
X972047Y114370D02*
Y115157D01*
X1046457Y114764D02*
X1047244D01*
X1046850Y114370D02*
Y115157D01*
X1121260Y114764D02*
X1122047D01*
X1121653Y114370D02*
Y115157D01*
X1196063Y114764D02*
X1196850D01*
X1196457Y114370D02*
Y115157D01*
X1270866Y114764D02*
X1271653D01*
X1271260Y114370D02*
Y115157D01*
X1345669Y114764D02*
X1346457D01*
X1346063Y114370D02*
Y115157D01*
X1420472Y114764D02*
X1421260D01*
X1420866Y114370D02*
Y115157D01*
X1495276Y114764D02*
X1496063D01*
X1495669Y114370D02*
Y115157D01*
X1569587Y152165D02*
X1570374D01*
X1569980Y151772D02*
Y152559D01*
X1494783Y189567D02*
X1495571D01*
X1495177Y189173D02*
Y189961D01*
X1419980Y189567D02*
X1420768D01*
X1420374Y189173D02*
Y189961D01*
X1345177Y189567D02*
X1345965D01*
X1345571Y189173D02*
Y189961D01*
X1270374Y189567D02*
X1271161D01*
X1270768Y189173D02*
Y189961D01*
X1130118Y189567D02*
X1130906D01*
X1130512Y189173D02*
Y189961D01*
X989862Y189567D02*
X990650D01*
X990256Y189173D02*
Y189961D01*
X915059Y189567D02*
X915847D01*
X915453Y189173D02*
Y189961D01*
X840256Y189567D02*
X841043D01*
X840650Y189173D02*
Y189961D01*
X765453Y189567D02*
X766240D01*
X765846Y189173D02*
Y189961D01*
X690650Y189567D02*
X691437D01*
X691043Y189173D02*
Y189961D01*
X615689Y189409D02*
X616476D01*
X616083Y189016D02*
Y189803D01*
X541043Y189567D02*
X541831D01*
X541437Y189173D02*
Y189961D01*
X466240Y189567D02*
X467028D01*
X466634Y189173D02*
Y189961D01*
X391280Y189409D02*
X392067D01*
X391673Y189016D02*
Y189803D01*
X316634Y189567D02*
X317421D01*
X317028Y189173D02*
Y189961D01*
X195079Y189567D02*
X195866D01*
X195472Y189173D02*
Y189961D01*
X176378Y264370D02*
X177165D01*
X176772Y263976D02*
Y264764D01*
X279232Y264370D02*
X280020D01*
X279626Y263976D02*
Y264764D01*
X354035Y264370D02*
X354823D01*
X354429Y263976D02*
Y264764D01*
X428839Y264370D02*
X429626D01*
X429232Y263976D02*
Y264764D01*
X503642Y264370D02*
X504429D01*
X504035Y263976D02*
Y264764D01*
X578445Y264370D02*
X579232D01*
X578839Y263976D02*
Y264764D01*
X653248Y264370D02*
X654035D01*
X653642Y263976D02*
Y264764D01*
X728051Y264370D02*
X728839D01*
X728445Y263976D02*
Y264764D01*
X802835Y264370D02*
X803622D01*
X803228Y263976D02*
Y264764D01*
X877658Y264370D02*
X878445D01*
X878051Y263976D02*
Y264764D01*
X952461Y264370D02*
X953248D01*
X952854Y263976D02*
Y264764D01*
X1027264Y264370D02*
X1028051D01*
X1027658Y263976D02*
Y264764D01*
X1148819Y264370D02*
X1149606D01*
X1149213Y263976D02*
Y264764D01*
X1270374Y264370D02*
X1271161D01*
X1270768Y263976D02*
Y264764D01*
X1345177Y264370D02*
X1345965D01*
X1345571Y263976D02*
Y264764D01*
X1419980Y264370D02*
X1420768D01*
X1420374Y263976D02*
Y264764D01*
X1494783Y264370D02*
X1495571D01*
X1495177Y263976D02*
Y264764D01*
X1569587Y301772D02*
X1570374D01*
X1569980Y301378D02*
Y302165D01*
X1494783Y339173D02*
X1495571D01*
X1495177Y338779D02*
Y339567D01*
X1419980Y339173D02*
X1420768D01*
X1420374Y338779D02*
Y339567D01*
X1345177Y339173D02*
X1345965D01*
X1345571Y338779D02*
Y339567D01*
X1270374Y339173D02*
X1271161D01*
X1270768Y338779D02*
Y339567D01*
X1176870Y339173D02*
X1177658D01*
X1177264Y338779D02*
Y339567D01*
X1083366Y339173D02*
X1084153D01*
X1083760Y338779D02*
Y339567D01*
X1008563Y339173D02*
X1009350D01*
X1008957Y338779D02*
Y339567D01*
X933760Y339173D02*
X934547D01*
X934153Y338779D02*
Y339567D01*
X858957Y339173D02*
X859744D01*
X859350Y338779D02*
Y339567D01*
X784154Y339173D02*
X784941D01*
X784547Y338779D02*
Y339567D01*
X709350Y339173D02*
X710138D01*
X709744Y338779D02*
Y339567D01*
X634547Y339173D02*
X635335D01*
X634941Y338779D02*
Y339567D01*
X559744Y339173D02*
X560532D01*
X560138Y338779D02*
Y339567D01*
X484941Y339173D02*
X485728D01*
X485335Y338779D02*
Y339567D01*
X410138Y339173D02*
X410925D01*
X410532Y338779D02*
Y339567D01*
X335335Y339173D02*
X336122D01*
X335728Y338779D02*
Y339567D01*
X260531Y339173D02*
X261319D01*
X260925Y338779D02*
Y339567D01*
X167028Y339173D02*
X167815D01*
X167421Y338779D02*
Y339567D01*
X148327Y413976D02*
X149114D01*
X148721Y413583D02*
Y414370D01*
X223130Y413976D02*
X223917D01*
X223524Y413583D02*
Y414370D01*
X297933Y413976D02*
X298721D01*
X298327Y413583D02*
Y414370D01*
X372736Y413976D02*
X373524D01*
X373130Y413583D02*
Y414370D01*
X447539Y413976D02*
X448327D01*
X447933Y413583D02*
Y414370D01*
X522342Y413976D02*
X523130D01*
X522736Y413583D02*
Y414370D01*
X597146Y413976D02*
X597933D01*
X597539Y413583D02*
Y414370D01*
X671949Y413976D02*
X672736D01*
X672342Y413583D02*
Y414370D01*
X746752Y413976D02*
X747539D01*
X747146Y413583D02*
Y414370D01*
X821555Y413976D02*
X822342D01*
X821949Y413583D02*
Y414370D01*
X896358Y413976D02*
X897146D01*
X896752Y413583D02*
Y414370D01*
X971161Y413976D02*
X971949D01*
X971555Y413583D02*
Y414370D01*
X1045965Y413976D02*
X1046752D01*
X1046358Y413583D02*
Y414370D01*
X1158169Y413976D02*
X1158957D01*
X1158563Y413583D02*
Y414370D01*
X1270374Y413976D02*
X1271161D01*
X1270768Y413583D02*
Y414370D01*
X1345177Y413976D02*
X1345965D01*
X1345571Y413583D02*
Y414370D01*
X1419980Y413976D02*
X1420768D01*
X1420374Y413583D02*
Y414370D01*
X1494783Y413976D02*
X1495571D01*
X1495177Y413583D02*
Y414370D01*
X1569587Y413976D02*
X1570374D01*
X1569980Y413583D02*
Y414370D01*
X1270374Y488779D02*
X1271161D01*
X1270768Y488386D02*
Y489173D01*
X1195571Y488779D02*
X1196358D01*
X1195965Y488386D02*
Y489173D01*
X1120768Y488779D02*
X1121555D01*
X1121161Y488386D02*
Y489173D01*
X1045965Y488779D02*
X1046752D01*
X1046358Y488386D02*
Y489173D01*
X971161Y488779D02*
X971949D01*
X971555Y488386D02*
Y489173D01*
X821555Y488779D02*
X822342D01*
X821949Y488386D02*
Y489173D01*
X746752Y488779D02*
X747539D01*
X747146Y488386D02*
Y489173D01*
X671949Y488779D02*
X672736D01*
X672342Y488386D02*
Y489173D01*
X597146Y488779D02*
X597933D01*
X597539Y488386D02*
Y489173D01*
X522342Y488779D02*
X523130D01*
X522736Y488386D02*
Y489173D01*
X447539Y488779D02*
X448327D01*
X447933Y488386D02*
Y489173D01*
X372736Y488779D02*
X373524D01*
X373130Y488386D02*
Y489173D01*
X297933Y488779D02*
X298721D01*
X298327Y488386D02*
Y489173D01*
X223130Y488779D02*
X223917D01*
X223524Y488386D02*
Y489173D01*
X148327Y488779D02*
X149114D01*
X148721Y488386D02*
Y489173D01*
X896358Y488779D02*
X897146D01*
X896752Y488386D02*
Y489173D01*
X1495276Y126575D02*
X1496063D01*
X1495669Y126181D02*
Y126969D01*
X1222638Y535039D02*
X1223425D01*
X1223032Y534646D02*
Y535433D01*
X1222638Y524213D02*
X1223425D01*
X1223032Y523819D02*
Y524606D01*
X1529486Y514370D02*
X1530273D01*
X1529879Y513976D02*
Y514764D01*
X1572047Y546850D02*
X1572835D01*
X1572441Y546457D02*
Y547244D01*
X1591732Y502559D02*
X1592520D01*
X1592126Y502165D02*
Y502953D01*
X1583858Y519291D02*
X1584646D01*
X1584252Y518898D02*
Y519685D01*
X896358Y500591D02*
X897146D01*
X896752Y500197D02*
Y500984D01*
X901772Y491732D02*
X902559D01*
X902165Y491339D02*
Y492126D01*
X882283Y496457D02*
X883071D01*
X882677Y496063D02*
Y496850D01*
X140945Y501575D02*
X141732D01*
X141339Y501181D02*
Y501968D01*
X143602Y122441D02*
X144390D01*
X143996Y122047D02*
Y122835D01*
X181004Y197244D02*
X181791D01*
X181398Y196850D02*
Y197638D01*
X883071Y267323D02*
X883858D01*
X883465Y266929D02*
Y267717D01*
X863583Y272047D02*
X864370D01*
X863976Y271654D02*
Y272441D01*
X788779Y272047D02*
X789567D01*
X789173Y271654D02*
Y272441D01*
X630610Y117717D02*
X631398D01*
X631004Y117323D02*
Y118110D01*
X611122Y122441D02*
X611909D01*
X611516Y122047D02*
Y122835D01*
X350098Y117717D02*
X350886D01*
X350492Y117323D02*
Y118110D01*
X330610Y122441D02*
X331398D01*
X331004Y122047D02*
Y122835D01*
X256594Y117717D02*
X257382D01*
X256988Y117323D02*
Y118110D01*
X237106Y122441D02*
X237894D01*
X237500Y122047D02*
Y122835D01*
X163091Y117717D02*
X163878D01*
X163484Y117323D02*
Y118110D01*
X901772Y117717D02*
X902559D01*
X902165Y117323D02*
Y118110D01*
X882283Y122441D02*
X883071D01*
X882677Y122047D02*
Y122835D01*
X976575Y117717D02*
X977362D01*
X976968Y117323D02*
Y118110D01*
X957087Y122441D02*
X957874D01*
X957480Y122047D02*
Y122835D01*
X1051378Y117717D02*
X1052165D01*
X1051772Y117323D02*
Y118110D01*
X1031890Y122441D02*
X1032677D01*
X1032283Y122047D02*
Y122835D01*
X1126181Y117717D02*
X1126968D01*
X1126575Y117323D02*
Y118110D01*
X1106693Y122441D02*
X1107480D01*
X1107087Y122047D02*
Y122835D01*
X1200984Y117717D02*
X1201772D01*
X1201378Y117323D02*
Y118110D01*
X1181496Y122441D02*
X1182283D01*
X1181890Y122047D02*
Y122835D01*
X1275787Y117717D02*
X1276575D01*
X1276181Y117323D02*
Y118110D01*
X1256299Y122441D02*
X1257087D01*
X1256693Y122047D02*
Y122835D01*
X1350591Y117717D02*
X1351378D01*
X1350984Y117323D02*
Y118110D01*
X1331102Y122441D02*
X1331890D01*
X1331496Y122047D02*
Y122835D01*
X1425394Y117717D02*
X1426181D01*
X1425787Y117323D02*
Y118110D01*
X1405906Y122441D02*
X1406693D01*
X1406299Y122047D02*
Y122835D01*
X1500197Y117717D02*
X1500984D01*
X1500591Y117323D02*
Y118110D01*
X1480709Y122441D02*
X1481496D01*
X1481102Y122047D02*
Y122835D01*
X1575000Y155118D02*
X1575787D01*
X1575394Y154724D02*
Y155512D01*
X1555512Y159843D02*
X1556299D01*
X1555906Y159449D02*
Y160236D01*
X1500197Y192520D02*
X1500984D01*
X1500591Y192126D02*
Y192913D01*
X1480709Y197244D02*
X1481496D01*
X1481102Y196850D02*
Y197638D01*
X1425394Y192520D02*
X1426181D01*
X1425787Y192126D02*
Y192913D01*
X1405906Y197244D02*
X1406693D01*
X1406299Y196850D02*
Y197638D01*
X1350591Y192520D02*
X1351378D01*
X1350984Y192126D02*
Y192913D01*
X1331102Y197244D02*
X1331890D01*
X1331496Y196850D02*
Y197638D01*
X1275787Y192520D02*
X1276575D01*
X1276181Y192126D02*
Y192913D01*
X1256299Y197244D02*
X1257087D01*
X1256693Y196850D02*
Y197638D01*
X1135532Y192520D02*
X1136319D01*
X1135925Y192126D02*
Y192913D01*
X1116043Y197244D02*
X1116831D01*
X1116437Y196850D02*
Y197638D01*
X975787Y197244D02*
X976575D01*
X976181Y196850D02*
Y197638D01*
X995276Y192520D02*
X996063D01*
X995669Y192126D02*
Y192913D01*
X900984Y197244D02*
X901772D01*
X901378Y196850D02*
Y197638D01*
X920472Y192520D02*
X921260D01*
X920866Y192126D02*
Y192913D01*
X826181Y197244D02*
X826968D01*
X826575Y196850D02*
Y197638D01*
X845669Y192520D02*
X846457D01*
X846063Y192126D02*
Y192913D01*
X751378Y197244D02*
X752165D01*
X751772Y196850D02*
Y197638D01*
X770866Y192520D02*
X771654D01*
X771260Y192126D02*
Y192913D01*
X676575Y197244D02*
X677362D01*
X676968Y196850D02*
Y197638D01*
X696063Y192520D02*
X696850D01*
X696457Y192126D02*
Y192913D01*
X601772Y197244D02*
X602559D01*
X602165Y196850D02*
Y197638D01*
X621260Y192520D02*
X622047D01*
X621654Y192126D02*
Y192913D01*
X526968Y197244D02*
X527756D01*
X527362Y196850D02*
Y197638D01*
X546457Y192520D02*
X547244D01*
X546850Y192126D02*
Y192913D01*
X452165Y197244D02*
X452953D01*
X452559Y196850D02*
Y197638D01*
X471654Y192520D02*
X472441D01*
X472047Y192126D02*
Y192913D01*
X377362Y197244D02*
X378150D01*
X377756Y196850D02*
Y197638D01*
X396850Y192520D02*
X397638D01*
X397244Y192126D02*
Y192913D01*
X302559Y197244D02*
X303346D01*
X302953Y196850D02*
Y197638D01*
X322047Y192520D02*
X322835D01*
X322441Y192126D02*
Y192913D01*
X200492Y192520D02*
X201279D01*
X200886Y192126D02*
Y192913D01*
X162303Y272047D02*
X163091D01*
X162697Y271654D02*
Y272441D01*
X181791Y267323D02*
X182579D01*
X182185Y266929D02*
Y267717D01*
X284646Y267323D02*
X285433D01*
X285039Y266929D02*
Y267717D01*
X265158Y272047D02*
X265945D01*
X265551Y271654D02*
Y272441D01*
X359449Y267323D02*
X360236D01*
X359842Y266929D02*
Y267717D01*
X339961Y272047D02*
X340748D01*
X340354Y271654D02*
Y272441D01*
X434252Y267323D02*
X435039D01*
X434646Y266929D02*
Y267717D01*
X414764Y272047D02*
X415551D01*
X415158Y271654D02*
Y272441D01*
X509055Y267323D02*
X509842D01*
X509449Y266929D02*
Y267717D01*
X489567Y272047D02*
X490354D01*
X489961Y271654D02*
Y272441D01*
X583858Y267323D02*
X584646D01*
X584252Y266929D02*
Y267717D01*
X564370Y272047D02*
X565158D01*
X564764Y271654D02*
Y272441D01*
X658661Y267323D02*
X659449D01*
X659055Y266929D02*
Y267717D01*
X639173Y272047D02*
X639961D01*
X639567Y271654D02*
Y272441D01*
X733465Y267323D02*
X734252D01*
X733858Y266929D02*
Y267717D01*
X713976Y272047D02*
X714764D01*
X714370Y271654D02*
Y272441D01*
X808268Y267323D02*
X809055D01*
X808661Y266929D02*
Y267717D01*
X957874Y267323D02*
X958661D01*
X958268Y266929D02*
Y267717D01*
X938386Y272047D02*
X939173D01*
X938780Y271654D02*
Y272441D01*
X1032677Y267323D02*
X1033465D01*
X1033071Y266929D02*
Y267717D01*
X1013189Y272047D02*
X1013976D01*
X1013583Y271654D02*
Y272441D01*
X1154232Y267323D02*
X1155020D01*
X1154626Y266929D02*
Y267717D01*
X1134744Y272047D02*
X1135532D01*
X1135138Y271654D02*
Y272441D01*
X1256299Y272047D02*
X1257087D01*
X1256693Y271654D02*
Y272441D01*
X1275787Y267323D02*
X1276575D01*
X1276181Y266929D02*
Y267717D01*
X1331102Y272047D02*
X1331890D01*
X1331496Y271654D02*
Y272441D01*
X1350591Y267323D02*
X1351378D01*
X1350984Y266929D02*
Y267717D01*
X1405906Y272047D02*
X1406693D01*
X1406299Y271654D02*
Y272441D01*
X1425394Y267323D02*
X1426181D01*
X1425787Y266929D02*
Y267717D01*
X1480709Y272047D02*
X1481496D01*
X1481102Y271654D02*
Y272441D01*
X1500197Y267323D02*
X1500984D01*
X1500591Y266929D02*
Y267717D01*
X1555512Y309449D02*
X1556299D01*
X1555906Y309055D02*
Y309842D01*
X1575000Y304724D02*
X1575787D01*
X1575394Y304331D02*
Y305118D01*
X1480709Y346850D02*
X1481496D01*
X1481102Y346457D02*
Y347244D01*
X1500197Y342126D02*
X1500984D01*
X1500591Y341732D02*
Y342520D01*
X1405906Y346850D02*
X1406693D01*
X1406299Y346457D02*
Y347244D01*
X1425394Y342126D02*
X1426181D01*
X1425787Y341732D02*
Y342520D01*
X1331102Y346850D02*
X1331890D01*
X1331496Y346457D02*
Y347244D01*
X1350591Y342126D02*
X1351378D01*
X1350984Y341732D02*
Y342520D01*
X1256299Y346850D02*
X1257087D01*
X1256693Y346457D02*
Y347244D01*
X1275787Y342126D02*
X1276575D01*
X1276181Y341732D02*
Y342520D01*
X1162795Y346850D02*
X1163583D01*
X1163189Y346457D02*
Y347244D01*
X1182283Y342126D02*
X1183071D01*
X1182677Y341732D02*
Y342520D01*
X1069291Y346850D02*
X1070079D01*
X1069685Y346457D02*
Y347244D01*
X1088780Y342126D02*
X1089567D01*
X1089173Y341732D02*
Y342520D01*
X994488Y346850D02*
X995276D01*
X994882Y346457D02*
Y347244D01*
X1013976Y342126D02*
X1014764D01*
X1014370Y341732D02*
Y342520D01*
X919685Y346850D02*
X920472D01*
X920079Y346457D02*
Y347244D01*
X939173Y342126D02*
X939961D01*
X939567Y341732D02*
Y342520D01*
X844882Y346850D02*
X845669D01*
X845276Y346457D02*
Y347244D01*
X864370Y342126D02*
X865158D01*
X864764Y341732D02*
Y342520D01*
X770079Y346850D02*
X770866D01*
X770472Y346457D02*
Y347244D01*
X789567Y342126D02*
X790354D01*
X789961Y341732D02*
Y342520D01*
X695276Y346850D02*
X696063D01*
X695669Y346457D02*
Y347244D01*
X714764Y342126D02*
X715551D01*
X715158Y341732D02*
Y342520D01*
X620472Y346850D02*
X621260D01*
X620866Y346457D02*
Y347244D01*
X639961Y342126D02*
X640748D01*
X640354Y341732D02*
Y342520D01*
X545669Y346850D02*
X546457D01*
X546063Y346457D02*
Y347244D01*
X565158Y342126D02*
X565945D01*
X565551Y341732D02*
Y342520D01*
X470866Y346850D02*
X471654D01*
X471260Y346457D02*
Y347244D01*
X490354Y342126D02*
X491142D01*
X490748Y341732D02*
Y342520D01*
X396063Y346850D02*
X396850D01*
X396457Y346457D02*
Y347244D01*
X415551Y342126D02*
X416339D01*
X415945Y341732D02*
Y342520D01*
X321260Y346850D02*
X322047D01*
X321654Y346457D02*
Y347244D01*
X340748Y342126D02*
X341535D01*
X341142Y341732D02*
Y342520D01*
X246457Y346850D02*
X247244D01*
X246850Y346457D02*
Y347244D01*
X265945Y342126D02*
X266732D01*
X266339Y341732D02*
Y342520D01*
X172441Y342126D02*
X173228D01*
X172835Y341732D02*
Y342520D01*
X152953Y346850D02*
X153740D01*
X153347Y346457D02*
Y347244D01*
X1556496Y421654D02*
X1557283D01*
X1556890Y421260D02*
Y422047D01*
X1481693Y421654D02*
X1482480D01*
X1482087Y421260D02*
Y422047D01*
X1406890Y421654D02*
X1407677D01*
X1407283Y421260D02*
Y422047D01*
X1332087Y421654D02*
X1332874D01*
X1332480Y421260D02*
Y422047D01*
X1257283Y421654D02*
X1258071D01*
X1257677Y421260D02*
Y422047D01*
X1145079Y421654D02*
X1145866D01*
X1145472Y421260D02*
Y422047D01*
X1032874Y421654D02*
X1033661D01*
X1033268Y421260D02*
Y422047D01*
X958071Y421654D02*
X958858D01*
X958465Y421260D02*
Y422047D01*
X883268Y421654D02*
X884055D01*
X883661Y421260D02*
Y422047D01*
X808465Y421654D02*
X809252D01*
X808858Y421260D02*
Y422047D01*
X733661Y421654D02*
X734449D01*
X734055Y421260D02*
Y422047D01*
X658858Y421654D02*
X659646D01*
X659252Y421260D02*
Y422047D01*
X584055Y421654D02*
X584842D01*
X584449Y421260D02*
Y422047D01*
X509252Y421654D02*
X510039D01*
X509646Y421260D02*
Y422047D01*
X434449Y421654D02*
X435236D01*
X434842Y421260D02*
Y422047D01*
X359646Y421654D02*
X360433D01*
X360039Y421260D02*
Y422047D01*
X284842Y421654D02*
X285630D01*
X285236Y421260D02*
Y422047D01*
X210039Y421654D02*
X210827D01*
X210433Y421260D02*
Y422047D01*
X1575000Y416929D02*
X1575787D01*
X1575394Y416535D02*
Y417323D01*
X1500197Y416929D02*
X1500984D01*
X1500591Y416535D02*
Y417323D01*
X1425394Y416929D02*
X1426181D01*
X1425787Y416535D02*
Y417323D01*
X1350591Y416929D02*
X1351378D01*
X1350984Y416535D02*
Y417323D01*
X1275787Y416929D02*
X1276575D01*
X1276181Y416535D02*
Y417323D01*
X1163583Y416929D02*
X1164370D01*
X1163976Y416535D02*
Y417323D01*
X1051378Y416929D02*
X1052165D01*
X1051772Y416535D02*
Y417323D01*
X976575Y416929D02*
X977362D01*
X976968Y416535D02*
Y417323D01*
X901772Y416929D02*
X902559D01*
X902165Y416535D02*
Y417323D01*
X826968Y416929D02*
X827756D01*
X827362Y416535D02*
Y417323D01*
X752165Y416929D02*
X752953D01*
X752559Y416535D02*
Y417323D01*
X677362Y416929D02*
X678150D01*
X677756Y416535D02*
Y417323D01*
X602559Y416929D02*
X603346D01*
X602953Y416535D02*
Y417323D01*
X527756Y416929D02*
X528543D01*
X528150Y416535D02*
Y417323D01*
X452953Y416929D02*
X453740D01*
X453346Y416535D02*
Y417323D01*
X378150Y416929D02*
X378937D01*
X378543Y416535D02*
Y417323D01*
X303346Y416929D02*
X304134D01*
X303740Y416535D02*
Y417323D01*
X228543Y416929D02*
X229331D01*
X228937Y416535D02*
Y417323D01*
X153740Y416929D02*
X154528D01*
X154134Y416535D02*
Y417323D01*
X134252Y421654D02*
X135039D01*
X134646Y421260D02*
Y422047D01*
X1256299Y496457D02*
X1257087D01*
X1256693Y496063D02*
Y496850D01*
X1181496Y496457D02*
X1182283D01*
X1181890Y496063D02*
Y496850D01*
X1106693Y496457D02*
X1107480D01*
X1107087Y496063D02*
Y496850D01*
X1031890Y496457D02*
X1032677D01*
X1032283Y496063D02*
Y496850D01*
X1275787Y491732D02*
X1276575D01*
X1276181Y491339D02*
Y492126D01*
X1200984Y491732D02*
X1201772D01*
X1201378Y491339D02*
Y492126D01*
X1126181Y491732D02*
X1126968D01*
X1126575Y491339D02*
Y492126D01*
X1051378Y491732D02*
X1052165D01*
X1051772Y491339D02*
Y492126D01*
X976575Y491732D02*
X977362D01*
X976968Y491339D02*
Y492126D01*
X957087Y496457D02*
X957874D01*
X957480Y496063D02*
Y496850D01*
X826968Y491732D02*
X827756D01*
X827362Y491339D02*
Y492126D01*
X808465Y496457D02*
X809252D01*
X808858Y496063D02*
Y496850D01*
X752165Y491732D02*
X752953D01*
X752559Y491339D02*
Y492126D01*
X733661Y496457D02*
X734449D01*
X734055Y496063D02*
Y496850D01*
X677362Y491732D02*
X678150D01*
X677756Y491339D02*
Y492126D01*
X658858Y496457D02*
X659646D01*
X659252Y496063D02*
Y496850D01*
X602559Y491732D02*
X603346D01*
X602953Y491339D02*
Y492126D01*
X584055Y496457D02*
X584842D01*
X584449Y496063D02*
Y496850D01*
X527756Y491732D02*
X528543D01*
X528150Y491339D02*
Y492126D01*
X509252Y496457D02*
X510039D01*
X509646Y496063D02*
Y496850D01*
X452953Y491732D02*
X453740D01*
X453346Y491339D02*
Y492126D01*
X434449Y496457D02*
X435236D01*
X434842Y496063D02*
Y496850D01*
X378150Y491732D02*
X378937D01*
X378543Y491339D02*
Y492126D01*
X359646Y496457D02*
X360433D01*
X360039Y496063D02*
Y496850D01*
X303346Y491732D02*
X304134D01*
X303740Y491339D02*
Y492126D01*
X284842Y496457D02*
X285630D01*
X285236Y496063D02*
Y496850D01*
X228543Y491732D02*
X229331D01*
X228937Y491339D02*
Y492126D01*
X153740Y491732D02*
X154528D01*
X154134Y491339D02*
Y492126D01*
X210039Y496457D02*
X210827D01*
X210433Y496063D02*
Y496850D01*
X148327Y500591D02*
X149114D01*
X148721Y500197D02*
Y500984D01*
X223130Y500591D02*
X223917D01*
X223524Y500197D02*
Y500984D01*
X297933Y500591D02*
X298721D01*
X298327Y500197D02*
Y500984D01*
X372736Y500591D02*
X373524D01*
X373130Y500197D02*
Y500984D01*
X447539Y500591D02*
X448327D01*
X447933Y500197D02*
Y500984D01*
X522342Y500591D02*
X523130D01*
X522736Y500197D02*
Y500984D01*
X597146Y500591D02*
X597933D01*
X597539Y500197D02*
Y500984D01*
X671949Y500591D02*
X672736D01*
X672342Y500197D02*
Y500984D01*
X746752Y500591D02*
X747539D01*
X747146Y500197D02*
Y500984D01*
X821555Y500591D02*
X822342D01*
X821949Y500197D02*
Y500984D01*
X971161Y500591D02*
X971949D01*
X971555Y500197D02*
Y500984D01*
X1045965Y500591D02*
X1046752D01*
X1046358Y500197D02*
Y500984D01*
X1120768Y500591D02*
X1121555D01*
X1121161Y500197D02*
Y500984D01*
X1195571Y500591D02*
X1196358D01*
X1195965Y500197D02*
Y500984D01*
X1270374Y500591D02*
X1271161D01*
X1270768Y500197D02*
Y500984D01*
X1569587Y425787D02*
X1570374D01*
X1569980Y425394D02*
Y426181D01*
X1494783Y425787D02*
X1495571D01*
X1495177Y425394D02*
Y426181D01*
X1419980Y425787D02*
X1420768D01*
X1420374Y425394D02*
Y426181D01*
X1345177Y425787D02*
X1345965D01*
X1345571Y425394D02*
Y426181D01*
X1270374Y425787D02*
X1271161D01*
X1270768Y425394D02*
Y426181D01*
X1158169Y425787D02*
X1158957D01*
X1158563Y425394D02*
Y426181D01*
X1045965Y425787D02*
X1046752D01*
X1046358Y425394D02*
Y426181D01*
X971161Y425787D02*
X971949D01*
X971555Y425394D02*
Y426181D01*
X896358Y425787D02*
X897146D01*
X896752Y425394D02*
Y426181D01*
X821555Y425787D02*
X822342D01*
X821949Y425394D02*
Y426181D01*
X746752Y425787D02*
X747539D01*
X747146Y425394D02*
Y426181D01*
X671949Y425787D02*
X672736D01*
X672342Y425394D02*
Y426181D01*
X597146Y425787D02*
X597933D01*
X597539Y425394D02*
Y426181D01*
X522342Y425787D02*
X523130D01*
X522736Y425394D02*
Y426181D01*
X447539Y425787D02*
X448327D01*
X447933Y425394D02*
Y426181D01*
X372736Y425787D02*
X373524D01*
X373130Y425394D02*
Y426181D01*
X297933Y425787D02*
X298721D01*
X298327Y425394D02*
Y426181D01*
X223130Y425787D02*
X223917D01*
X223524Y425394D02*
Y426181D01*
X148327Y425787D02*
X149114D01*
X148721Y425394D02*
Y426181D01*
X167028Y350984D02*
X167815D01*
X167421Y350590D02*
Y351378D01*
X260531Y350984D02*
X261319D01*
X260925Y350590D02*
Y351378D01*
X335335Y350984D02*
X336122D01*
X335728Y350590D02*
Y351378D01*
X410138Y350984D02*
X410925D01*
X410532Y350590D02*
Y351378D01*
X484941Y350984D02*
X485728D01*
X485335Y350590D02*
Y351378D01*
X559744Y350984D02*
X560532D01*
X560138Y350590D02*
Y351378D01*
X634547Y350984D02*
X635335D01*
X634941Y350590D02*
Y351378D01*
X709350Y350984D02*
X710138D01*
X709744Y350590D02*
Y351378D01*
X784154Y350984D02*
X784941D01*
X784547Y350590D02*
Y351378D01*
X858957Y350984D02*
X859744D01*
X859350Y350590D02*
Y351378D01*
X933760Y350984D02*
X934547D01*
X934153Y350590D02*
Y351378D01*
X1008563Y350984D02*
X1009350D01*
X1008957Y350590D02*
Y351378D01*
X1083366Y350984D02*
X1084153D01*
X1083760Y350590D02*
Y351378D01*
X1176870Y350984D02*
X1177658D01*
X1177264Y350590D02*
Y351378D01*
X1270374Y350984D02*
X1271161D01*
X1270768Y350590D02*
Y351378D01*
X1345177Y350984D02*
X1345965D01*
X1345571Y350590D02*
Y351378D01*
X1419980Y350984D02*
X1420768D01*
X1420374Y350590D02*
Y351378D01*
X1494783Y350984D02*
X1495571D01*
X1495177Y350590D02*
Y351378D01*
X1569587Y313583D02*
X1570374D01*
X1569980Y313189D02*
Y313976D01*
X1494783Y276181D02*
X1495571D01*
X1495177Y275787D02*
Y276575D01*
X1419980Y276181D02*
X1420768D01*
X1420374Y275787D02*
Y276575D01*
X1345177Y276181D02*
X1345965D01*
X1345571Y275787D02*
Y276575D01*
X1270374Y276181D02*
X1271161D01*
X1270768Y275787D02*
Y276575D01*
X1148819Y276181D02*
X1149606D01*
X1149213Y275787D02*
Y276575D01*
X1027264Y276181D02*
X1028051D01*
X1027658Y275787D02*
Y276575D01*
X952461Y276181D02*
X953248D01*
X952854Y275787D02*
Y276575D01*
X877658Y276181D02*
X878445D01*
X878051Y275787D02*
Y276575D01*
X802835Y276181D02*
X803622D01*
X803228Y275787D02*
Y276575D01*
X728051Y276181D02*
X728839D01*
X728445Y275787D02*
Y276575D01*
X653248Y276181D02*
X654035D01*
X653642Y275787D02*
Y276575D01*
X578445Y276181D02*
X579232D01*
X578839Y275787D02*
Y276575D01*
X503642Y276181D02*
X504429D01*
X504035Y275787D02*
Y276575D01*
X428839Y276181D02*
X429626D01*
X429232Y275787D02*
Y276575D01*
X354035Y276181D02*
X354823D01*
X354429Y275787D02*
Y276575D01*
X279232Y276181D02*
X280020D01*
X279626Y275787D02*
Y276575D01*
X176378Y276181D02*
X177165D01*
X176772Y275787D02*
Y276575D01*
X195079Y201378D02*
X195866D01*
X195472Y200984D02*
Y201772D01*
X316634Y201378D02*
X317421D01*
X317028Y200984D02*
Y201772D01*
X391280Y201220D02*
X392067D01*
X391673Y200827D02*
Y201614D01*
X466240Y201378D02*
X467028D01*
X466634Y200984D02*
Y201772D01*
X541043Y201378D02*
X541831D01*
X541437Y200984D02*
Y201772D01*
X615689Y201220D02*
X616476D01*
X616083Y200827D02*
Y201614D01*
X690650Y201378D02*
X691437D01*
X691043Y200984D02*
Y201772D01*
X765453Y201378D02*
X766240D01*
X765846Y200984D02*
Y201772D01*
X840256Y201378D02*
X841043D01*
X840650Y200984D02*
Y201772D01*
X915059Y201378D02*
X915847D01*
X915453Y200984D02*
Y201772D01*
X989862Y201378D02*
X990650D01*
X990256Y200984D02*
Y201772D01*
X1130118Y201378D02*
X1130906D01*
X1130512Y200984D02*
Y201772D01*
X1270374Y201378D02*
X1271161D01*
X1270768Y200984D02*
Y201772D01*
X1345177Y201378D02*
X1345965D01*
X1345571Y200984D02*
Y201772D01*
X1419980Y201378D02*
X1420768D01*
X1420374Y200984D02*
Y201772D01*
X1494783Y201378D02*
X1495571D01*
X1495177Y200984D02*
Y201772D01*
X1569587Y163976D02*
X1570374D01*
X1569980Y163583D02*
Y164370D01*
X1420472Y126575D02*
X1421260D01*
X1420866Y126181D02*
Y126969D01*
X1345669Y126575D02*
X1346457D01*
X1346063Y126181D02*
Y126969D01*
X1270866Y126575D02*
X1271653D01*
X1271260Y126181D02*
Y126969D01*
X1196063Y126575D02*
X1196850D01*
X1196457Y126181D02*
Y126969D01*
X1121260Y126575D02*
X1122047D01*
X1121653Y126181D02*
Y126969D01*
X1046457Y126575D02*
X1047244D01*
X1046850Y126181D02*
Y126969D01*
X971653Y126575D02*
X972441D01*
X972047Y126181D02*
Y126969D01*
X896850Y126575D02*
X897638D01*
X897244Y126181D02*
Y126969D01*
X625197Y126575D02*
X625984D01*
X625591Y126181D02*
Y126969D01*
X344685Y126575D02*
X345472D01*
X345079Y126181D02*
Y126969D01*
X251181Y126575D02*
X251969D01*
X251575Y126181D02*
Y126969D01*
X157677Y126575D02*
X158465D01*
X158071Y126181D02*
Y126969D01*
X1272835Y546850D02*
X1273622D01*
X1273228Y546457D02*
Y547244D01*
X1198032Y546850D02*
X1198819D01*
X1198425Y546457D02*
Y547244D01*
X1123228Y546850D02*
X1124016D01*
X1123622Y546457D02*
Y547244D01*
X1048425Y546850D02*
X1049213D01*
X1048819Y546457D02*
Y547244D01*
X973622Y546850D02*
X974409D01*
X974016Y546457D02*
Y547244D01*
X898819Y546850D02*
X899606D01*
X899213Y546457D02*
Y547244D01*
X824016Y546850D02*
X824803D01*
X824409Y546457D02*
Y547244D01*
X749213Y546850D02*
X750000D01*
X749606Y546457D02*
Y547244D01*
X674409Y546850D02*
X675197D01*
X674803Y546457D02*
Y547244D01*
X599606Y546850D02*
X600394D01*
X600000Y546457D02*
Y547244D01*
X524803Y546850D02*
X525591D01*
X525197Y546457D02*
Y547244D01*
X450000Y546850D02*
X450787D01*
X450394Y546457D02*
Y547244D01*
X375197Y546850D02*
X375984D01*
X375590Y546457D02*
Y547244D01*
X300394Y546850D02*
X301181D01*
X300787Y546457D02*
Y547244D01*
X225590Y546850D02*
X226378D01*
X225984Y546457D02*
Y547244D01*
X150787Y546850D02*
X151575D01*
X151181Y546457D02*
Y547244D01*
X150787Y472047D02*
X151575D01*
X151181Y471654D02*
Y472441D01*
X225590Y472047D02*
X226378D01*
X225984Y471654D02*
Y472441D01*
X300394Y472047D02*
X301181D01*
X300787Y471654D02*
Y472441D01*
X375197Y472047D02*
X375984D01*
X375590Y471654D02*
Y472441D01*
X450000Y472047D02*
X450787D01*
X450394Y471654D02*
Y472441D01*
X524803Y472047D02*
X525591D01*
X525197Y471654D02*
Y472441D01*
X599606Y472047D02*
X600394D01*
X600000Y471654D02*
Y472441D01*
X674409Y472047D02*
X675197D01*
X674803Y471654D02*
Y472441D01*
X749213Y472047D02*
X750000D01*
X749606Y471654D02*
Y472441D01*
X824016Y472047D02*
X824803D01*
X824409Y471654D02*
Y472441D01*
X898819Y472047D02*
X899606D01*
X899213Y471654D02*
Y472441D01*
X973622Y472047D02*
X974409D01*
X974016Y471654D02*
Y472441D01*
X1046457Y472047D02*
X1047244D01*
X1046850Y471654D02*
Y472441D01*
X1160630Y472047D02*
X1161417D01*
X1161024Y471654D02*
Y472441D01*
X1272835Y472047D02*
X1273622D01*
X1273228Y471654D02*
Y472441D01*
X1347638Y472047D02*
X1348425D01*
X1348032Y471654D02*
Y472441D01*
X1422441Y472047D02*
X1423228D01*
X1422835Y471654D02*
Y472441D01*
X1497244Y472047D02*
X1498032D01*
X1497638Y471654D02*
Y472441D01*
X1572047Y472047D02*
X1572835D01*
X1572441Y471654D02*
Y472441D01*
X1497244Y397244D02*
X1498032D01*
X1497638Y396850D02*
Y397638D01*
X1422441Y397244D02*
X1423228D01*
X1422835Y396850D02*
Y397638D01*
X1347638Y397244D02*
X1348425D01*
X1348032Y396850D02*
Y397638D01*
X1272835Y397244D02*
X1273622D01*
X1273228Y396850D02*
Y397638D01*
X1179331Y397244D02*
X1180118D01*
X1179724Y396850D02*
Y397638D01*
X1085827Y397244D02*
X1086614D01*
X1086220Y396850D02*
Y397638D01*
X1011024Y397244D02*
X1011811D01*
X1011417Y396850D02*
Y397638D01*
X936220Y397244D02*
X937008D01*
X936614Y396850D02*
Y397638D01*
X861417Y397244D02*
X862205D01*
X861811Y396850D02*
Y397638D01*
X786614Y397244D02*
X787402D01*
X787008Y396850D02*
Y397638D01*
X711811Y397244D02*
X712598D01*
X712205Y396850D02*
Y397638D01*
X637008Y397244D02*
X637795D01*
X637402Y396850D02*
Y397638D01*
X562205Y397244D02*
X562992D01*
X562598Y396850D02*
Y397638D01*
X487402Y397244D02*
X488189D01*
X487795Y396850D02*
Y397638D01*
X412598Y397244D02*
X413386D01*
X412992Y396850D02*
Y397638D01*
X337795Y397244D02*
X338583D01*
X338189Y396850D02*
Y397638D01*
X262992Y397244D02*
X263779D01*
X263386Y396850D02*
Y397638D01*
X169488Y397244D02*
X170276D01*
X169882Y396850D02*
Y397638D01*
X178839Y322441D02*
X179626D01*
X179232Y322047D02*
Y322835D01*
X281693Y322441D02*
X282480D01*
X282087Y322047D02*
Y322835D01*
X356496Y322441D02*
X357283D01*
X356890Y322047D02*
Y322835D01*
X431299Y322441D02*
X432087D01*
X431693Y322047D02*
Y322835D01*
X506102Y322441D02*
X506890D01*
X506496Y322047D02*
Y322835D01*
X580905Y322441D02*
X581693D01*
X581299Y322047D02*
Y322835D01*
X655709Y322441D02*
X656496D01*
X656102Y322047D02*
Y322835D01*
X730512Y322441D02*
X731299D01*
X730905Y322047D02*
Y322835D01*
X805315Y322441D02*
X806102D01*
X805709Y322047D02*
Y322835D01*
X880118Y322441D02*
X880906D01*
X880512Y322047D02*
Y322835D01*
X954921Y322441D02*
X955709D01*
X955315Y322047D02*
Y322835D01*
X1029724Y322441D02*
X1030512D01*
X1030118Y322047D02*
Y322835D01*
X1151280Y322441D02*
X1152067D01*
X1151673Y322047D02*
Y322835D01*
X1272835Y322441D02*
X1273622D01*
X1273228Y322047D02*
Y322835D01*
X1347638Y322441D02*
X1348425D01*
X1348032Y322047D02*
Y322835D01*
X1422441Y322441D02*
X1423228D01*
X1422835Y322047D02*
Y322835D01*
X1497244Y322441D02*
X1498032D01*
X1497638Y322047D02*
Y322835D01*
X1572047Y359842D02*
X1572835D01*
X1572441Y359449D02*
Y360236D01*
X1572047Y210236D02*
X1572835D01*
X1572441Y209842D02*
Y210630D01*
X1497244Y247638D02*
X1498032D01*
X1497638Y247244D02*
Y248031D01*
X1422441Y247638D02*
X1423228D01*
X1422835Y247244D02*
Y248031D01*
X1347638Y247638D02*
X1348425D01*
X1348032Y247244D02*
Y248031D01*
X1272835Y247638D02*
X1273622D01*
X1273228Y247244D02*
Y248031D01*
X1132579Y247638D02*
X1133366D01*
X1132972Y247244D02*
Y248031D01*
X992323Y247638D02*
X993110D01*
X992717Y247244D02*
Y248031D01*
X917520Y247638D02*
X918307D01*
X917913Y247244D02*
Y248031D01*
X842717Y247638D02*
X843504D01*
X843110Y247244D02*
Y248031D01*
X767913Y247638D02*
X768701D01*
X768307Y247244D02*
Y248031D01*
X693110Y247638D02*
X693898D01*
X693504Y247244D02*
Y248031D01*
X618307Y247638D02*
X619095D01*
X618701Y247244D02*
Y248031D01*
X543504Y247638D02*
X544291D01*
X543898Y247244D02*
Y248031D01*
X468701Y247638D02*
X469488D01*
X469095Y247244D02*
Y248031D01*
X393898Y247638D02*
X394685D01*
X394291Y247244D02*
Y248031D01*
X319094Y247638D02*
X319882D01*
X319488Y247244D02*
Y248031D01*
X198031Y247638D02*
X198819D01*
X198425Y247244D02*
Y248031D01*
X1497736Y172835D02*
X1498524D01*
X1498130Y172441D02*
Y173228D01*
X1422933Y172835D02*
X1423720D01*
X1423327Y172441D02*
Y173228D01*
X1348130Y172835D02*
X1348917D01*
X1348524Y172441D02*
Y173228D01*
X1273327Y172835D02*
X1274114D01*
X1273720Y172441D02*
Y173228D01*
X1198524Y172835D02*
X1199311D01*
X1198917Y172441D02*
Y173228D01*
X1123720Y172835D02*
X1124508D01*
X1124114Y172441D02*
Y173228D01*
X1048917Y172835D02*
X1049705D01*
X1049311Y172441D02*
Y173228D01*
X974114Y172835D02*
X974902D01*
X974508Y172441D02*
Y173228D01*
X899311Y172835D02*
X900098D01*
X899705Y172441D02*
Y173228D01*
X628260Y172835D02*
X629047D01*
X628653Y172441D02*
Y173228D01*
X347638Y172835D02*
X348425D01*
X348031Y172441D02*
Y173228D01*
X254134Y172835D02*
X254921D01*
X254528Y172441D02*
Y173228D01*
X160630Y172835D02*
X161417D01*
X161024Y172441D02*
Y173228D01*
M02*
