M48
;Layer_Color=6321
;FILE_FORMAT=2:4
INCH,TZ
;TYPE=NON_PLATED
T5F00S00C0.0670
T6F00S00C0.1570
%
T05
X13069Y14134
X17069
X22419
X26419
X31770
X35770
X59832Y14146
X63832
X86937Y14134
X90937
X94417
X98417
X101898
X105898
X109378
X113378
X116858
X120858
X124339
X128339
X131819
X135819
X139299
X143299
X146780
X150780
X158260Y17874
X154260
X150780Y21614
X146780
X143299
Y29094
X146780
X150780
X139299
X135819
X131819
X128339
Y21614
X131819
X135819
X139299
X124339
Y29094
X116183
X112183
X110313Y21614
X114313
X100287Y21614
X96287
X96547Y29094
X100028
X104028
X92547
X89067
X85067
X81587
X81327Y21614
X85327
X88807
X92807
X77846
X73846
X70366
X66366
X62886
X62626Y29094
X66626
X70106
X74106
X77587
X59146
X55146
X51665
X47665
X47925Y21614
X51406
X55406
X58886
X43925
X40445
X36445
X32965
X32705Y29094
X36705
X40185
X44185
X29224
X25224
X18939
X20809Y21614
X16809
X28965
X14939Y29094
X14004Y36575
X12134Y44055
X16134
X19614
X23614
X27094
X31094
X30835Y36575
X27354
X23354
X18004
X34835
X38315
X42315
X45795
X46055Y44055
X42055
X38575
X34575
X49535
X53535
X57016
X61016
X60756Y36575
X57276
X53276
X49795
X64756
X68236
X72236
X75717
X75976Y44055
X71976
X68496
X64496
X79457
X83457
X86937
X90937
X90677Y36575
X87197
X83197
X79717
X94677
X98157
X102157
X105638
X105898Y44055
X101898
X98417
X94417
X113129Y44067
X117129
X124339Y44055
Y36575
X118988
X114988
X109638
X128339
X131819
X135819
X139299
Y44055
X135819
X131819
X128339
X143299
X146780
X150780
X154260
X150780Y36575
X146780
X143299
X154260Y32835
X158260
Y44055
X128339Y51535
X124339
X120858
X116858
X113378
X109378
X105898
X101898
X98417
X94417
X90937
X86937
X83457
X79457
X75976
X71976
X68496
X64496
X61016
X57016
X53535
X49535
X46055
X42055
X38575
X34575
X31094
X27094
X23614
X19614
X16134
X12134
T06
X15069Y14134
X24419
X33770
X61832Y14146
X88937Y14134
X96417
X103898
X111378
X118858
X126339
X133819
X141299
X148780
X156260Y17874
X148780Y21614
Y29094
X141299
Y21614
X133819
Y29094
X126339
Y21614
X112313Y21614
X114183Y29094
X102028
X94547
X98287Y21614
X90807
X83327
X87067Y29094
X79587
X72106
X64626
X68366Y21614
X75846
X60886
X53406
X57146Y29094
X49665
X42185
X34705
X38445Y21614
X45925
X30965
X27224Y29094
X16939
X18809Y21614
X14134Y44055
X21614
X29094
X25354Y36575
X16004
X32835
X40315
X44055Y44055
X36575
X51535
X59016
X55276Y36575
X47795
X62756
X70236
X77717
X73976Y44055
X66496
X81457
X88937
X92677Y36575
X85197
X100157
X107638
X103898Y44055
X96417
X115129Y44067
X116988Y36575
X126339
Y44055
X133819
Y36575
X141299
Y44055
X148780
Y36575
X156260Y32835
Y44055
X126339Y51535
X118858
X111378
X103898
X96417
X88937
X81457
X73976
X66496
X59016
X51535
X44055
X36575
X29094
X21614
X14134
M30
