G04*
G04 #@! TF.GenerationSoftware,Altium Limited,CircuitMaker,2.2.1 (2.2.1.6)*
G04*
G04 Layer_Color=8150272*
%FSLAX25Y25*%
%MOIN*%
G70*
G04*
G04 #@! TF.SameCoordinates,51275918-D11F-4CD5-9039-D10E8471D0EB*
G04*
G04*
G04 #@! TF.FilePolarity,Negative*
G04*
G01*
G75*
G04:AMPARAMS|DCode=45|XSize=90.68mil|YSize=51.31mil|CornerRadius=25.65mil|HoleSize=0mil|Usage=FLASHONLY|Rotation=270.000|XOffset=0mil|YOffset=0mil|HoleType=Round|Shape=RoundedRectangle|*
%AMROUNDEDRECTD45*
21,1,0.09068,0.00000,0,0,270.0*
21,1,0.03937,0.05131,0,0,270.0*
1,1,0.05131,0.00000,-0.01968*
1,1,0.05131,0.00000,0.01968*
1,1,0.05131,0.00000,0.01968*
1,1,0.05131,0.00000,-0.01968*
%
%ADD45ROUNDEDRECTD45*%
G04:AMPARAMS|DCode=46|XSize=110.36mil|YSize=51.31mil|CornerRadius=25.65mil|HoleSize=0mil|Usage=FLASHONLY|Rotation=270.000|XOffset=0mil|YOffset=0mil|HoleType=Round|Shape=RoundedRectangle|*
%AMROUNDEDRECTD46*
21,1,0.11036,0.00000,0,0,270.0*
21,1,0.05905,0.05131,0,0,270.0*
1,1,0.05131,0.00000,-0.02953*
1,1,0.05131,0.00000,0.02953*
1,1,0.05131,0.00000,0.02953*
1,1,0.05131,0.00000,-0.02953*
%
%ADD46ROUNDEDRECTD46*%
%ADD47C,0.16500*%
%ADD48C,0.09800*%
%ADD49C,0.06800*%
%ADD50C,0.02572*%
%ADD51C,0.03950*%
G04:AMPARAMS|DCode=86|XSize=74.93mil|YSize=67.06mil|CornerRadius=0mil|HoleSize=0mil|Usage=FLASHONLY|Rotation=135.000|XOffset=0mil|YOffset=0mil|HoleType=Round|Shape=Rectangle|*
%AMROTATEDRECTD86*
4,1,4,0.05020,-0.00278,0.00278,-0.05020,-0.05020,0.00278,-0.00278,0.05020,0.05020,-0.00278,0.0*
%
%ADD86ROTATEDRECTD86*%

G04:AMPARAMS|DCode=87|XSize=59.18mil|YSize=51.31mil|CornerRadius=0mil|HoleSize=0mil|Usage=FLASHONLY|Rotation=135.000|XOffset=0mil|YOffset=0mil|HoleType=Round|Shape=Rectangle|*
%AMROTATEDRECTD87*
4,1,4,0.03906,-0.00278,0.00278,-0.03906,-0.03906,0.00278,-0.00278,0.03906,0.03906,-0.00278,0.0*
%
%ADD87ROTATEDRECTD87*%

G04:AMPARAMS|DCode=88|XSize=43.43mil|YSize=41.47mil|CornerRadius=0mil|HoleSize=0mil|Usage=FLASHONLY|Rotation=315.000|XOffset=0mil|YOffset=0mil|HoleType=Round|Shape=Rectangle|*
%AMROTATEDRECTD88*
4,1,4,-0.03002,0.00070,-0.00070,0.03002,0.03002,-0.00070,0.00070,-0.03002,-0.03002,0.00070,0.0*
%
%ADD88ROTATEDRECTD88*%

G04:AMPARAMS|DCode=89|XSize=82.8mil|YSize=50.13mil|CornerRadius=0mil|HoleSize=0mil|Usage=FLASHONLY|Rotation=270.000|XOffset=0mil|YOffset=0mil|HoleType=Round|Shape=Octagon|*
%AMOCTAGOND89*
4,1,8,-0.01253,-0.04140,0.01253,-0.04140,0.02506,-0.02887,0.02506,0.02887,0.01253,0.04140,-0.01253,0.04140,-0.02506,0.02887,-0.02506,-0.02887,-0.01253,-0.04140,0.0*
%
%ADD89OCTAGOND89*%

%ADD90R,0.05013X0.08280*%
%ADD91R,0.07887X0.12611*%
%ADD92R,0.05524X0.04737*%
G04:AMPARAMS|DCode=93|XSize=78.87mil|YSize=126.11mil|CornerRadius=0mil|HoleSize=0mil|Usage=FLASHONLY|Rotation=315.000|XOffset=0mil|YOffset=0mil|HoleType=Round|Shape=Rectangle|*
%AMROTATEDRECTD93*
4,1,4,-0.07247,-0.01670,0.01670,0.07247,0.07247,0.01670,-0.01670,-0.07247,-0.07247,-0.01670,0.0*
%
%ADD93ROTATEDRECTD93*%

%ADD94R,0.01981X0.03556*%
G04:AMPARAMS|DCode=95|XSize=43.43mil|YSize=39.5mil|CornerRadius=0mil|HoleSize=0mil|Usage=FLASHONLY|Rotation=315.000|XOffset=0mil|YOffset=0mil|HoleType=Round|Shape=Rectangle|*
%AMROTATEDRECTD95*
4,1,4,-0.02932,0.00139,-0.00139,0.02932,0.02932,-0.00139,0.00139,-0.02932,-0.02932,0.00139,0.0*
%
%ADD95ROTATEDRECTD95*%

G04:AMPARAMS|DCode=96|XSize=43.43mil|YSize=39.5mil|CornerRadius=0mil|HoleSize=0mil|Usage=FLASHONLY|Rotation=225.000|XOffset=0mil|YOffset=0mil|HoleType=Round|Shape=Rectangle|*
%AMROTATEDRECTD96*
4,1,4,0.00139,0.02932,0.02932,0.00139,-0.00139,-0.02932,-0.02932,-0.00139,0.00139,0.02932,0.0*
%
%ADD96ROTATEDRECTD96*%

G04:AMPARAMS|DCode=97|XSize=41.4mil|YSize=43.37mil|CornerRadius=0mil|HoleSize=0mil|Usage=FLASHONLY|Rotation=315.000|XOffset=0mil|YOffset=0mil|HoleType=Round|Shape=Rectangle|*
%AMROTATEDRECTD97*
4,1,4,-0.02997,-0.00070,0.00070,0.02997,0.02997,0.00070,-0.00070,-0.02997,-0.02997,-0.00070,0.0*
%
%ADD97ROTATEDRECTD97*%

G04:AMPARAMS|DCode=98|XSize=43.43mil|YSize=41.47mil|CornerRadius=0mil|HoleSize=0mil|Usage=FLASHONLY|Rotation=225.000|XOffset=0mil|YOffset=0mil|HoleType=Round|Shape=Rectangle|*
%AMROTATEDRECTD98*
4,1,4,0.00070,0.03002,0.03002,0.00070,-0.00070,-0.03002,-0.03002,-0.00070,0.00070,0.03002,0.0*
%
%ADD98ROTATEDRECTD98*%

%ADD99R,0.04737X0.03556*%
G04:AMPARAMS|DCode=100|XSize=47.37mil|YSize=49.34mil|CornerRadius=0mil|HoleSize=0mil|Usage=FLASHONLY|Rotation=135.000|XOffset=0mil|YOffset=0mil|HoleType=Round|Shape=Rectangle|*
%AMROTATEDRECTD100*
4,1,4,0.03419,0.00070,-0.00070,-0.03419,-0.03419,-0.00070,0.00070,0.03419,0.03419,0.00070,0.0*
%
%ADD100ROTATEDRECTD100*%

G04:AMPARAMS|DCode=101|XSize=47.37mil|YSize=49.34mil|CornerRadius=0mil|HoleSize=0mil|Usage=FLASHONLY|Rotation=225.000|XOffset=0mil|YOffset=0mil|HoleType=Round|Shape=Rectangle|*
%AMROTATEDRECTD101*
4,1,4,-0.00070,0.03419,0.03419,-0.00070,0.00070,-0.03419,-0.03419,0.00070,-0.00070,0.03419,0.0*
%
%ADD101ROTATEDRECTD101*%

D45*
X1206024Y528189D02*
D03*
X1240039D02*
D03*
D46*
Y549291D02*
D03*
X1206024D02*
D03*
D47*
X889370Y440551D02*
D03*
X1263386Y515354D02*
D03*
X1188583D02*
D03*
X1113780D02*
D03*
X1038976D02*
D03*
X964173D02*
D03*
X889370D02*
D03*
X814567D02*
D03*
X739764D02*
D03*
X664961D02*
D03*
X590158D02*
D03*
X515354D02*
D03*
X440551D02*
D03*
X365748D02*
D03*
X290945D02*
D03*
X216142D02*
D03*
X141339D02*
D03*
X1562598Y440551D02*
D03*
X1487795D02*
D03*
X1412992D02*
D03*
X1338189D02*
D03*
X1263386D02*
D03*
X1151290Y440673D02*
D03*
X1038976Y440551D02*
D03*
X964173D02*
D03*
X814567D02*
D03*
X739764D02*
D03*
X664961D02*
D03*
X590158D02*
D03*
X515354D02*
D03*
X440551D02*
D03*
X365748D02*
D03*
X290945D02*
D03*
X216142D02*
D03*
X141339D02*
D03*
X1562598Y328346D02*
D03*
X1487795Y365748D02*
D03*
X1412992D02*
D03*
X1338189D02*
D03*
X1263386D02*
D03*
X1169882D02*
D03*
X1076378D02*
D03*
X1001575D02*
D03*
X926772D02*
D03*
X851968D02*
D03*
X777165D02*
D03*
X702362D02*
D03*
X627559D02*
D03*
X552756D02*
D03*
X477953D02*
D03*
X403150D02*
D03*
X328346D02*
D03*
X253543D02*
D03*
X160039D02*
D03*
X1487795Y290945D02*
D03*
X1412992D02*
D03*
X1338189D02*
D03*
X1263386D02*
D03*
X1141831D02*
D03*
X1020276D02*
D03*
X945472D02*
D03*
X870669D02*
D03*
X795866D02*
D03*
X721063D02*
D03*
X646260D02*
D03*
X571457D02*
D03*
X496654D02*
D03*
X421850D02*
D03*
X347047D02*
D03*
X272244D02*
D03*
X169390D02*
D03*
X1562598Y178740D02*
D03*
X1487795Y216142D02*
D03*
X1412992D02*
D03*
X1338189D02*
D03*
X1263386D02*
D03*
X1123130Y216142D02*
D03*
X982874Y216142D02*
D03*
X908071D02*
D03*
X833268D02*
D03*
X758465D02*
D03*
X683661D02*
D03*
X608858D02*
D03*
X534055D02*
D03*
X459252D02*
D03*
X384449D02*
D03*
X309646D02*
D03*
X188091D02*
D03*
X1487795Y141339D02*
D03*
X1412992D02*
D03*
X1338189D02*
D03*
X1263386D02*
D03*
X1188583D02*
D03*
X1113780D02*
D03*
X1038976D02*
D03*
X964173D02*
D03*
X889370D02*
D03*
X618318Y141461D02*
D03*
X337697Y141339D02*
D03*
X244193D02*
D03*
X150689D02*
D03*
D48*
X874370Y450551D02*
D03*
X899370Y460551D02*
D03*
X1248386Y525354D02*
D03*
X1273386Y535354D02*
D03*
X1173583Y525354D02*
D03*
X1198583Y535354D02*
D03*
X1098779Y525354D02*
D03*
X1123779Y535354D02*
D03*
X1023976Y525354D02*
D03*
X1048976Y535354D02*
D03*
X949173Y525354D02*
D03*
X974173Y535354D02*
D03*
X874370Y525354D02*
D03*
X899370Y535354D02*
D03*
X799567Y525354D02*
D03*
X824567Y535354D02*
D03*
X724764Y525354D02*
D03*
X749764Y535354D02*
D03*
X649961Y525354D02*
D03*
X674961Y535354D02*
D03*
X575157Y525354D02*
D03*
X600157Y535354D02*
D03*
X500354Y525354D02*
D03*
X525354Y535354D02*
D03*
X425551Y525354D02*
D03*
X450551Y535354D02*
D03*
X350748Y525354D02*
D03*
X375748Y535354D02*
D03*
X275945Y525354D02*
D03*
X300945Y535354D02*
D03*
X201142Y525354D02*
D03*
X226142Y535354D02*
D03*
X126339Y525354D02*
D03*
X151339Y535354D02*
D03*
X1547598Y450551D02*
D03*
X1572598Y460551D02*
D03*
X1472795Y450551D02*
D03*
X1497795Y460551D02*
D03*
X1397992Y450551D02*
D03*
X1422992Y460551D02*
D03*
X1323189Y450551D02*
D03*
X1348189Y460551D02*
D03*
X1248386Y450551D02*
D03*
X1273386Y460551D02*
D03*
X1136290Y450673D02*
D03*
X1161290Y460673D02*
D03*
X1023976Y450551D02*
D03*
X1048976Y460551D02*
D03*
X949173Y450551D02*
D03*
X974173Y460551D02*
D03*
X799567Y450551D02*
D03*
X824567Y460551D02*
D03*
X724764Y450551D02*
D03*
X749764Y460551D02*
D03*
X649961Y450551D02*
D03*
X674961Y460551D02*
D03*
X575157Y450551D02*
D03*
X600157Y460551D02*
D03*
X500354Y450551D02*
D03*
X525354Y460551D02*
D03*
X425551Y450551D02*
D03*
X450551Y460551D02*
D03*
X350748Y450551D02*
D03*
X375748Y460551D02*
D03*
X275945Y450551D02*
D03*
X300945Y460551D02*
D03*
X201142Y450551D02*
D03*
X226142Y460551D02*
D03*
X126339Y450551D02*
D03*
X151339Y460551D02*
D03*
X1572598Y348346D02*
D03*
X1547598Y338347D02*
D03*
X1472795Y375748D02*
D03*
X1497795Y385748D02*
D03*
X1397992Y375748D02*
D03*
X1422992Y385748D02*
D03*
X1323189Y375748D02*
D03*
X1348189Y385748D02*
D03*
X1248386Y375748D02*
D03*
X1273386Y385748D02*
D03*
X1154882Y375748D02*
D03*
X1179882Y385748D02*
D03*
X1061378Y375748D02*
D03*
X1086378Y385748D02*
D03*
X986575Y375748D02*
D03*
X1011575Y385748D02*
D03*
X911772Y375748D02*
D03*
X936772Y385748D02*
D03*
X836969Y375748D02*
D03*
X861969Y385748D02*
D03*
X762165Y375748D02*
D03*
X787165Y385748D02*
D03*
X687362Y375748D02*
D03*
X712362Y385748D02*
D03*
X612559Y375748D02*
D03*
X637559Y385748D02*
D03*
X537756Y375748D02*
D03*
X562756Y385748D02*
D03*
X462953Y375748D02*
D03*
X487953Y385748D02*
D03*
X388150Y375748D02*
D03*
X413150Y385748D02*
D03*
X313347Y375748D02*
D03*
X338347Y385748D02*
D03*
X238543Y375748D02*
D03*
X263543Y385748D02*
D03*
X145039Y375748D02*
D03*
X170039Y385748D02*
D03*
X1472795Y300945D02*
D03*
X1497795Y310945D02*
D03*
X1397992Y300945D02*
D03*
X1422992Y310945D02*
D03*
X1323189Y300945D02*
D03*
X1348189Y310945D02*
D03*
X1248386Y300945D02*
D03*
X1273386Y310945D02*
D03*
X1151831D02*
D03*
X1126831Y300945D02*
D03*
X1005276D02*
D03*
X1030276Y310945D02*
D03*
X930472Y300945D02*
D03*
X955472Y310945D02*
D03*
X855669Y300945D02*
D03*
X880669Y310945D02*
D03*
X780866Y300945D02*
D03*
X805866Y310945D02*
D03*
X706063Y300945D02*
D03*
X731063Y310945D02*
D03*
X631260Y300945D02*
D03*
X656260Y310945D02*
D03*
X556457Y300945D02*
D03*
X581457Y310945D02*
D03*
X481653Y300945D02*
D03*
X506653Y310945D02*
D03*
X406850Y300945D02*
D03*
X431850Y310945D02*
D03*
X332047Y300945D02*
D03*
X357047Y310945D02*
D03*
X257244Y300945D02*
D03*
X282244Y310945D02*
D03*
X154390Y300945D02*
D03*
X179390Y310945D02*
D03*
X1572598Y198740D02*
D03*
X1547598Y188740D02*
D03*
X1472795Y226142D02*
D03*
X1497795Y236142D02*
D03*
X1397992Y226142D02*
D03*
X1422992Y236142D02*
D03*
X1323189Y226142D02*
D03*
X1348189Y236142D02*
D03*
X1248386Y226142D02*
D03*
X1273386Y236142D02*
D03*
X1133130Y236142D02*
D03*
X1108130Y226142D02*
D03*
X967874Y226142D02*
D03*
X992874Y236142D02*
D03*
X893071Y226142D02*
D03*
X918071Y236142D02*
D03*
X818268Y226142D02*
D03*
X843268Y236142D02*
D03*
X743465Y226142D02*
D03*
X768465Y236142D02*
D03*
X668661Y226142D02*
D03*
X693661Y236142D02*
D03*
X593858Y226142D02*
D03*
X618858Y236142D02*
D03*
X519055Y226142D02*
D03*
X544055Y236142D02*
D03*
X444252Y226142D02*
D03*
X469252Y236142D02*
D03*
X369449Y226142D02*
D03*
X394449Y236142D02*
D03*
X294646Y226142D02*
D03*
X319646Y236142D02*
D03*
X198091D02*
D03*
X173091Y226142D02*
D03*
X1472795Y151339D02*
D03*
X1497795Y161339D02*
D03*
X1397992Y151339D02*
D03*
X1422992Y161339D02*
D03*
X1323189Y151339D02*
D03*
X1348189Y161339D02*
D03*
X1248386Y151339D02*
D03*
X1273386Y161339D02*
D03*
X1173583Y151339D02*
D03*
X1198583Y161339D02*
D03*
X1098779Y151339D02*
D03*
X1123779Y161339D02*
D03*
X1023976Y151339D02*
D03*
X1048976Y161339D02*
D03*
X949173Y151339D02*
D03*
X974173Y161339D02*
D03*
X874370Y151339D02*
D03*
X899370Y161339D02*
D03*
X628317Y161460D02*
D03*
X603317Y151461D02*
D03*
X347697Y161339D02*
D03*
X322697Y151339D02*
D03*
X254193Y161339D02*
D03*
X229193Y151339D02*
D03*
X160689Y161339D02*
D03*
X135689Y151339D02*
D03*
D49*
X909370Y440551D02*
D03*
X869370D02*
D03*
X1283386Y515354D02*
D03*
X1243386D02*
D03*
X1208583D02*
D03*
X1168583D02*
D03*
X1133780D02*
D03*
X1093779D02*
D03*
X1058976D02*
D03*
X1018976D02*
D03*
X984173D02*
D03*
X944173D02*
D03*
X909370D02*
D03*
X869370D02*
D03*
X834567D02*
D03*
X794567D02*
D03*
X759764D02*
D03*
X719764D02*
D03*
X684961D02*
D03*
X644961D02*
D03*
X610157D02*
D03*
X570157D02*
D03*
X535354D02*
D03*
X495354D02*
D03*
X460551D02*
D03*
X420551D02*
D03*
X385748D02*
D03*
X345748D02*
D03*
X310945D02*
D03*
X270945D02*
D03*
X236142D02*
D03*
X196142D02*
D03*
X161339D02*
D03*
X121339D02*
D03*
X1582598Y440551D02*
D03*
X1542598D02*
D03*
X1507795D02*
D03*
X1467795D02*
D03*
X1432992D02*
D03*
X1392992D02*
D03*
X1358189D02*
D03*
X1318189D02*
D03*
X1283386D02*
D03*
X1243386D02*
D03*
X1171290Y440673D02*
D03*
X1131290D02*
D03*
X1058976Y440551D02*
D03*
X1018976D02*
D03*
X984173D02*
D03*
X944173D02*
D03*
X834567D02*
D03*
X794567D02*
D03*
X759764D02*
D03*
X719764D02*
D03*
X684961D02*
D03*
X644961D02*
D03*
X610157D02*
D03*
X570157D02*
D03*
X535354D02*
D03*
X495354D02*
D03*
X460551D02*
D03*
X420551D02*
D03*
X385748D02*
D03*
X345748D02*
D03*
X310945D02*
D03*
X270945D02*
D03*
X236142D02*
D03*
X196142D02*
D03*
X161339D02*
D03*
X121339D02*
D03*
X1542598Y328346D02*
D03*
X1582598D02*
D03*
X1507795Y365748D02*
D03*
X1467795D02*
D03*
X1432992D02*
D03*
X1392992D02*
D03*
X1358189D02*
D03*
X1318189D02*
D03*
X1283386D02*
D03*
X1243386D02*
D03*
X1189882D02*
D03*
X1149882D02*
D03*
X1096378D02*
D03*
X1056378D02*
D03*
X1021575D02*
D03*
X981575D02*
D03*
X946772D02*
D03*
X906772D02*
D03*
X871968D02*
D03*
X831968D02*
D03*
X797165D02*
D03*
X757165D02*
D03*
X722362D02*
D03*
X682362D02*
D03*
X647559D02*
D03*
X607559D02*
D03*
X572756D02*
D03*
X532756D02*
D03*
X497953D02*
D03*
X457953D02*
D03*
X423150D02*
D03*
X383150D02*
D03*
X348346D02*
D03*
X308347D02*
D03*
X273543D02*
D03*
X233543D02*
D03*
X180039D02*
D03*
X140039D02*
D03*
X1507795Y290945D02*
D03*
X1467795D02*
D03*
X1432992D02*
D03*
X1392992D02*
D03*
X1358189D02*
D03*
X1318189D02*
D03*
X1283386D02*
D03*
X1243386D02*
D03*
X1121831D02*
D03*
X1161831D02*
D03*
X1040276D02*
D03*
X1000276D02*
D03*
X965472D02*
D03*
X925472D02*
D03*
X890669D02*
D03*
X850669D02*
D03*
X815866D02*
D03*
X775866D02*
D03*
X741063D02*
D03*
X701063D02*
D03*
X666260D02*
D03*
X626260D02*
D03*
X591457D02*
D03*
X551457D02*
D03*
X516653D02*
D03*
X476653D02*
D03*
X441850D02*
D03*
X401850D02*
D03*
X367047D02*
D03*
X327047D02*
D03*
X292244D02*
D03*
X252244D02*
D03*
X189390D02*
D03*
X149390D02*
D03*
X1542598Y178740D02*
D03*
X1582598D02*
D03*
X1507795Y216142D02*
D03*
X1467795D02*
D03*
X1432992D02*
D03*
X1392992D02*
D03*
X1358189D02*
D03*
X1318189D02*
D03*
X1283386D02*
D03*
X1243386D02*
D03*
X1103130Y216142D02*
D03*
X1143130D02*
D03*
X1002874Y216142D02*
D03*
X962874D02*
D03*
X928071D02*
D03*
X888071D02*
D03*
X853268D02*
D03*
X813268D02*
D03*
X778465D02*
D03*
X738465D02*
D03*
X703661D02*
D03*
X663661D02*
D03*
X628858D02*
D03*
X588858D02*
D03*
X554055D02*
D03*
X514055D02*
D03*
X479252D02*
D03*
X439252D02*
D03*
X404449D02*
D03*
X364449D02*
D03*
X329646D02*
D03*
X289646D02*
D03*
X168091D02*
D03*
X208090D02*
D03*
X1507795Y141339D02*
D03*
X1467795D02*
D03*
X1432992D02*
D03*
X1392992D02*
D03*
X1358189D02*
D03*
X1318189D02*
D03*
X1283386D02*
D03*
X1243386D02*
D03*
X1208583D02*
D03*
X1168583D02*
D03*
X1133780D02*
D03*
X1093779D02*
D03*
X1058976D02*
D03*
X1018976D02*
D03*
X984173D02*
D03*
X944173D02*
D03*
X909370D02*
D03*
X869370D02*
D03*
X598317Y141461D02*
D03*
X638317D02*
D03*
X317697Y141339D02*
D03*
X357697D02*
D03*
X224193D02*
D03*
X264193D02*
D03*
X130689D02*
D03*
X170689D02*
D03*
D50*
X1579331Y210236D02*
D03*
X1512402Y337205D02*
D03*
X1579331Y354921D02*
D03*
Y359842D02*
D03*
X1298819Y524213D02*
D03*
X1384449Y473032D02*
D03*
X1412008Y466142D02*
D03*
X1431693Y467126D02*
D03*
X1487795Y464173D02*
D03*
X1573425Y491185D02*
D03*
X1295866Y501575D02*
D03*
X1487795Y547835D02*
D03*
X1515354Y545866D02*
D03*
X1582283Y537008D02*
D03*
X1514370Y509449D02*
D03*
X1518307D02*
D03*
Y512402D02*
D03*
X1509449Y519291D02*
D03*
X1474098Y516590D02*
D03*
X1477953Y516480D02*
D03*
X1481890Y516949D02*
D03*
X1485732Y517323D02*
D03*
X1489201D02*
D03*
X1439567D02*
D03*
X1456299Y514370D02*
D03*
X1416929D02*
D03*
X1443504Y511417D02*
D03*
X1421850Y509449D02*
D03*
X1452323Y489882D02*
D03*
X1392323D02*
D03*
X1462323D02*
D03*
X1352362Y510433D02*
D03*
X1324409Y530118D02*
D03*
X1506496Y520276D02*
D03*
X1324409Y515551D02*
D03*
Y504528D02*
D03*
X1512402Y518307D02*
D03*
X1362795Y520276D02*
D03*
X1516339Y522244D02*
D03*
X1525197Y531102D02*
D03*
X1364764Y530118D02*
D03*
X1477953Y498622D02*
D03*
X1374606Y182677D02*
D03*
X254528Y177756D02*
D03*
X1481890Y499606D02*
D03*
X1378543Y182677D02*
D03*
X349016Y177756D02*
D03*
X1484842Y500591D02*
D03*
X1381496Y333268D02*
D03*
X366732Y325394D02*
D03*
X1487795Y501575D02*
D03*
X1383465Y331299D02*
D03*
X441535Y325394D02*
D03*
X1490748Y502559D02*
D03*
X1547807Y483886D02*
D03*
X1545866Y474016D02*
D03*
X1560630Y502559D02*
D03*
X1567520Y481890D02*
D03*
X1571457Y484842D02*
D03*
X1550787Y486354D02*
D03*
X1554267Y482874D02*
D03*
X1564567Y517323D02*
D03*
X1561614Y516339D02*
D03*
X1554724Y506496D02*
D03*
X1551772D02*
D03*
X1549803Y508465D02*
D03*
Y511417D02*
D03*
X1549875Y516448D02*
D03*
X1546850Y511417D02*
D03*
X1385433Y329331D02*
D03*
X516339Y325394D02*
D03*
X1493701Y504528D02*
D03*
X1387402Y327362D02*
D03*
X591142Y325394D02*
D03*
X1497638Y504996D02*
D03*
X1500591Y507480D02*
D03*
X1389370Y325394D02*
D03*
X665945D02*
D03*
X1514370Y488779D02*
D03*
X1517323Y486811D02*
D03*
X1520374Y484842D02*
D03*
X1523193Y482909D02*
D03*
X1528726Y484842D02*
D03*
X1531510D02*
D03*
X1534294D02*
D03*
X1537078D02*
D03*
X1566535Y536491D02*
D03*
X1461220Y407087D02*
D03*
X1455315Y400197D02*
D03*
X787992Y402165D02*
D03*
X1457283Y403150D02*
D03*
X862795Y402165D02*
D03*
X1459252Y405118D02*
D03*
X1533071Y527165D02*
D03*
X1535039Y529134D02*
D03*
X937598Y402165D02*
D03*
X1012402D02*
D03*
X1204331Y433661D02*
D03*
X1400197Y541929D02*
D03*
X1450394D02*
D03*
X1590158Y456299D02*
D03*
X1600984Y482874D02*
D03*
X1598032Y473032D02*
D03*
X1576378Y493701D02*
D03*
X1223032Y549409D02*
D03*
X1220079Y523228D02*
D03*
X1209252D02*
D03*
X1225984Y535039D02*
D03*
X1562598Y457283D02*
D03*
X1581299Y522244D02*
D03*
X1563204Y540339D02*
D03*
X1590180Y504541D02*
D03*
X1534055Y516339D02*
D03*
X158071Y114764D02*
D03*
X251575D02*
D03*
X345079D02*
D03*
X625591D02*
D03*
X897244D02*
D03*
X972047D02*
D03*
X1046850D02*
D03*
X1121653D02*
D03*
X1196457D02*
D03*
X1271260D02*
D03*
X1346063D02*
D03*
X1420866D02*
D03*
X1495669D02*
D03*
X1569980Y152165D02*
D03*
X1495177Y189567D02*
D03*
X1420374D02*
D03*
X1345571D02*
D03*
X1270768D02*
D03*
X1130512D02*
D03*
X990256D02*
D03*
X915453D02*
D03*
X840650D02*
D03*
X765846D02*
D03*
X691043D02*
D03*
X616083Y189409D02*
D03*
X541437Y189567D02*
D03*
X466634D02*
D03*
X391673Y189409D02*
D03*
X317028Y189567D02*
D03*
X195472D02*
D03*
X176772Y264370D02*
D03*
X279626D02*
D03*
X354429D02*
D03*
X429232D02*
D03*
X504035D02*
D03*
X578839D02*
D03*
X653642D02*
D03*
X728445D02*
D03*
X803228D02*
D03*
X878051D02*
D03*
X952854D02*
D03*
X1027658D02*
D03*
X1149213D02*
D03*
X1270768D02*
D03*
X1345571D02*
D03*
X1420374D02*
D03*
X1495177D02*
D03*
X1569980Y301772D02*
D03*
X1495177Y339173D02*
D03*
X1420374D02*
D03*
X1345571D02*
D03*
X1270768D02*
D03*
X1177264D02*
D03*
X1083760D02*
D03*
X1008957D02*
D03*
X934153D02*
D03*
X859350D02*
D03*
X784547D02*
D03*
X709744D02*
D03*
X634941D02*
D03*
X560138D02*
D03*
X485335D02*
D03*
X410532D02*
D03*
X335728D02*
D03*
X260925D02*
D03*
X167421D02*
D03*
X148721Y413976D02*
D03*
X223524D02*
D03*
X298327D02*
D03*
X373130D02*
D03*
X447933D02*
D03*
X522736D02*
D03*
X597539D02*
D03*
X672342D02*
D03*
X747146D02*
D03*
X821949D02*
D03*
X896752D02*
D03*
X971555D02*
D03*
X1046358D02*
D03*
X1158563D02*
D03*
X1270768D02*
D03*
X1345571D02*
D03*
X1420374D02*
D03*
X1495177D02*
D03*
X1569980D02*
D03*
X1270768Y488779D02*
D03*
X1195965D02*
D03*
X1121161D02*
D03*
X1046358D02*
D03*
X971555D02*
D03*
X821949D02*
D03*
X747146D02*
D03*
X672342D02*
D03*
X597539D02*
D03*
X522736D02*
D03*
X447933D02*
D03*
X373130D02*
D03*
X298327D02*
D03*
X223524D02*
D03*
X148721D02*
D03*
X896752D02*
D03*
X1495669Y126575D02*
D03*
X1223032Y535039D02*
D03*
Y524213D02*
D03*
X1529879Y514370D02*
D03*
X1572441Y546850D02*
D03*
X1592126Y502559D02*
D03*
X1584252Y519291D02*
D03*
X896752Y500591D02*
D03*
X902165Y491732D02*
D03*
X882677Y496457D02*
D03*
X141339Y501575D02*
D03*
X143996Y122441D02*
D03*
X181398Y197244D02*
D03*
X883465Y267323D02*
D03*
X863976Y272047D02*
D03*
X789173D02*
D03*
X631004Y117717D02*
D03*
X611516Y122441D02*
D03*
X350492Y117717D02*
D03*
X331004Y122441D02*
D03*
X256988Y117717D02*
D03*
X237500Y122441D02*
D03*
X163484Y117717D02*
D03*
X902165D02*
D03*
X882677Y122441D02*
D03*
X976968Y117717D02*
D03*
X957480Y122441D02*
D03*
X1051772Y117717D02*
D03*
X1032283Y122441D02*
D03*
X1126575Y117717D02*
D03*
X1107087Y122441D02*
D03*
X1201378Y117717D02*
D03*
X1181890Y122441D02*
D03*
X1276181Y117717D02*
D03*
X1256693Y122441D02*
D03*
X1350984Y117717D02*
D03*
X1331496Y122441D02*
D03*
X1425787Y117717D02*
D03*
X1406299Y122441D02*
D03*
X1500591Y117717D02*
D03*
X1481102Y122441D02*
D03*
X1575394Y155118D02*
D03*
X1555906Y159843D02*
D03*
X1500591Y192520D02*
D03*
X1481102Y197244D02*
D03*
X1425787Y192520D02*
D03*
X1406299Y197244D02*
D03*
X1350984Y192520D02*
D03*
X1331496Y197244D02*
D03*
X1276181Y192520D02*
D03*
X1256693Y197244D02*
D03*
X1135925Y192520D02*
D03*
X1116437Y197244D02*
D03*
X976181D02*
D03*
X995669Y192520D02*
D03*
X901378Y197244D02*
D03*
X920866Y192520D02*
D03*
X826575Y197244D02*
D03*
X846063Y192520D02*
D03*
X751772Y197244D02*
D03*
X771260Y192520D02*
D03*
X676968Y197244D02*
D03*
X696457Y192520D02*
D03*
X602165Y197244D02*
D03*
X621654Y192520D02*
D03*
X527362Y197244D02*
D03*
X546850Y192520D02*
D03*
X452559Y197244D02*
D03*
X472047Y192520D02*
D03*
X377756Y197244D02*
D03*
X397244Y192520D02*
D03*
X302953Y197244D02*
D03*
X322441Y192520D02*
D03*
X200886Y192520D02*
D03*
X162697Y272047D02*
D03*
X182185Y267323D02*
D03*
X285039D02*
D03*
X265551Y272047D02*
D03*
X359842Y267323D02*
D03*
X340354Y272047D02*
D03*
X434646Y267323D02*
D03*
X415158Y272047D02*
D03*
X509449Y267323D02*
D03*
X489961Y272047D02*
D03*
X584252Y267323D02*
D03*
X564764Y272047D02*
D03*
X659055Y267323D02*
D03*
X639567Y272047D02*
D03*
X733858Y267323D02*
D03*
X714370Y272047D02*
D03*
X808661Y267323D02*
D03*
X958268D02*
D03*
X938780Y272047D02*
D03*
X1033071Y267323D02*
D03*
X1013583Y272047D02*
D03*
X1154626Y267323D02*
D03*
X1135138Y272047D02*
D03*
X1256693D02*
D03*
X1276181Y267323D02*
D03*
X1331496Y272047D02*
D03*
X1350984Y267323D02*
D03*
X1406299Y272047D02*
D03*
X1425787Y267323D02*
D03*
X1481102Y272047D02*
D03*
X1500591Y267323D02*
D03*
X1555906Y309449D02*
D03*
X1575394Y304724D02*
D03*
X1481102Y346850D02*
D03*
X1500591Y342126D02*
D03*
X1406299Y346850D02*
D03*
X1425787Y342126D02*
D03*
X1331496Y346850D02*
D03*
X1350984Y342126D02*
D03*
X1256693Y346850D02*
D03*
X1276181Y342126D02*
D03*
X1163189Y346850D02*
D03*
X1182677Y342126D02*
D03*
X1069685Y346850D02*
D03*
X1089173Y342126D02*
D03*
X994882Y346850D02*
D03*
X1014370Y342126D02*
D03*
X920079Y346850D02*
D03*
X939567Y342126D02*
D03*
X845276Y346850D02*
D03*
X864764Y342126D02*
D03*
X770472Y346850D02*
D03*
X789961Y342126D02*
D03*
X695669Y346850D02*
D03*
X715158Y342126D02*
D03*
X620866Y346850D02*
D03*
X640354Y342126D02*
D03*
X546063Y346850D02*
D03*
X565551Y342126D02*
D03*
X471260Y346850D02*
D03*
X490748Y342126D02*
D03*
X396457Y346850D02*
D03*
X415945Y342126D02*
D03*
X321654Y346850D02*
D03*
X341142Y342126D02*
D03*
X246850Y346850D02*
D03*
X266339Y342126D02*
D03*
X172835D02*
D03*
X153347Y346850D02*
D03*
X1556890Y421654D02*
D03*
X1482087D02*
D03*
X1407283D02*
D03*
X1332480D02*
D03*
X1257677D02*
D03*
X1145472D02*
D03*
X1033268D02*
D03*
X958465D02*
D03*
X883661D02*
D03*
X808858D02*
D03*
X734055D02*
D03*
X659252D02*
D03*
X584449D02*
D03*
X509646D02*
D03*
X434842D02*
D03*
X360039D02*
D03*
X285236D02*
D03*
X210433D02*
D03*
X1575394Y416929D02*
D03*
X1500591D02*
D03*
X1425787D02*
D03*
X1350984D02*
D03*
X1276181D02*
D03*
X1163976D02*
D03*
X1051772D02*
D03*
X976968D02*
D03*
X902165D02*
D03*
X827362D02*
D03*
X752559D02*
D03*
X677756D02*
D03*
X602953D02*
D03*
X528150D02*
D03*
X453346D02*
D03*
X378543D02*
D03*
X303740D02*
D03*
X228937D02*
D03*
X154134D02*
D03*
X134646Y421654D02*
D03*
X1256693Y496457D02*
D03*
X1181890D02*
D03*
X1107087D02*
D03*
X1032283D02*
D03*
X1276181Y491732D02*
D03*
X1201378D02*
D03*
X1126575D02*
D03*
X1051772D02*
D03*
X976968D02*
D03*
X957480Y496457D02*
D03*
X827362Y491732D02*
D03*
X808858Y496457D02*
D03*
X752559Y491732D02*
D03*
X734055Y496457D02*
D03*
X677756Y491732D02*
D03*
X659252Y496457D02*
D03*
X602953Y491732D02*
D03*
X584449Y496457D02*
D03*
X528150Y491732D02*
D03*
X509646Y496457D02*
D03*
X453346Y491732D02*
D03*
X434842Y496457D02*
D03*
X378543Y491732D02*
D03*
X360039Y496457D02*
D03*
X303740Y491732D02*
D03*
X285236Y496457D02*
D03*
X228937Y491732D02*
D03*
X154134D02*
D03*
X210433Y496457D02*
D03*
X148721Y500591D02*
D03*
X223524D02*
D03*
X298327D02*
D03*
X373130D02*
D03*
X447933D02*
D03*
X522736D02*
D03*
X597539D02*
D03*
X672342D02*
D03*
X747146D02*
D03*
X821949D02*
D03*
X971555D02*
D03*
X1046358D02*
D03*
X1121161D02*
D03*
X1195965D02*
D03*
X1270768D02*
D03*
X1569980Y425787D02*
D03*
X1495177D02*
D03*
X1420374D02*
D03*
X1345571D02*
D03*
X1270768D02*
D03*
X1158563D02*
D03*
X1046358D02*
D03*
X971555D02*
D03*
X896752D02*
D03*
X821949D02*
D03*
X747146D02*
D03*
X672342D02*
D03*
X597539D02*
D03*
X522736D02*
D03*
X447933D02*
D03*
X373130D02*
D03*
X298327D02*
D03*
X223524D02*
D03*
X148721D02*
D03*
X167421Y350984D02*
D03*
X260925D02*
D03*
X335728D02*
D03*
X410532D02*
D03*
X485335D02*
D03*
X560138D02*
D03*
X634941D02*
D03*
X709744D02*
D03*
X784547D02*
D03*
X859350D02*
D03*
X934153D02*
D03*
X1008957D02*
D03*
X1083760D02*
D03*
X1177264D02*
D03*
X1270768D02*
D03*
X1345571D02*
D03*
X1420374D02*
D03*
X1495177D02*
D03*
X1569980Y313583D02*
D03*
X1495177Y276181D02*
D03*
X1420374D02*
D03*
X1345571D02*
D03*
X1270768D02*
D03*
X1149213D02*
D03*
X1027658D02*
D03*
X952854D02*
D03*
X878051D02*
D03*
X803228D02*
D03*
X728445D02*
D03*
X653642D02*
D03*
X578839D02*
D03*
X504035D02*
D03*
X429232D02*
D03*
X354429D02*
D03*
X279626D02*
D03*
X176772D02*
D03*
X195472Y201378D02*
D03*
X317028D02*
D03*
X391673Y201220D02*
D03*
X466634Y201378D02*
D03*
X541437D02*
D03*
X616083Y201220D02*
D03*
X691043Y201378D02*
D03*
X765846D02*
D03*
X840650D02*
D03*
X915453D02*
D03*
X990256D02*
D03*
X1130512D02*
D03*
X1270768D02*
D03*
X1345571D02*
D03*
X1420374D02*
D03*
X1495177D02*
D03*
X1569980Y163976D02*
D03*
X1420866Y126575D02*
D03*
X1346063D02*
D03*
X1271260D02*
D03*
X1196457D02*
D03*
X1121653D02*
D03*
X1046850D02*
D03*
X972047D02*
D03*
X897244D02*
D03*
X625591D02*
D03*
X345079D02*
D03*
X251575D02*
D03*
X158071D02*
D03*
X1273228Y546850D02*
D03*
X1198425D02*
D03*
X1123622D02*
D03*
X1048819D02*
D03*
X974016D02*
D03*
X899213D02*
D03*
X824409D02*
D03*
X749606D02*
D03*
X674803D02*
D03*
X600000D02*
D03*
X525197D02*
D03*
X450394D02*
D03*
X375590D02*
D03*
X300787D02*
D03*
X225984D02*
D03*
X151181D02*
D03*
Y472047D02*
D03*
X225984D02*
D03*
X300787D02*
D03*
X375590D02*
D03*
X450394D02*
D03*
X525197D02*
D03*
X600000D02*
D03*
X674803D02*
D03*
X749606D02*
D03*
X824409D02*
D03*
X899213D02*
D03*
X974016D02*
D03*
X1046850D02*
D03*
X1161024D02*
D03*
X1273228D02*
D03*
X1348032D02*
D03*
X1422835D02*
D03*
X1497638D02*
D03*
X1572441D02*
D03*
X1497638Y397244D02*
D03*
X1422835D02*
D03*
X1348032D02*
D03*
X1273228D02*
D03*
X1179724D02*
D03*
X1086220D02*
D03*
X1011417D02*
D03*
X936614D02*
D03*
X861811D02*
D03*
X787008D02*
D03*
X712205D02*
D03*
X637402D02*
D03*
X562598D02*
D03*
X487795D02*
D03*
X412992D02*
D03*
X338189D02*
D03*
X263386D02*
D03*
X169882D02*
D03*
X179232Y322441D02*
D03*
X282087D02*
D03*
X356890D02*
D03*
X431693D02*
D03*
X506496D02*
D03*
X581299D02*
D03*
X656102D02*
D03*
X730905D02*
D03*
X805709D02*
D03*
X880512D02*
D03*
X955315D02*
D03*
X1030118D02*
D03*
X1151673D02*
D03*
X1273228D02*
D03*
X1348032D02*
D03*
X1422835D02*
D03*
X1497638D02*
D03*
X1572441Y359842D02*
D03*
Y210236D02*
D03*
X1497638Y247638D02*
D03*
X1422835D02*
D03*
X1348032D02*
D03*
X1273228D02*
D03*
X1132972D02*
D03*
X992717D02*
D03*
X917913D02*
D03*
X843110D02*
D03*
X768307D02*
D03*
X693504D02*
D03*
X618701D02*
D03*
X543898D02*
D03*
X469095D02*
D03*
X394291D02*
D03*
X319488D02*
D03*
X198425D02*
D03*
X1498130Y172835D02*
D03*
X1423327D02*
D03*
X1348524D02*
D03*
X1273720D02*
D03*
X1198917D02*
D03*
X1124114D02*
D03*
X1049311D02*
D03*
X974508D02*
D03*
X899705D02*
D03*
X628653D02*
D03*
X348031D02*
D03*
X254528D02*
D03*
X161024D02*
D03*
D51*
X1308539Y498566D02*
D03*
X1287008Y507480D02*
D03*
X1208268Y488779D02*
D03*
X1216339Y509252D02*
D03*
X1222047Y516339D02*
D03*
X1216142Y520276D02*
D03*
X1237795Y536024D02*
D03*
X1208268D02*
D03*
D86*
X1589135Y482474D02*
D03*
X1582064Y489545D02*
D03*
X1588189Y495669D02*
D03*
X1595260Y488598D02*
D03*
D87*
X1586847Y462890D02*
D03*
X1581001Y468737D02*
D03*
X1585594Y473330D02*
D03*
X1591440Y467484D02*
D03*
D88*
X1597873Y478778D02*
D03*
X1594254Y475159D02*
D03*
X1592285Y458427D02*
D03*
X1595904Y462046D02*
D03*
D89*
X1472244Y534842D02*
D03*
D90*
X1482244Y547835D02*
D03*
X1492244Y534842D02*
D03*
X1502244Y547835D02*
D03*
X1512244Y534842D02*
D03*
X1522244Y547835D02*
D03*
D91*
X1457677Y541929D02*
D03*
X1433268D02*
D03*
D92*
X1423622D02*
D03*
X1394488D02*
D03*
D93*
X1541173Y478709D02*
D03*
X1558433Y461449D02*
D03*
D94*
X1227953Y531693D02*
D03*
X1218110D02*
D03*
X1217126Y526575D02*
D03*
X1228937D02*
D03*
X1219094D02*
D03*
X1225984Y531693D02*
D03*
X1231890D02*
D03*
X1229921D02*
D03*
X1216142D02*
D03*
X1214173D02*
D03*
X1220079D02*
D03*
X1224016D02*
D03*
X1222047D02*
D03*
X1234842Y526575D02*
D03*
X1232874D02*
D03*
X1230906D02*
D03*
X1226968D02*
D03*
X1225000D02*
D03*
X1221063D02*
D03*
X1215158D02*
D03*
X1213189D02*
D03*
X1211220D02*
D03*
D95*
X1564567Y484842D02*
D03*
X1568047Y488322D02*
D03*
D96*
X1578575Y520047D02*
D03*
X1582055Y516567D02*
D03*
X1574638Y516110D02*
D03*
X1578118Y512630D02*
D03*
X1555937Y533826D02*
D03*
X1559417Y530347D02*
D03*
X1589402Y516110D02*
D03*
X1592882Y512630D02*
D03*
X1570701Y512173D02*
D03*
X1574181Y508693D02*
D03*
X1552000Y529889D02*
D03*
X1555480Y526410D02*
D03*
X1566764Y508236D02*
D03*
X1570244Y504756D02*
D03*
X1548063Y525952D02*
D03*
X1551543Y522473D02*
D03*
X1544126Y522015D02*
D03*
X1547606Y518536D02*
D03*
X1569031Y497638D02*
D03*
X1565551Y501118D02*
D03*
X1540189Y518079D02*
D03*
X1543669Y514599D02*
D03*
X1565094Y493701D02*
D03*
X1561614Y497181D02*
D03*
X1536252Y514142D02*
D03*
X1539732Y510662D02*
D03*
X1561157Y489764D02*
D03*
X1557677Y493244D02*
D03*
X1532315Y510205D02*
D03*
X1535795Y506725D02*
D03*
X1557220Y485827D02*
D03*
X1553740Y489307D02*
D03*
D97*
X1563841Y533797D02*
D03*
X1559387Y538251D02*
D03*
D98*
X1585395Y512243D02*
D03*
X1589014Y508624D02*
D03*
D99*
X1235236Y531693D02*
D03*
X1210827D02*
D03*
D100*
X1531222Y521379D02*
D03*
X1527046Y517203D02*
D03*
D101*
X1570353Y540080D02*
D03*
X1574529Y535904D02*
D03*
M02*
