G04*
G04 #@! TF.GenerationSoftware,Altium Limited,CircuitMaker,2.2.1 (2.2.1.6)*
G04*
G04 Layer_Color=7318015*
%FSLAX25Y25*%
%MOIN*%
G70*
G04*
G04 #@! TF.SameCoordinates,51275918-D11F-4CD5-9039-D10E8471D0EB*
G04*
G04*
G04 #@! TF.FilePolarity,Positive*
G04*
G01*
G75*
%ADD17R,0.05512X0.05905*%
%ADD18R,0.05512X0.05118*%
%ADD19R,0.05905X0.10630*%
%ADD20R,0.05315X0.03937*%
%ADD21R,0.03937X0.04134*%
%ADD22R,0.03543X0.03347*%
%ADD23R,0.03543X0.03150*%
%ADD24R,0.02756X0.05118*%
G04:AMPARAMS|DCode=25|XSize=31.5mil|YSize=31.5mil|CornerRadius=3.15mil|HoleSize=0mil|Usage=FLASHONLY|Rotation=0.000|XOffset=0mil|YOffset=0mil|HoleType=Round|Shape=RoundedRectangle|*
%AMROUNDEDRECTD25*
21,1,0.03150,0.02520,0,0,0.0*
21,1,0.02520,0.03150,0,0,0.0*
1,1,0.00630,0.01260,-0.01260*
1,1,0.00630,-0.01260,-0.01260*
1,1,0.00630,-0.01260,0.01260*
1,1,0.00630,0.01260,0.01260*
%
%ADD25ROUNDEDRECTD25*%
G04:AMPARAMS|DCode=26|XSize=9.84mil|YSize=61.02mil|CornerRadius=0mil|HoleSize=0mil|Usage=FLASHONLY|Rotation=135.000|XOffset=0mil|YOffset=0mil|HoleType=Round|Shape=Round|*
%AMOVALD26*
21,1,0.05118,0.00984,0.00000,0.00000,225.0*
1,1,0.00984,0.01810,0.01810*
1,1,0.00984,-0.01810,-0.01810*
%
%ADD26OVALD26*%

G04:AMPARAMS|DCode=27|XSize=9.84mil|YSize=61.02mil|CornerRadius=0mil|HoleSize=0mil|Usage=FLASHONLY|Rotation=225.000|XOffset=0mil|YOffset=0mil|HoleType=Round|Shape=Round|*
%AMOVALD27*
21,1,0.05118,0.00984,0.00000,0.00000,315.0*
1,1,0.00984,-0.01810,0.01810*
1,1,0.00984,0.01810,-0.01810*
%
%ADD27OVALD27*%

%ADD28R,0.02913X0.03071*%
%ADD29R,0.01968X0.01968*%
%ADD30R,0.03268X0.03268*%
D17*
X1318110Y530118D02*
D03*
X1358268D02*
D03*
Y504528D02*
D03*
X1318110D02*
D03*
D18*
Y515551D02*
D03*
X1358268D02*
D03*
D19*
X1402323Y497638D02*
D03*
X1412323D02*
D03*
X1422323D02*
D03*
X1432323D02*
D03*
X1442323D02*
D03*
X1452323D02*
D03*
X1462323D02*
D03*
X1392323D02*
D03*
D20*
X1215158Y542323D02*
D03*
Y549409D02*
D03*
X1230906Y549409D02*
D03*
Y542323D02*
D03*
D21*
X1214173Y525197D02*
D03*
Y531102D02*
D03*
D22*
X1233858Y521850D02*
D03*
Y516732D02*
D03*
X1225984Y491339D02*
D03*
Y486221D02*
D03*
X1220079Y491339D02*
D03*
Y486221D02*
D03*
D23*
X1227953Y521752D02*
D03*
Y516831D02*
D03*
X1231890Y486319D02*
D03*
Y491240D02*
D03*
X1237795D02*
D03*
Y486319D02*
D03*
D24*
X1229724Y499803D02*
D03*
X1222244D02*
D03*
Y509252D02*
D03*
X1225984D02*
D03*
X1229724D02*
D03*
D25*
X1214173Y485630D02*
D03*
Y491929D02*
D03*
D26*
X1568932Y541751D02*
D03*
X1557657Y491502D02*
D03*
X1567540Y543143D02*
D03*
X1585635Y525048D02*
D03*
X1588419Y522264D02*
D03*
X1587027Y523656D02*
D03*
X1584243Y526440D02*
D03*
X1582851Y527832D02*
D03*
X1581459Y529224D02*
D03*
X1580067Y530616D02*
D03*
X1578675Y532008D02*
D03*
X1577283Y533400D02*
D03*
X1575891Y534792D02*
D03*
X1574500Y536184D02*
D03*
X1573108Y537576D02*
D03*
X1571716Y538968D02*
D03*
X1570324Y540359D02*
D03*
X1536778Y512381D02*
D03*
X1538170Y510990D02*
D03*
X1539562Y509597D02*
D03*
X1540954Y508206D02*
D03*
X1542346Y506814D02*
D03*
X1543738Y505422D02*
D03*
X1545130Y504030D02*
D03*
X1546521Y502638D02*
D03*
X1547913Y501246D02*
D03*
X1549305Y499854D02*
D03*
X1550697Y498462D02*
D03*
X1552089Y497070D02*
D03*
X1553481Y495678D02*
D03*
X1554873Y494286D02*
D03*
X1556265Y492894D02*
D03*
D27*
X1538170Y523656D02*
D03*
X1536778Y522264D02*
D03*
X1584243Y508206D02*
D03*
X1567540Y491502D02*
D03*
X1568932Y492894D02*
D03*
X1570324Y494286D02*
D03*
X1571716Y495678D02*
D03*
X1573108Y497070D02*
D03*
X1574500Y498462D02*
D03*
X1575891Y499854D02*
D03*
X1577283Y501246D02*
D03*
X1578675Y502638D02*
D03*
X1580067Y504030D02*
D03*
X1581459Y505422D02*
D03*
X1582851Y506814D02*
D03*
X1585635Y509597D02*
D03*
X1587027Y510990D02*
D03*
X1588419Y512381D02*
D03*
X1557657Y543143D02*
D03*
X1556265Y541751D02*
D03*
X1554873Y540359D02*
D03*
X1553481Y538968D02*
D03*
X1552089Y537576D02*
D03*
X1550697Y536184D02*
D03*
X1549305Y534792D02*
D03*
X1547913Y533400D02*
D03*
X1546521Y532008D02*
D03*
X1545130Y530616D02*
D03*
X1543738Y529224D02*
D03*
X1542346Y527832D02*
D03*
X1540954Y526440D02*
D03*
X1539562Y525048D02*
D03*
D28*
X148721Y496614D02*
D03*
Y492756D02*
D03*
X223524Y496614D02*
D03*
Y492756D02*
D03*
X298327Y496614D02*
D03*
Y492756D02*
D03*
X373130Y496614D02*
D03*
Y492756D02*
D03*
X447933Y496614D02*
D03*
Y492756D02*
D03*
X522736Y496614D02*
D03*
Y492756D02*
D03*
X597539Y496614D02*
D03*
Y492756D02*
D03*
X672342Y496614D02*
D03*
Y492756D02*
D03*
X747146Y496614D02*
D03*
Y492756D02*
D03*
X821949Y496614D02*
D03*
Y492756D02*
D03*
X896752Y496614D02*
D03*
Y492756D02*
D03*
X971555Y496614D02*
D03*
Y492756D02*
D03*
X1046358Y496614D02*
D03*
Y492756D02*
D03*
X1121161Y496614D02*
D03*
Y492756D02*
D03*
X1195965Y496614D02*
D03*
Y492756D02*
D03*
X1270768Y496614D02*
D03*
Y492756D02*
D03*
X148721Y421811D02*
D03*
Y417953D02*
D03*
X223524Y421811D02*
D03*
Y417953D02*
D03*
X298327Y421811D02*
D03*
Y417953D02*
D03*
X373130Y421811D02*
D03*
Y417953D02*
D03*
X447933Y421811D02*
D03*
Y417953D02*
D03*
X522736Y421811D02*
D03*
Y417953D02*
D03*
X597539Y421811D02*
D03*
Y417953D02*
D03*
X672342Y421811D02*
D03*
Y417953D02*
D03*
X747146Y421811D02*
D03*
Y417953D02*
D03*
X821949Y421811D02*
D03*
Y417953D02*
D03*
X896752Y421811D02*
D03*
Y417953D02*
D03*
X971555Y421811D02*
D03*
Y417953D02*
D03*
X1046358Y421811D02*
D03*
Y417953D02*
D03*
X1158563Y421811D02*
D03*
Y417953D02*
D03*
X1270768Y421811D02*
D03*
Y417953D02*
D03*
X1345571Y421811D02*
D03*
Y417953D02*
D03*
X1420374Y421811D02*
D03*
Y417953D02*
D03*
X1495177Y421811D02*
D03*
Y417953D02*
D03*
X1569980Y421811D02*
D03*
Y417953D02*
D03*
X167421Y347008D02*
D03*
Y343150D02*
D03*
X260925Y347008D02*
D03*
Y343150D02*
D03*
X335728Y347008D02*
D03*
Y343150D02*
D03*
X410532Y347008D02*
D03*
Y343150D02*
D03*
X485335Y347008D02*
D03*
Y343150D02*
D03*
X560138Y347008D02*
D03*
Y343150D02*
D03*
X634941Y347008D02*
D03*
Y343150D02*
D03*
X709744Y347008D02*
D03*
Y343150D02*
D03*
X784547Y347008D02*
D03*
Y343150D02*
D03*
X859350Y347008D02*
D03*
Y343150D02*
D03*
X934153Y347008D02*
D03*
Y343150D02*
D03*
X1008957Y347008D02*
D03*
Y343150D02*
D03*
X1083760Y347008D02*
D03*
Y343150D02*
D03*
X1177264Y347008D02*
D03*
Y343150D02*
D03*
X1270768Y347008D02*
D03*
Y343150D02*
D03*
X1345571Y347008D02*
D03*
Y343150D02*
D03*
X1420374Y347008D02*
D03*
Y343150D02*
D03*
X1495177Y347008D02*
D03*
Y343150D02*
D03*
X1569980Y309606D02*
D03*
Y305748D02*
D03*
X176772Y272205D02*
D03*
Y268347D02*
D03*
X279626Y272205D02*
D03*
Y268347D02*
D03*
X354429Y272205D02*
D03*
Y268347D02*
D03*
X429232Y272205D02*
D03*
Y268347D02*
D03*
X504035Y272205D02*
D03*
Y268347D02*
D03*
X578839Y272205D02*
D03*
Y268347D02*
D03*
X653642Y272205D02*
D03*
Y268347D02*
D03*
X728445Y272205D02*
D03*
Y268347D02*
D03*
X803228Y272205D02*
D03*
Y268347D02*
D03*
X878051Y272205D02*
D03*
Y268347D02*
D03*
X952854Y272205D02*
D03*
Y268347D02*
D03*
X1027658Y272205D02*
D03*
Y268347D02*
D03*
X1149213Y272205D02*
D03*
Y268347D02*
D03*
X1270768Y272205D02*
D03*
Y268347D02*
D03*
X1345571Y272205D02*
D03*
Y268347D02*
D03*
X1420374Y272205D02*
D03*
Y268347D02*
D03*
X1495177Y272205D02*
D03*
Y268347D02*
D03*
X195472Y197402D02*
D03*
Y193543D02*
D03*
X317028Y197402D02*
D03*
Y193543D02*
D03*
X391831Y197402D02*
D03*
Y193543D02*
D03*
X466634Y197402D02*
D03*
Y193543D02*
D03*
X541437Y197402D02*
D03*
Y193543D02*
D03*
X616240Y197402D02*
D03*
Y193543D02*
D03*
X691043Y197402D02*
D03*
Y193543D02*
D03*
X765846Y197402D02*
D03*
Y193543D02*
D03*
X840650Y197402D02*
D03*
Y193543D02*
D03*
X915453Y197402D02*
D03*
Y193543D02*
D03*
X990256Y197402D02*
D03*
Y193543D02*
D03*
X1130512Y197402D02*
D03*
Y193543D02*
D03*
X1270768Y197402D02*
D03*
Y193543D02*
D03*
X1345571Y197402D02*
D03*
Y193543D02*
D03*
X1420374Y197402D02*
D03*
Y193543D02*
D03*
X1495177Y197402D02*
D03*
Y193543D02*
D03*
X1569980Y160000D02*
D03*
Y156142D02*
D03*
X158071Y122598D02*
D03*
Y118740D02*
D03*
X251575Y122598D02*
D03*
Y118740D02*
D03*
X345079Y122598D02*
D03*
Y118740D02*
D03*
X625591Y122598D02*
D03*
Y118740D02*
D03*
X897244Y122598D02*
D03*
Y118740D02*
D03*
X972047Y122598D02*
D03*
Y118740D02*
D03*
X1046850Y122598D02*
D03*
Y118740D02*
D03*
X1121653Y122598D02*
D03*
Y118740D02*
D03*
X1196457Y122598D02*
D03*
Y118740D02*
D03*
X1271260Y122598D02*
D03*
Y118740D02*
D03*
X1346063Y122598D02*
D03*
Y118740D02*
D03*
X1420866Y122598D02*
D03*
Y118740D02*
D03*
X1495669Y122598D02*
D03*
Y118740D02*
D03*
D29*
X1186811Y118898D02*
D03*
X1261614D02*
D03*
X1336417D02*
D03*
X1411220D02*
D03*
X1336417Y193701D02*
D03*
X1411220D02*
D03*
X1486024D02*
D03*
X1560827Y156299D02*
D03*
X148917Y118898D02*
D03*
X335925D02*
D03*
X616437D02*
D03*
X887598D02*
D03*
X962402D02*
D03*
X1037205D02*
D03*
X1112008D02*
D03*
X307874Y193701D02*
D03*
X382677D02*
D03*
X457480D02*
D03*
X532283D02*
D03*
X607087D02*
D03*
X681890D02*
D03*
X756693D02*
D03*
X831496D02*
D03*
X906299D02*
D03*
X981102D02*
D03*
X1121358D02*
D03*
X1261614D02*
D03*
X644488Y268504D02*
D03*
X719291D02*
D03*
X794095D02*
D03*
X868898D02*
D03*
X943701D02*
D03*
X1018504D02*
D03*
X1140059D02*
D03*
X1261614D02*
D03*
X1336417D02*
D03*
X1411220D02*
D03*
X1486024D02*
D03*
X186319Y193701D02*
D03*
X1168110Y343307D02*
D03*
X1261614D02*
D03*
X1336417D02*
D03*
X1411220D02*
D03*
X1486024D02*
D03*
X1560827Y305906D02*
D03*
X167618Y268504D02*
D03*
X270472D02*
D03*
X345276D02*
D03*
X420079D02*
D03*
X494882D02*
D03*
X569685D02*
D03*
X251772Y343307D02*
D03*
X326575D02*
D03*
X401378D02*
D03*
X476181D02*
D03*
X550984D02*
D03*
X625787D02*
D03*
X700591D02*
D03*
X775394D02*
D03*
X850197D02*
D03*
X925000D02*
D03*
X999803D02*
D03*
X1074606D02*
D03*
X737992Y418110D02*
D03*
X812795D02*
D03*
X887598D02*
D03*
X962402D02*
D03*
X1037205D02*
D03*
X1149409D02*
D03*
X1261614D02*
D03*
X1336417D02*
D03*
X1411220D02*
D03*
X1486024D02*
D03*
X1560827D02*
D03*
X158268Y343307D02*
D03*
X1037205Y492913D02*
D03*
X1112008D02*
D03*
X1186811D02*
D03*
X1261614D02*
D03*
X139567Y418110D02*
D03*
X289173D02*
D03*
X363976D02*
D03*
X438779D02*
D03*
X513583D02*
D03*
X588386D02*
D03*
X663189D02*
D03*
X139567Y492913D02*
D03*
X214370D02*
D03*
X289173D02*
D03*
X363976D02*
D03*
X438779D02*
D03*
X513583D02*
D03*
X588386D02*
D03*
X663189D02*
D03*
X737992D02*
D03*
X812795D02*
D03*
X887598D02*
D03*
X962402D02*
D03*
X1486024Y118898D02*
D03*
X242421D02*
D03*
X214370Y418110D02*
D03*
X1489567Y122441D02*
D03*
X217913Y421654D02*
D03*
X214370D02*
D03*
X217913Y418110D02*
D03*
X245965Y122441D02*
D03*
X242421D02*
D03*
X245965Y118898D02*
D03*
X1486024Y122441D02*
D03*
X1489567Y118898D02*
D03*
X965945Y496457D02*
D03*
X962402D02*
D03*
X965945Y492913D02*
D03*
X891142Y496457D02*
D03*
X887598D02*
D03*
X891142Y492913D02*
D03*
X816339Y496457D02*
D03*
X812795D02*
D03*
X816339Y492913D02*
D03*
X741535Y496457D02*
D03*
X737992D02*
D03*
X741535Y492913D02*
D03*
X666732Y496457D02*
D03*
X663189D02*
D03*
X666732Y492913D02*
D03*
X591929Y496457D02*
D03*
X588386D02*
D03*
X591929Y492913D02*
D03*
X517126Y496457D02*
D03*
X513583D02*
D03*
X517126Y492913D02*
D03*
X442323Y496457D02*
D03*
X438779D02*
D03*
X442323Y492913D02*
D03*
X367520Y496457D02*
D03*
X363976D02*
D03*
X367520Y492913D02*
D03*
X292717Y496457D02*
D03*
X289173D02*
D03*
X292717Y492913D02*
D03*
X217913Y496457D02*
D03*
X214370D02*
D03*
X217913Y492913D02*
D03*
X143110Y496457D02*
D03*
X139567D02*
D03*
X143110Y492913D02*
D03*
X666732Y421654D02*
D03*
X663189D02*
D03*
X666732Y418110D02*
D03*
X591929Y421654D02*
D03*
X588386D02*
D03*
X591929Y418110D02*
D03*
X517126Y421654D02*
D03*
X513583D02*
D03*
X517126Y418110D02*
D03*
X442323Y421654D02*
D03*
X438779D02*
D03*
X442323Y418110D02*
D03*
X367520Y421654D02*
D03*
X363976D02*
D03*
X367520Y418110D02*
D03*
X292717Y421654D02*
D03*
X289173D02*
D03*
X292717Y418110D02*
D03*
X143110Y421654D02*
D03*
X139567D02*
D03*
X143110Y418110D02*
D03*
X1265158Y496457D02*
D03*
X1261614D02*
D03*
X1265158Y492913D02*
D03*
X1190354Y496457D02*
D03*
X1186811D02*
D03*
X1190354Y492913D02*
D03*
X1115551Y496457D02*
D03*
X1112008D02*
D03*
X1115551Y492913D02*
D03*
X1040748Y496457D02*
D03*
X1037205D02*
D03*
X1040748Y492913D02*
D03*
X161811Y346850D02*
D03*
X158268D02*
D03*
X161811Y343307D02*
D03*
X1564370Y421654D02*
D03*
X1560827D02*
D03*
X1564370Y418110D02*
D03*
X1489567Y421654D02*
D03*
X1486024D02*
D03*
X1489567Y418110D02*
D03*
X1414764Y421654D02*
D03*
X1411220D02*
D03*
X1414764Y418110D02*
D03*
X1339961Y421654D02*
D03*
X1336417D02*
D03*
X1339961Y418110D02*
D03*
X1265158Y421654D02*
D03*
X1261614D02*
D03*
X1265158Y418110D02*
D03*
X1152953Y421654D02*
D03*
X1149409D02*
D03*
X1152953Y418110D02*
D03*
X1040748Y421654D02*
D03*
X1037205D02*
D03*
X1040748Y418110D02*
D03*
X965945Y421654D02*
D03*
X962402D02*
D03*
X965945Y418110D02*
D03*
X891142Y421654D02*
D03*
X887598D02*
D03*
X891142Y418110D02*
D03*
X816339Y421654D02*
D03*
X812795D02*
D03*
X816339Y418110D02*
D03*
X741535Y421654D02*
D03*
X737992D02*
D03*
X741535Y418110D02*
D03*
X1078150Y346850D02*
D03*
X1074606D02*
D03*
X1078150Y343307D02*
D03*
X1003347Y346850D02*
D03*
X999803D02*
D03*
X1003347Y343307D02*
D03*
X928543Y346850D02*
D03*
X925000D02*
D03*
X928543Y343307D02*
D03*
X853740Y346850D02*
D03*
X850197D02*
D03*
X853740Y343307D02*
D03*
X778937Y346850D02*
D03*
X775394D02*
D03*
X778937Y343307D02*
D03*
X704134Y346850D02*
D03*
X700591D02*
D03*
X704134Y343307D02*
D03*
X629331Y346850D02*
D03*
X625787D02*
D03*
X629331Y343307D02*
D03*
X554528Y346850D02*
D03*
X550984D02*
D03*
X554528Y343307D02*
D03*
X479724Y346850D02*
D03*
X476181D02*
D03*
X479724Y343307D02*
D03*
X404921Y346850D02*
D03*
X401378D02*
D03*
X404921Y343307D02*
D03*
X330118Y346850D02*
D03*
X326575D02*
D03*
X330118Y343307D02*
D03*
X255315Y346850D02*
D03*
X251772D02*
D03*
X255315Y343307D02*
D03*
X573228Y272047D02*
D03*
X569685D02*
D03*
X573228Y268504D02*
D03*
X498425Y272047D02*
D03*
X494882D02*
D03*
X498425Y268504D02*
D03*
X423622Y272047D02*
D03*
X420079D02*
D03*
X423622Y268504D02*
D03*
X348819Y272047D02*
D03*
X345276D02*
D03*
X348819Y268504D02*
D03*
X274016Y272047D02*
D03*
X270472D02*
D03*
X274016Y268504D02*
D03*
X171161Y272047D02*
D03*
X167618D02*
D03*
X171161Y268504D02*
D03*
X1564370Y309449D02*
D03*
X1560827D02*
D03*
X1564370Y305906D02*
D03*
X1489567Y346850D02*
D03*
X1486024D02*
D03*
X1489567Y343307D02*
D03*
X1414764Y346850D02*
D03*
X1411220D02*
D03*
X1414764Y343307D02*
D03*
X1339961Y346850D02*
D03*
X1336417D02*
D03*
X1339961Y343307D02*
D03*
X1265158Y346850D02*
D03*
X1261614D02*
D03*
X1265158Y343307D02*
D03*
X1171653Y346850D02*
D03*
X1168110D02*
D03*
X1171653Y343307D02*
D03*
X189862Y197244D02*
D03*
X186319D02*
D03*
X189862Y193701D02*
D03*
X1489567Y272047D02*
D03*
X1486024D02*
D03*
X1489567Y268504D02*
D03*
X1414764Y272047D02*
D03*
X1411220D02*
D03*
X1414764Y268504D02*
D03*
X1339961Y272047D02*
D03*
X1336417D02*
D03*
X1339961Y268504D02*
D03*
X1265158Y272047D02*
D03*
X1261614D02*
D03*
X1265158Y268504D02*
D03*
X1143602Y272047D02*
D03*
X1140059D02*
D03*
X1143602Y268504D02*
D03*
X1022047Y272047D02*
D03*
X1018504D02*
D03*
X1022047Y268504D02*
D03*
X947244Y272047D02*
D03*
X943701D02*
D03*
X947244Y268504D02*
D03*
X872441Y272047D02*
D03*
X868898D02*
D03*
X872441Y268504D02*
D03*
X797638Y272047D02*
D03*
X794095D02*
D03*
X797638Y268504D02*
D03*
X722835Y272047D02*
D03*
X719291D02*
D03*
X722835Y268504D02*
D03*
X648032Y272047D02*
D03*
X644488D02*
D03*
X648032Y268504D02*
D03*
X1265158Y197244D02*
D03*
X1261614D02*
D03*
X1265158Y193701D02*
D03*
X1124902Y197244D02*
D03*
X1121358D02*
D03*
X1124902Y193701D02*
D03*
X984646Y197244D02*
D03*
X981102D02*
D03*
X984646Y193701D02*
D03*
X909842Y197244D02*
D03*
X906299D02*
D03*
X909842Y193701D02*
D03*
X835039Y197244D02*
D03*
X831496D02*
D03*
X835039Y193701D02*
D03*
X760236Y197244D02*
D03*
X756693D02*
D03*
X760236Y193701D02*
D03*
X685433Y197244D02*
D03*
X681890D02*
D03*
X685433Y193701D02*
D03*
X610630Y197244D02*
D03*
X607087D02*
D03*
X610630Y193701D02*
D03*
X535827Y197244D02*
D03*
X532283D02*
D03*
X535827Y193701D02*
D03*
X461024Y197244D02*
D03*
X457480D02*
D03*
X461024Y193701D02*
D03*
X386221Y197244D02*
D03*
X382677D02*
D03*
X386221Y193701D02*
D03*
X311417Y197244D02*
D03*
X307874D02*
D03*
X311417Y193701D02*
D03*
X1115551Y122441D02*
D03*
X1112008D02*
D03*
X1115551Y118898D02*
D03*
X1040748Y122441D02*
D03*
X1037205D02*
D03*
X1040748Y118898D02*
D03*
X965945Y122441D02*
D03*
X962402D02*
D03*
X965945Y118898D02*
D03*
X891142Y122441D02*
D03*
X887598D02*
D03*
X891142Y118898D02*
D03*
X619980Y122441D02*
D03*
X616437D02*
D03*
X619980Y118898D02*
D03*
X339469Y122441D02*
D03*
X335925D02*
D03*
X339469Y118898D02*
D03*
X152461Y122441D02*
D03*
X148917D02*
D03*
X152461Y118898D02*
D03*
X1564370Y159843D02*
D03*
X1560827D02*
D03*
X1564370Y156299D02*
D03*
X1489567Y197244D02*
D03*
X1486024D02*
D03*
X1489567Y193701D02*
D03*
X1414764Y197244D02*
D03*
X1411220D02*
D03*
X1414764Y193701D02*
D03*
X1339961Y197244D02*
D03*
X1336417D02*
D03*
X1339961Y193701D02*
D03*
X1414764Y122441D02*
D03*
X1411220D02*
D03*
X1414764Y118898D02*
D03*
X1339961Y122441D02*
D03*
X1336417D02*
D03*
X1339961Y118898D02*
D03*
X1265158Y122441D02*
D03*
X1261614D02*
D03*
X1265158Y118898D02*
D03*
X1190354Y122441D02*
D03*
X1186811D02*
D03*
X1190354Y118898D02*
D03*
D30*
X155079Y172835D02*
D03*
X146299D02*
D03*
X1267776Y546850D02*
D03*
X1258996D02*
D03*
X1192972D02*
D03*
X1184193D02*
D03*
X1118169D02*
D03*
X1109390D02*
D03*
X1043366D02*
D03*
X1034587D02*
D03*
X968563D02*
D03*
X959783D02*
D03*
X893760D02*
D03*
X884980D02*
D03*
X818957D02*
D03*
X810177D02*
D03*
X744153D02*
D03*
X735374D02*
D03*
X669350D02*
D03*
X660571D02*
D03*
X594547D02*
D03*
X585768D02*
D03*
X519744D02*
D03*
X510965D02*
D03*
X444941D02*
D03*
X436161D02*
D03*
X370138D02*
D03*
X361358D02*
D03*
X295335D02*
D03*
X286555D02*
D03*
X220532D02*
D03*
X211752D02*
D03*
X145728D02*
D03*
X136949D02*
D03*
X1566988Y472047D02*
D03*
X1558209D02*
D03*
X1492185D02*
D03*
X1483405D02*
D03*
X1417382D02*
D03*
X1408602D02*
D03*
X1342579D02*
D03*
X1333799D02*
D03*
X1267776D02*
D03*
X1258996D02*
D03*
X1155571D02*
D03*
X1146791D02*
D03*
X1041398D02*
D03*
X1032618D02*
D03*
X968563D02*
D03*
X959783D02*
D03*
X893760D02*
D03*
X884980D02*
D03*
X818957D02*
D03*
X810177D02*
D03*
X744153D02*
D03*
X735374D02*
D03*
X669350D02*
D03*
X660571D02*
D03*
X594547D02*
D03*
X585768D02*
D03*
X519744D02*
D03*
X510965D02*
D03*
X444941D02*
D03*
X436161D02*
D03*
X370138D02*
D03*
X361358D02*
D03*
X295335D02*
D03*
X286555D02*
D03*
X220532D02*
D03*
X211752D02*
D03*
X145728D02*
D03*
X136949D02*
D03*
X1566988Y359842D02*
D03*
X1558209D02*
D03*
X1492185Y397244D02*
D03*
X1483405D02*
D03*
X1417382D02*
D03*
X1408602D02*
D03*
X1342579D02*
D03*
X1333799D02*
D03*
X1267776D02*
D03*
X1258996D02*
D03*
X1174272D02*
D03*
X1165492D02*
D03*
X1080768D02*
D03*
X1071988D02*
D03*
X1005965D02*
D03*
X997185D02*
D03*
X931161D02*
D03*
X922382D02*
D03*
X856358D02*
D03*
X847579D02*
D03*
X781555D02*
D03*
X772776D02*
D03*
X706752D02*
D03*
X697972D02*
D03*
X631949D02*
D03*
X623169D02*
D03*
X557146D02*
D03*
X548366D02*
D03*
X482342D02*
D03*
X473563D02*
D03*
X407539D02*
D03*
X398760D02*
D03*
X332736D02*
D03*
X323957D02*
D03*
X257933D02*
D03*
X249153D02*
D03*
X164429D02*
D03*
X155650D02*
D03*
X1492185Y322441D02*
D03*
X1483405D02*
D03*
X1417382D02*
D03*
X1408602D02*
D03*
X1342579D02*
D03*
X1333799D02*
D03*
X1267776D02*
D03*
X1258996D02*
D03*
X1146220D02*
D03*
X1137441D02*
D03*
X1024665D02*
D03*
X1015886D02*
D03*
X949862D02*
D03*
X941083D02*
D03*
X875059D02*
D03*
X866280D02*
D03*
X800256D02*
D03*
X791476D02*
D03*
X725453D02*
D03*
X716673D02*
D03*
X650650D02*
D03*
X641870D02*
D03*
X575846D02*
D03*
X567067D02*
D03*
X501043D02*
D03*
X492264D02*
D03*
X426240D02*
D03*
X417461D02*
D03*
X351437D02*
D03*
X342657D02*
D03*
X276634D02*
D03*
X267854D02*
D03*
X173779D02*
D03*
X165000D02*
D03*
X1566988Y210236D02*
D03*
X1558209D02*
D03*
X1492185Y247638D02*
D03*
X1483405D02*
D03*
X1417382D02*
D03*
X1408602D02*
D03*
X1342579D02*
D03*
X1333799D02*
D03*
X1267776D02*
D03*
X1258996D02*
D03*
X1127520D02*
D03*
X1118740D02*
D03*
X987264D02*
D03*
X978484D02*
D03*
X912461D02*
D03*
X903681D02*
D03*
X837658D02*
D03*
X828878D02*
D03*
X762854D02*
D03*
X754075D02*
D03*
X688051D02*
D03*
X679272D02*
D03*
X613248D02*
D03*
X604468D02*
D03*
X538445D02*
D03*
X529665D02*
D03*
X463642D02*
D03*
X454862D02*
D03*
X388839D02*
D03*
X380059D02*
D03*
X314035D02*
D03*
X305256D02*
D03*
X192480D02*
D03*
X183701D02*
D03*
X1492185Y172835D02*
D03*
X1483405D02*
D03*
X1417382D02*
D03*
X1408602D02*
D03*
X1342579D02*
D03*
X1333799D02*
D03*
X1267776D02*
D03*
X1258996D02*
D03*
X1192972D02*
D03*
X1184193D02*
D03*
X1118169D02*
D03*
X1109390D02*
D03*
X1043366D02*
D03*
X1034587D02*
D03*
X968563D02*
D03*
X959783D02*
D03*
X893760D02*
D03*
X884980D02*
D03*
X622709D02*
D03*
X613929D02*
D03*
X342087D02*
D03*
X333307D02*
D03*
X248583D02*
D03*
X239803D02*
D03*
M02*
